<svg width="60" height="30" viewBox="0 0 60 30" fill="none" xmlns="http://www.w3.org/2000/svg">
<g clip-path="url(#clip0_14_3944)">
<path d="M60 0H0V30H60V0Z" fill="white"/>
<path d="M16.365 8.6175C15.798 8.11005 15.7395 7.9821 15.7395 7.2648C15.7395 6.2922 16.1655 5.66115 17.01 5.3847C17.793 5.1288 18.4425 5.2731 19.0275 5.83275C19.83 6.59895 19.8495 7.6116 19.08 8.5128C18.72 8.934 18.4995 9.0363 17.817 9.10035C17.0475 9.17265 16.9485 9.1398 16.365 8.6175ZM0.75 0.75V15V29.25H30H59.25V15V0.75H30H0.75ZM6.5838 2.8083H15.3345H24.0855V8.11245V13.4166H22.647H21.204L20.6625 12.8031C20.361 12.4648 19.7205 11.7182 19.239 11.1456C17.9415 9.6042 17.8695 9.5808 13.9622 9.6414C10.9613 9.6879 10.6343 9.7209 10.316 10.0026C9.7269 10.524 8.04225 13.3921 8.04225 13.8719C8.04225 14.6938 9.01845 15.1485 9.53115 14.5646C9.6648 14.4122 10.1544 13.6641 10.6199 12.9021L11.4655 11.5167H12.5898C13.2077 11.5167 13.7141 11.5455 13.7141 11.5811C13.7141 11.6165 13.5389 11.9906 13.3241 12.4122C11.8401 15.3255 11.8094 15.4125 11.6024 17.9295C11.4948 19.236 11.3813 20.3925 11.349 20.502C11.3054 20.6505 10.6083 20.7 8.55885 20.7C5.97675 20.7 5.7918 20.7195 5.2722 21.0615C4.72515 21.4215 4.38855 21.915 4.28475 22.521C4.23165 22.8315 4.3233 22.8375 8.6448 22.8375C12.8664 22.8375 13.0694 22.824 13.3848 22.5165C13.6779 22.23 13.727 21.918 13.8204 19.7055C13.8782 18.3375 13.9803 17.217 14.0483 17.217C14.1161 17.217 15.117 19.0875 16.272 21.3735C17.4255 23.6595 18.5295 25.668 18.7275 25.8405C19.0005 26.079 19.383 26.172 20.292 26.217C20.9535 26.25 21.492 26.2365 21.492 26.187C21.492 26.1375 20.3985 23.9265 19.062 21.2745C17.724 18.621 16.6305 16.344 16.6305 16.212C16.6305 15.8925 18.069 12.9385 18.216 12.9566C18.279 12.9644 18.774 13.4808 19.3155 14.1045L20.298 15.237L22.191 15.282L24.0855 15.327V21.303V27.2805L23.229 28.107L22.374 28.9335H20.799C19.932 28.9335 19.224 28.8825 19.224 28.8195C19.224 28.7565 19.641 28.293 20.151 27.7905L21.0765 26.8755H19.8105H18.5445L17.451 27.9045L16.362 28.9335H10.7414C7.65135 28.9335 5.12535 28.8735 5.12535 28.8045C5.12535 28.7355 5.45355 28.368 5.8545 27.984L6.5838 27.2805V25.3365V23.391H4.95315C3.0858 23.391 3.1425 23.4795 3.93525 21.8475C4.35105 20.9925 5.1414 20.3865 6.13815 20.16L6.5838 20.061V11.4326V2.8083ZM48.2655 5.9799C48.378 5.98335 49.545 7.0344 50.8545 8.3154L53.229 10.6458L53.487 23.97C50.8725 23.85 48.7365 23.7675 46.6095 23.703L40.047 23.505L35.1195 18.573C35.1645 18.5295 37.149 18.567 39.531 18.657C41.9115 18.747 43.971 18.798 44.109 18.771C44.2665 18.738 42.9045 17.3085 40.3815 14.8614C38.1915 12.738 36.4005 10.9531 36.4005 10.8983C36.4005 10.8432 37.26 9.96255 38.31 8.9388L40.2195 7.0734L43.131 9.8739C44.7315 11.4138 46.572 13.1802 47.223 13.7976L48.408 14.9208L48.312 11.0417C48.2595 8.9082 48.1815 6.89535 48.1395 6.5688C48.0855 6.15495 48.123 5.97555 48.2655 5.9799Z" fill="#008855"/>
</g>
<defs>
<clipPath id="clip0_14_3944">
<rect width="60" height="30" fill="white"/>
</clipPath>
</defs>
</svg>
