<svg width="60" height="60" viewBox="0 0 60 60" fill="none" xmlns="http://www.w3.org/2000/svg">
<g clip-path="url(#clip0_13_3882)">
<path d="M60 0H0V60H60V0Z" fill="white"/>
<path d="M58.5 1.5H1.5V58.5H58.5V1.5Z" fill="#008855"/>
<path d="M39.8191 10.8351H53.9695V15.552H39.8191V10.8351ZM44.536 6.11816H49.2529V20.2686H44.536V6.11816Z" fill="white"/>
<path d="M16.8774 19.7584C11.2965 19.8166 6.29699 25.3684 7.80839 32.6932C8.942 38.3032 14.9007 45.5698 25.2777 52.6042C35.6547 45.541 41.6133 38.2741 42.747 32.6932C44.2585 25.3393 39.288 19.8166 33.678 19.7584C30.8003 19.7003 27.1959 21.2408 25.2777 24.9034C23.3592 21.241 19.755 19.7005 16.8774 19.7584ZM29.754 24.2056L24.8706 34.2337H31.062L20.22 46.8487L24.4056 36.9658H18.3888L29.754 24.2056Z" fill="white"/>
</g>
<defs>
<clipPath id="clip0_13_3882">
<rect width="60" height="60" fill="white"/>
</clipPath>
</defs>
</svg>
