<?xml version="1.0" encoding="UTF-8" standalone="no"?>
<!-- Created with Inkscape (http://www.inkscape.org/) -->

<svg
   width="20"
   height="20"
   viewBox="0 0 5.2916665 5.2916666"
   version="1.1"
   id="svg1"
   xml:space="preserve"
   inkscape:version="1.3.1 (91b66b0783, 2023-11-16)"
   sodipodi:docname="enchufe.svg"
   xmlns:inkscape="http://www.inkscape.org/namespaces/inkscape"
   xmlns:sodipodi="http://sodipodi.sourceforge.net/DTD/sodipodi-0.dtd"
   xmlns="http://www.w3.org/2000/svg"
   xmlns:svg="http://www.w3.org/2000/svg"><sodipodi:namedview
     id="namedview1"
     pagecolor="#ffffff"
     bordercolor="#000000"
     borderopacity="0.25"
     inkscape:showpageshadow="2"
     inkscape:pageopacity="0.0"
     inkscape:pagecheckerboard="0"
     inkscape:deskcolor="#d1d1d1"
     inkscape:document-units="mm"
     inkscape:zoom="23.917621"
     inkscape:cx="20.131601"
     inkscape:cy="16.117824"
     inkscape:window-width="1920"
     inkscape:window-height="991"
     inkscape:window-x="-9"
     inkscape:window-y="-9"
     inkscape:window-maximized="1"
     inkscape:current-layer="layer1"
     showgrid="false" /><defs
     id="defs1" /><g
     inkscape:label="Capa 1"
     inkscape:groupmode="layer"
     id="layer1"><path
       style="fill:#ffffff;stroke:#000000;stroke-width:0.226449;paint-order:markers stroke fill"
       d="M 0.20273722,3.7152825 0.13437636,0.58793829 5.3525887,0.88630682 V 3.6047756 Z"
       id="path2" /><path
       style="fill:#ff0000;stroke-width:0.292474"
       d="m -0.00267442,4.0004577 c -0.01583,-0.2424007 -0.01738,-1.2419808 -0.0035,-2.2212826 l 0.02531,-1.78055026 H 2.6475576 5.2759766 V 0.87832072 1.7580249 l -0.27412,-0.045506 c -0.15077,-0.025078 -0.39633,-0.1531166 -0.54567,-0.284618 -0.23948,-0.210854 -0.31491,-0.2364966 -0.63876,-0.2171484 -0.32975,0.01968 -0.36996,0.041769 -0.39409,0.2158613 -0.0256,0.1851698 -0.0478,0.1939222 -0.49095,0.1939222 -0.341119,0 -0.42778,-5.315e-4 -0.464959,0.079967 -0.04435,0.095969 -0.0547,0.4416955 -0.185016,0.3302897 C 2.1019096,1.523787 1.7305956,1.3132818 1.2413276,1.338476 0.98547258,1.351679 0.77524158,1.370197 0.77524158,1.408977 c 0,0.038779 -0.04328,0.070501 -0.09619,0.070501 -0.0529,0 -0.162769,0.063774 -0.244144,0.1416572 -0.202489,0.1938807 -0.208687,1.0016477 -0.0091,1.1799087 0.491933,0.4392625 1.18022002,0.5097963 1.63718402,0.012622 0.07895,-0.085896 0.255975,-0.4547909 0.301602,-0.3560569 0.04042,0.087474 0.215561,0.3616704 0.562771,0.3616704 0.442182,0 0.460982,0.00747 0.510052,0.2115515 0.0468,0.1943457 0.0797,0.2115515 0.40396,0.2115515 0.29463,0 0.4002,-0.04152 0.63844,-0.2513191 0.15977,-0.1406773 0.35112,-0.2423509 0.43463,-0.2309413 0.0821,0.01121 0.19695,-0.00415 0.25533,-0.034877 0.0828,-0.043181 0.10615,0.139357 0.10615,0.8303372 V 4.4411984 H 2.6509666 0.02600258 Z M 1.1496776,2.6972104 c 0,-0.058211 -0.01701,-0.1391328 0.02969,-0.1391328 0.04671,0 0.210448,-0.027486 0.210448,0.030725 0,0.058211 0.0371,0.1349641 -0.0096,0.1349641 -0.04671,0 -0.23053,0.031638 -0.23053,-0.026573 z m 1.118927,-0.3341428 c -0.02394,-0.076396 -0.02417,-0.2033306 -3.21e-4,-0.2820687 0.03871,-0.1286448 -0.171166,-0.2763805 0.321534,-0.2551307 l 0.803929,-0.00581 0.0142,0.3998768 0.007,0.3998852 -0.924176,-0.00581 C 2.0041566,2.6350138 2.3073346,2.4865142 2.2686556,2.3631174 Z M 1.4316476,1.8599809 c 0.06336,0.1735277 -0.157493,0.1401624 -0.24703,0.1371066 -0.09892,-0.00332 -0.02487,-0.2357742 -0.0513,-0.1259959 0.0242,-0.1004945 0.291855,-0.028898 0.298335,-0.011127 z"
       id="path1"
       sodipodi:nodetypes="ssccccccssssscsssssssssssssscccscsssscsscccsccssssss" /><text
       xml:space="preserve"
       style="font-size:1.09986px;font-family:Arial;-inkscape-font-specification:Arial;fill:#000000;stroke:#000000;stroke-width:0.0497162;paint-order:markers stroke fill"
       x="-0.02904099"
       y="5.312324"
       id="text1"
       transform="scale(1.0276073,0.97313441)"><tspan
         sodipodi:role="line"
         id="tspan1"
         style="stroke-width:0.0497162"
         x="-0.02904099"
         y="5.312324">Red Inerte</tspan></text></g></svg>
