<?xml version="1.0" encoding="UTF-8" standalone="no"?>
<!-- Created with Inkscape (http://www.inkscape.org/) -->

<svg
   width="50"
   height="50"
   viewBox="0 0 13.229166 13.229166"
   version="1.1"
   id="svg1"
   xml:space="preserve"
   inkscape:version="1.3.2 (091e20e, 2023-11-25)"
   sodipodi:docname="enchufe.svg"
   xmlns:inkscape="http://www.inkscape.org/namespaces/inkscape"
   xmlns:sodipodi="http://sodipodi.sourceforge.net/DTD/sodipodi-0.dtd"
   xmlns="http://www.w3.org/2000/svg"
   xmlns:svg="http://www.w3.org/2000/svg"><sodipodi:namedview
     id="namedview1"
     pagecolor="#ffffff"
     bordercolor="#000000"
     borderopacity="0.25"
     inkscape:showpageshadow="2"
     inkscape:pageopacity="0.0"
     inkscape:pagecheckerboard="0"
     inkscape:deskcolor="#d1d1d1"
     inkscape:document-units="mm"
     inkscape:zoom="11.23026"
     inkscape:cx="22.706509"
     inkscape:cy="27.91565"
     inkscape:window-width="1680"
     inkscape:window-height="1022"
     inkscape:window-x="0"
     inkscape:window-y="28"
     inkscape:window-maximized="0"
     inkscape:current-layer="layer1"
     showgrid="false" /><defs
     id="defs1" /><g
     inkscape:label="Capa 1"
     inkscape:groupmode="layer"
     id="layer1"><path
       style="fill:#ffffff;stroke:#000000;stroke-width:0.736648;paint-order:markers stroke fill"
       d="M -0.97753626,8.1467849 -1.2028608,-1.8936931 15.99691,-0.93576765 V 7.7919979 Z"
       id="path2" /><path
       style="fill:#ff0000;stroke-width:0.775532"
       d="m -0.34193682,9.8270154 c -0.0416649,-0.6475448 -0.0457446,-3.317804 -0.009212,-5.9338922 l 0.0666165,-4.75652796 H 6.6335317 13.551587 V 1.486598 3.8366229 L 12.830098,3.7150598 C 12.433268,3.6480662 11.786949,3.3060263 11.393882,2.954736 10.763566,2.3914647 10.565033,2.3229634 9.712652,2.3746498 8.8447433,2.4272228 8.7389097,2.4862308 8.675399,2.9512978 8.6080192,3.4459569 8.5495883,3.4693376 7.3832078,3.4693376 c -0.8978325,0 -1.1259263,-0.00142 -1.2237823,0.2136214 C 6.0426955,3.9393297 6.0154541,4.862897 5.6724594,4.5652897 5.1973743,3.2108843 4.2200678,2.6485447 2.9323037,2.7158481 2.2588875,2.7511171 1.705555,2.8005861 1.705555,2.9041835 c 0,0.1035922 -0.1139138,0.1883354 -0.2531741,0.1883354 -0.1392339,0 -0.4284115,0.1703647 -0.6425924,0.3784202 -0.53295541,0.5179292 -0.54926869,2.6757828 -0.0239517,3.1519857 1.2947784,1.1734376 3.1063648,1.36186 4.3091041,0.033718 0.2077982,-0.22946 0.6737318,-1.2149198 0.7938231,-0.9511637 0.1063872,0.2336762 0.5673612,0.9661595 1.4812255,0.9661595 1.1638327,0 1.2133147,0.019955 1.342468,0.5651346 0.1231785,0.5191715 0.2097721,0.5651348 1.0632315,0.5651348 0.775472,0 1.053334,-0.1109157 1.680388,-0.671369 0.420517,-0.3758028 0.924156,-0.6474117 1.143955,-0.6169324 0.21609,0.029947 0.518376,-0.011089 0.672035,-0.09317 0.217931,-0.1153515 0.279389,0.3722758 0.279389,2.218147 V 11.004401 H 6.6425043 -0.26645834 Z M 2.6910788,6.3455451 c 0,-0.1555037 -0.04477,-0.3716766 0.078144,-0.3716766 0.1229417,0 0.5539038,-0.073426 0.5539038,0.082077 0,0.1555038 0.097648,0.3605406 -0.025266,0.3605406 -0.1229419,0 -0.6067601,0.084518 -0.6067601,-0.070986 z M 5.6361191,5.4529225 C 5.5731086,5.2488397 5.5725032,4.909749 5.6352744,4.6994097 5.7371598,4.3557503 5.1847617,3.9610921 6.4815588,4.0178583 L 8.5975174,4.0023493 8.6348914,5.0705724 8.6533169,6.1388181 6.2208655,6.123309 C 4.9400862,6.1793944 5.7380573,5.7826954 5.6362534,5.4530556 Z M 3.43323,4.1089864 C 3.5999948,4.5725448 3.0187052,4.4834134 2.7830418,4.4752503 2.522682,4.4663811 2.7175833,3.8454076 2.6480189,4.1386672 2.7117139,3.870208 3.4161878,4.0614696 3.4332432,4.1089427 Z"
       id="path1"
       sodipodi:nodetypes="ssccccccssssscsssssssssssssscccscsssscsscccsccssssss" /><text
       xml:space="preserve"
       style="font-size:2.72171px;font-family:Arial;-inkscape-font-specification:Arial;fill:#ffffff;stroke:#ffffff;stroke-width:0.123027;paint-order:markers stroke fill;fill-opacity:1;stroke-opacity:1"
       x="0.17705484"
       y="13.181452"
       id="text1"
       transform="scale(1.0079341,0.99212833)"><tspan
         sodipodi:role="line"
         id="tspan1"
         style="stroke-width:0.123027;fill:#ffffff;fill-opacity:1;stroke:#ffffff;stroke-opacity:1"
         x="0.17705484"
         y="13.181452">Red Inerte</tspan></text></g></svg>
