<?xml version="1.0" encoding="UTF-8" standalone="no"?>
<!-- Created with Inkscape (http://www.inkscape.org/) -->

<svg
   width="36.625"
   height="64.139084"
   viewBox="0 0 9.6903638 16.970132"
   version="1.1"
   id="svg1"
   xml:space="preserve"
   inkscape:version="1.3.2 (091e20e, 2023-11-25, custom)"
   sodipodi:docname="Extintor CO2.svg"
   xmlns:inkscape="http://www.inkscape.org/namespaces/inkscape"
   xmlns:sodipodi="http://sodipodi.sourceforge.net/DTD/sodipodi-0.dtd"
   xmlns="http://www.w3.org/2000/svg"
   xmlns:svg="http://www.w3.org/2000/svg"><sodipodi:namedview
     id="namedview1"
     pagecolor="#ffffff"
     bordercolor="#000000"
     borderopacity="0.25"
     inkscape:showpageshadow="2"
     inkscape:pageopacity="0.0"
     inkscape:pagecheckerboard="0"
     inkscape:deskcolor="#d1d1d1"
     inkscape:document-units="mm"
     inkscape:zoom="8"
     inkscape:cx="39.6875"
     inkscape:cy="60.6875"
     inkscape:window-width="1920"
     inkscape:window-height="1017"
     inkscape:window-x="-8"
     inkscape:window-y="-8"
     inkscape:window-maximized="1"
     inkscape:current-layer="layer1" /><defs
     id="defs1" /><g
     inkscape:label="Capa 1"
     inkscape:groupmode="layer"
     id="layer1"
     style="display:inline"
     transform="matrix(3.4876308,0,0,3.4876308,-363.34823,-508.6739)"><path
       style="fill:#ff0000;stroke:#000000;stroke-width:0.0727781;stroke-opacity:1"
       d="m 104.2339,145.91601 h 2.67142 v 3.7847 h -2.67721 z"
       id="path1" /><path
       style="fill:#ffffff;stroke-width:0.0727781"
       d="m 105.42655,146.59637 v 0.35104 l -0.15513,0.002 c -0.0535,-0.002 -0.0891,0.0154 -0.0807,0.0812 l 0.007,2.01057 c 0.0136,0.0673 0.0419,0.10867 0.078,0.1362 h 0.58989 c 0.0518,-0.007 0.087,-0.0474 0.11058,-0.11146 l 0.004,-2.03958 c 0.002,-0.0464 -0.0225,-0.0655 -0.0597,-0.0721 l -0.27235,-0.007 -0.007,-0.34934 z"
       id="path3"
       sodipodi:nodetypes="ccccccccccccc" /><path
       style="fill:#ffffff;stroke-width:0.0727781"
       d="m 105.64439,146.70537 c 0.22836,-0.0118 0.71552,-0.0718 0.74381,-0.002 0.16262,0.14926 0.18378,0.38924 0.1865,0.44212 0.004,0.26236 -0.13055,0.33886 -0.22252,0.46776 l -0.37932,0.42718 -0.002,-0.1602 0.30304,-0.32251 c 0.065,-0.10747 0.13109,-0.0704 0.21615,-0.35456 0.0428,-0.15831 -0.0355,-0.28782 -0.1441,-0.41222 -0.0153,-0.0943 -0.46973,-0.005 -0.6972,-0.004 z"
       id="path4"
       sodipodi:nodetypes="ccccccccccc" /><path
       style="fill:#ffffff;stroke-width:0.0727781"
       d="m 104.50008,146.56348 -0.004,0.35517 c 0.2919,-0.004 0.60138,-0.0505 0.92605,-0.13216 v -0.0785 c -0.46378,-0.1199 -0.6925,-0.13211 -0.9217,-0.14454 z"
       id="path2"
       sodipodi:nodetypes="ccccc" /><path
       style="fill:#ff0000;stroke-width:0.0727781"
       d="m 105.80801,147.39464 0.0312,10e-4 c 0.055,-0.007 0.0602,-0.0552 0.0758,-0.0909 -0.0331,-0.0191 -0.0781,-0.0429 -0.0916,-0.0957 -0.0173,0.0349 -0.004,0.0533 -0.0867,0.096 0.0128,0.0422 0.009,0.0867 0.0714,0.0892 z"
       id="path5"
       sodipodi:nodetypes="ccccccc" /><text
       xml:space="preserve"
       style="font-size:0.677867px;line-height:0.576454px;font-family:Arial;-inkscape-font-specification:Arial;fill:#000000;stroke-width:0.138909;stroke-miterlimit:3.6;stroke-dasharray:0.55564, 0.138909"
       x="145.44072"
       y="107.82775"
       id="text1"
       transform="scale(0.71625391,1.3961529)"><tspan
         sodipodi:role="line"
         id="tspan1"
         style="stroke-width:0.138909"
         x="145.44072"
         y="107.82775">Extintor CO2</tspan></text></g></svg>
