<?xml version="1.0" encoding="UTF-8" standalone="no"?>
<!-- Created with Inkscape (http://www.inkscape.org/) -->

<svg
   width="50"
   height="50"
   viewBox="0 0 13.229165 13.229167"
   version="1.1"
   id="svg1"
   xml:space="preserve"
   inkscape:version="1.3.1 (91b66b0783, 2023-11-16)"
   sodipodi:docname="extinm.svg"
   xmlns:inkscape="http://www.inkscape.org/namespaces/inkscape"
   xmlns:sodipodi="http://sodipodi.sourceforge.net/DTD/sodipodi-0.dtd"
   xmlns="http://www.w3.org/2000/svg"
   xmlns:svg="http://www.w3.org/2000/svg"><sodipodi:namedview
     id="namedview1"
     pagecolor="#ffffff"
     bordercolor="#000000"
     borderopacity="0.25"
     inkscape:showpageshadow="2"
     inkscape:pageopacity="0.0"
     inkscape:pagecheckerboard="0"
     inkscape:deskcolor="#d1d1d1"
     inkscape:document-units="mm"
     inkscape:zoom="5.9794052"
     inkscape:cx="45.405854"
     inkscape:cy="53.76789"
     inkscape:window-width="1920"
     inkscape:window-height="991"
     inkscape:window-x="-9"
     inkscape:window-y="-9"
     inkscape:window-maximized="1"
     inkscape:current-layer="layer1" /><defs
     id="defs1" /><g
     inkscape:label="Capa 1"
     inkscape:groupmode="layer"
     id="layer1"
     transform="translate(-94.870083,-137.57047)"><path
       style="fill:#ffffff;stroke-width:0.105851;paint-order:markers stroke fill"
       d="m 95.991192,137.62425 c 11.155358,0.096 11.155358,0.096 11.155358,0.096 l 0.11008,10.57966 -11.63239,0.048 z"
       id="path6" /><path
       style="fill:#ff0000;stroke-width:0.537712"
       d="m 95.525704,142.81537 c 0.006,-3.01939 0.06885,-5.3674 0.139782,-5.22447 0.19603,0.39504 0.205532,10.70855 0.0099,10.70855 -0.107825,0 -0.157006,-1.80232 -0.149648,-5.48408 z m 0.217303,0.69855 -0.23014,-5.99217 1.600228,-0.0167 c 0.579422,-0.006 2.545932,0.002 2.545932,0.002 0.023,-0.0387 -1.690802,1.54808 -1.932117,1.8116 -0.241315,0.26353 -0.522,0.68772 -0.623746,0.94266 -0.21821,0.54675 -0.248706,3.4939 -0.04211,4.07028 0.07858,0.21924 0.280984,0.77828 0.449785,1.24233 0.1688,0.46403 0.334853,1.14787 0.519379,1.47284 0.229712,0.40455 0.717232,0.50611 1.108049,0.50724 0.105588,-0.0188 0.0493,0.39364 0.08214,0.51857 0.05387,0.20517 -0.100148,0.22716 -1.591001,0.22716 l -2.037939,-0.046 z m 8.808863,4.49348 c -0.004,-0.16064 -0.006,-1.83631 -0.004,-3.72372 l 0.003,-3.43167 -0.85341,-0.74476 c -0.46939,-0.40962 -0.85343,-0.83672 -0.85343,-0.94911 0,-0.33618 0.88226,-0.2467 1.60924,0.16321 0.83088,0.46851 1.16046,0.56632 1.29548,0.38445 0.1003,-0.13507 -0.42255,-0.59201 -1.12486,-0.98309 -0.21106,-0.11753 -0.95856,-0.15467 -1.7074,-0.27053 -0.35657,-0.0552 2.36212,-0.24241 1.98254,-0.30832 -0.0704,-0.0122 -4.10663,0.009 -4.85246,-0.0951 -1.298141,-0.18119 0.48573,-0.52391 1.04418,-0.5171 0.94122,0.0115 6.36817,0.0156 6.32896,-0.0606 -0.0423,-0.0823 -0.0726,2.52925 -0.0658,5.47411 l 0.0122,5.35427 h -1.40343 c -1.34932,0 -1.40371,-0.0112 -1.41061,-0.29205 z m -5.740927,-1.43432 c -0.629911,-1.28492 -0.727945,-1.4899 -0.943558,-1.97296 -0.0956,-0.21416 -0.190394,-1.17792 -0.210658,-2.1417 -0.04123,-1.96084 0.109213,-2.42276 0.989937,-3.03963 0.396644,-0.27782 0.636632,-0.33518 1.402196,-0.33518 0.62774,0 0.92366,0.0513 0.92366,0.1599 0,0.0879 -0.38594,0.4565 -0.85765,0.81903 l -0.857651,0.65912 -0.0023,2.97765 c -0.0012,1.63769 -0.05592,3.04772 -0.121332,3.13338 -0.07809,0.10225 -0.188871,0.013 -0.322555,-0.25961 z m -2.245572,-7.63234 c 0.04415,-0.25871 2.992022,-1.59356 3.786309,-1.62804 0.95073,-0.0412 0.86872,0.47675 0.61535,0.87083 -0.12677,0.19719 -0.3299,0.25107 -0.94646,0.25107 -0.724928,0 -3.501211,0.77582 -3.455199,0.50614 z m 5.001659,-1.11401 c 0.11256,-0.0374 0.24706,-0.0328 0.29888,0.0102 0.0518,0.0431 -0.0403,0.0738 -0.20466,0.0681 -0.18166,-0.006 -0.21862,-0.037 -0.0942,-0.0784 z"
       id="path1"
       sodipodi:nodetypes="ssssccsssssssccscccccssssssssssscscccssssssccsccssssssssss" /><path
       style="fill:none;stroke:#000000;stroke-width:0.0349512;stroke-miterlimit:3.6"
       d="M 95.572569,148.27481 H 107.38632 V 137.50767 H 95.54649 Z"
       id="path2" /><path
       style="fill:#000000;fill-opacity:1;stroke:#000000;stroke-width:0.0349512;stroke-miterlimit:3.6;stroke-opacity:1"
       d="m 102.20534,141.39572 h 0.82983 v 0.19187 h 0.23972 v 0.19954 h 0.23972 v 0.15351 h 0.19364 v 1.56568 h -0.20284 v 0.16117 h -0.21207 v 0.24561 h -0.22129 v 0.15348 h -0.85749"
       id="path3" /><path
       style="fill:#000000;fill-opacity:1;stroke:#000000;stroke-width:0.0349512;stroke-miterlimit:3.6"
       d="m 102.26392,141.40425 h -0.82983 v 0.19188 h -0.23973 v 0.19955 h -0.23972 v 0.15349 h -0.19363 v 1.56568 h 0.20284 v 0.16118 h 0.21207 v 0.24559 h 0.22129 v 0.1535 h 0.85749"
       id="path3-0" /><text
       xml:space="preserve"
       style="font-size:2.96725px;line-height:2.52334px;font-family:Arial;-inkscape-font-specification:Arial;fill:#ffffff;fill-opacity:1;stroke:#000000;stroke-width:0.1139;stroke-miterlimit:3.6;stroke-opacity:1"
       x="79.502838"
       y="182.21075"
       id="text4"
       transform="scale(1.2689381,0.78806051)"><tspan
         sodipodi:role="line"
         id="tspan4"
         style="fill:#ffffff;fill-opacity:1;stroke-width:0.1139"
         x="79.502838"
         y="182.21075">K</tspan></text><path
       style="fill:#ed0000;fill-opacity:1;stroke:none;stroke-width:0.0349512;stroke-miterlimit:3.6;stroke-opacity:1"
       d="m 100.72316,145.5179 h 2.69916 v 0.22793 h -2.69916 z"
       id="path4" /><path
       style="fill:#ff0000;fill-opacity:1;stroke:#de0000;stroke-width:0.196265;stroke-miterlimit:3.6;stroke-dasharray:none;stroke-opacity:1"
       d="m 98.627864,147.95777 h 6.564846"
       id="path5" /><path
       style="fill:#ed0000;fill-opacity:1;stroke:none;stroke-width:0.0349512;stroke-miterlimit:3.6;stroke-opacity:1"
       d="m 100.57142,146.27959 3.17863,0.023 v 0.52725 l -3.17863,-0.008 z"
       id="path4-1"
       sodipodi:nodetypes="ccccc" /><text
       xml:space="preserve"
       style="font-size:2.13142px;font-family:Arial;-inkscape-font-specification:Arial;fill:#000000;stroke-width:0.0963448;paint-order:markers stroke fill"
       x="101.26356"
       y="140.76125"
       id="text1"
       transform="scale(0.9374425,1.0667321)"><tspan
         sodipodi:role="line"
         id="tspan1"
         style="fill:#000000;stroke-width:0.0963448"
         x="101.26356"
         y="140.76125">Extintor Tipo K</tspan></text></g></svg>
