<?xml version="1.0" encoding="UTF-8" standalone="no"?>
<!-- Created with Inkscape (http://www.inkscape.org/) -->

<svg
   version="1.1"
   id="svg1"
   width="50"
   height="50"
   viewBox="0 0 49.999999 50"
   sodipodi:docname="Extintor1.svg"
   inkscape:version="1.3.2 (091e20e, 2023-11-25)"
   xmlns:inkscape="http://www.inkscape.org/namespaces/inkscape"
   xmlns:sodipodi="http://sodipodi.sourceforge.net/DTD/sodipodi-0.dtd"
   xmlns="http://www.w3.org/2000/svg"
   xmlns:svg="http://www.w3.org/2000/svg">
  <defs
     id="defs1">
    <rect
       x="2.0646284"
       y="20.524836"
       width="39.713734"
       height="10.44459"
       id="rect1" />
    <inkscape:path-effect
       effect="bspline"
       id="path-effect3"
       is_visible="true"
       lpeversion="1.3"
       weight="33.333333"
       steps="2"
       helper_size="0"
       apply_no_weight="true"
       apply_with_weight="true"
       only_selected="false"
       uniform="false" />
    <inkscape:path-effect
       effect="bspline"
       id="path-effect2"
       is_visible="true"
       lpeversion="1.3"
       weight="33.333333"
       steps="2"
       helper_size="0"
       apply_no_weight="true"
       apply_with_weight="true"
       only_selected="false"
       uniform="false" />
  </defs>
  <sodipodi:namedview
     id="namedview1"
     pagecolor="#ffffff"
     bordercolor="#000000"
     borderopacity="0.25"
     inkscape:showpageshadow="2"
     inkscape:pageopacity="0.0"
     inkscape:pagecheckerboard="0"
     inkscape:deskcolor="#d1d1d1"
     inkscape:zoom="8.2339275"
     inkscape:cx="14.573847"
     inkscape:cy="27.14379"
     inkscape:window-width="1680"
     inkscape:window-height="1022"
     inkscape:window-x="0"
     inkscape:window-y="28"
     inkscape:window-maximized="0"
     inkscape:current-layer="layer1">
    <inkscape:page
       x="0"
       y="0"
       width="50"
       height="50"
       id="page1"
       margin="0 11.249915 0 0"
       bleed="0" />
  </sodipodi:namedview>
  <g
     inkscape:groupmode="layer"
     id="layer1"
     inkscape:label="Vectorr"
     style="display:inline"
     transform="translate(-9.9587955)">
    <path
       style="fill:#e30005;stroke-width:0.399813;stroke-opacity:0"
       d="M 22.710911,-0.13218338 46.230223,0.01803126 46.316556,34.867816 22.754323,34.78195 Z"
       id="path1"
       sodipodi:nodetypes="ccccc" />
    <path
       style="fill:#ffffff;fill-opacity:1;stroke:none;stroke-width:0.2;stroke-opacity:0"
       d="M 6.7505248,2.3151162 C 7.003543,2.1101716 7.4943983,1.8217308 7.7398259,1.6749805 7.9852535,1.5282301 7.9852535,1.5231691 7.663914,1.5256996 7.3425745,1.52823 6.6999212,1.5383505 6.3456951,1.5636527 5.991469,1.5889549 5.9256856,1.629437 5.8067654,1.7028134 5.6878451,1.7761897 5.5157996,1.8824531 5.3412136,1.9798671 5.1666276,2.077281 4.9895219,2.1658338 4.804815,2.2493315 4.620108,2.3328291 4.427818,2.4112632 4.3190199,2.4530112 4.2102219,2.4947593 4.1849206,2.4998195 4.1216651,2.5580148 4.0584095,2.6162101 3.9572042,2.7275359 3.7649076,2.9350139 3.5726109,3.1424918 3.2892362,3.4461075 3.0134438,3.8686533 2.7376513,4.291199 2.4694574,4.8326471 2.2847531,5.3133858 2.1000488,5.7941246 1.9988436,6.2141263 1.9229376,6.6176941 1.8470317,7.021262 1.79643,7.4083644 1.7912797,7.8183892 c -0.00515,0.4100247 0.035151,0.8429228 0.1186487,1.3603553 0.083498,0.5174326 0.2101839,1.1193485 0.3589424,1.7187755 0.1487584,0.599427 0.3195763,1.196316 0.491632,1.747906 0.1720557,0.551591 0.3453325,1.057828 0.5078795,1.500719 0.1625469,0.44289 0.314355,0.82241 0.3902604,1.019764 0.075905,0.197353 0.075905,0.212533 0.083496,0.369406 0.00759,0.156874 0.022771,0.45543 0.032902,0.60725 0.010131,0.151821 0.015171,0.156861 0.8299059,0.179633 0.8147346,0.02277 2.4390789,0.06325 3.2512672,0.08856 0.8121883,0.0253 0.8121883,0.03542 0.8096581,-0.169528 -0.00253,-0.20495 -0.00759,-0.624951 -0.048074,-0.920984 C 8.5773145,15.024209 8.5014106,14.85216 8.478639,13.113892 8.4558675,11.375624 8.4862289,8.0712727 8.5014099,6.416534 8.5165909,4.7617954 8.5165909,4.7567344 8.4710481,4.6985419 8.4255053,4.6403495 8.3344196,4.5290245 8.2129689,4.4252865 8.0915181,4.3215485 7.9397103,4.2254035 7.6892188,4.1267254 7.4387273,4.0280473 7.0895692,3.9268421 6.8745029,3.8737082 6.6594367,3.8205743 6.5784725,3.8155141 6.5405198,3.7143048 6.5025671,3.6130956 6.5076274,3.4157453 6.5152179,3.3195984 6.5228085,3.2234516 6.5329289,3.2285118 6.8741506,3.1595816 7.2153722,3.0906513 7.8876457,2.9477408 8.1486663,2.8604839 8.4096868,2.7732271 8.2594097,2.7416387 7.9105972,2.7296015 7.5617847,2.7175643 7.0144699,2.7250801 6.7408071,2.7338986 6.4671442,2.7427171 6.4671442,2.7528371 6.474735,2.6971721 6.4823257,2.6415071 6.4975066,2.5200608 6.7505248,2.3151162 Z"
       id="path3"
       inkscape:path-effect="#path-effect3"
       inkscape:original-d="M 6.5126878,2.3986123 C 7.003543,2.1101716 7.4943983,1.8217308 7.9852535,1.5332901 c 0,-0.00506 0,-0.010121 0,-0.015181 C 7.3425745,1.52823 6.6999212,1.5383505 6.0572551,1.5484712 5.991469,1.5889549 5.9256856,1.629437 5.8599009,1.6699199 5.6878451,1.7761897 5.5157996,1.8824531 5.3437439,1.9887229 5.1666276,2.077281 4.9895219,2.1658338 4.8124057,2.2543919 4.620108,2.3328291 4.427818,2.4112632 4.2355242,2.4896988 4.2102219,2.4947593 4.1849206,2.4998195 4.1596188,2.5048799 4.0584095,2.6162101 3.9572042,2.7275359 3.855997,2.8388639 3.5726109,3.1424918 3.2892362,3.4461075 3.0058559,3.7497293 2.7376513,4.291199 2.4694574,4.8326471 2.2012581,5.374106 2.1000488,5.7941246 1.9988436,6.2141263 1.8976363,6.6341365 1.8470317,7.021262 1.79643,7.4083644 1.7458254,7.7954899 c 0.040304,0.432924 0.080605,0.8658221 0.1209092,1.2987461 0.1266915,0.6019411 0.2533778,1.203857 0.3800668,1.805787 0.1708279,0.596924 0.3416457,1.193813 0.5124735,1.790737 0.1732835,0.506257 0.3465603,1.012494 0.5198406,1.518741 0.151814,0.379534 0.3036218,0.759054 0.4554327,1.138581 0,0.01518 0,0.03036 0,0.04554 0.015181,0.298567 0.030362,0.597123 0.045543,0.895684 0.00506,0.0051 0.010121,0.01012 0.015181,0.01518 1.6244092,0.04048 3.2487533,0.08097 4.87313,0.121449 0,0.01012 0,0.02024 0,0.03036 -0.00506,-0.420019 -0.010121,-0.84002 -0.015181,-1.260031 -0.075907,-0.172055 -0.1518109,-0.344104 -0.2277163,-0.516157 0.030363,-3.304483 0.060724,-6.6088343 0.091086,-9.9132516 0,-0.00506 0,-0.010121 0,-0.015181 C 8.4255033,4.6403511 8.3344186,4.5290253 8.2433321,4.4176973 8.0915181,4.3215485 7.9397103,4.2254035 7.7878994,4.1292566 7.4387273,4.0280473 7.0895692,3.926842 6.7404041,3.8256348 6.6594367,3.8205743 6.5784725,3.815514 6.4975067,3.8104537 c 0.00506,-0.1973581 0.010121,-0.3947084 0.015181,-0.5920625 0.010121,0.00506 0.020241,0.010121 0.030362,0.015181 0.6723225,-0.1429209 1.344596,-0.2858314 2.0169272,-0.4287541 -0.1502901,-0.031591 -0.3005673,-0.063179 -0.4508554,-0.09477 -0.5473367,0.00752 -1.0946516,0.015032 -1.6419773,0.022548 0,0.010121 0,0.020241 0,0.030362 0.015181,-0.1214511 0.030362,-0.2428974 0.045544,-0.3643458 z"
       sodipodi:nodetypes="ccccccccccccccccccccccccccccccccccccccc"
       transform="matrix(1.9990614,0,0,1.9990614,22.710911,-0.11072418)" />
    <path
       style="fill:#e30005;stroke-width:0.2;stroke-opacity:0"
       d="M 4.873532,2.9699204 C 5.0524429,2.8840431 5.1884151,2.8697303 5.2814493,2.9198265 5.3744834,2.9699227 5.4245775,3.0844233 5.4388901,3.206084 5.4532028,3.3277447 5.4317339,3.4565579 5.3744815,3.5782184 5.3172291,3.699879 5.2241973,3.8143797 5.0882232,3.9145706 4.9522492,4.0147615 4.7733419,4.100637 4.6230556,4.2115631 4.4727692,4.3224892 4.3511123,4.4584588 4.2723911,4.6910462 4.19367,4.9236336 4.1578885,5.252823 4.122106,5.9613209 4.0863234,6.6698188 4.050542,7.7575751 4.0147594,9.153097 c -0.035782,1.395522 -0.071564,3.098719 -0.085865,3.946745 -0.014301,0.848026 -0.00717,0.840894 -0.075157,0.704919 C 3.785751,13.668785 3.6426251,13.404002 3.5173865,13.028285 3.3921479,12.652567 3.2848036,12.165939 3.1774559,11.600574 3.0701083,11.035209 2.9627639,10.391143 2.8911992,9.8615627 2.8196345,9.3319825 2.7838531,8.9169176 2.7623837,8.437431 2.7409143,7.9579444 2.733758,7.4140663 2.7874324,6.8773284 2.8411068,6.3405905 2.9556075,5.8110249 3.0951597,5.3601658 3.2347118,4.9093067 3.3993064,4.5371796 3.5961107,4.2187156 3.7929149,3.9002516 4.0219163,3.6354688 4.2473462,3.4243524 4.4727761,3.213236 4.6946211,3.0557976 4.873532,2.9699204 Z"
       id="path2"
       inkscape:path-effect="#path-effect2"
       inkscape:original-d="M 4.9164706,2.898356 C 5.0524429,2.8840432 5.1884151,2.8697303 5.3243874,2.8554174 5.3744834,2.9699227 5.4245775,3.0844233 5.4746725,3.1989263 5.4532028,3.3277447 5.4317339,3.4565579 5.4102646,3.5853738 5.3172291,3.699879 5.2241973,3.8143797 5.1311636,3.9288826 4.9522492,4.0147615 4.7733419,4.100637 4.594431,4.1865143 4.4727692,4.3224892 4.3511123,4.4584588 4.2294529,4.594431 4.19367,4.9236336 4.1578885,5.252823 4.1221063,5.582019 4.0863235,6.6698188 4.050542,7.7575751 4.0147598,8.8453532 3.9789769,10.548619 3.9431955,12.251816 3.9074133,13.955048 c 0.00716,-0.0072 0.014313,-0.01431 0.021469,-0.02147 C 3.7857511,13.668785 3.6426252,13.404002 3.4994965,13.139214 3.3921479,12.652567 3.2848035,12.165939 3.177457,11.679301 3.0701083,11.035209 2.9627639,10.391143 2.8554174,9.747064 2.8196345,9.3319825 2.7838531,8.9169176 2.7480709,8.5018443 2.7409143,7.9579444 2.733758,7.4140663 2.7266016,6.8701772 2.8411068,6.3405905 2.9556075,5.8110249 3.0701105,5.2814488 3.2347117,4.9093067 3.3993065,4.5371796 3.5639044,4.165045 3.7929149,3.9002516 4.0219163,3.6354688 4.2509222,3.3706807 4.4727761,3.213236 4.6946211,3.0557976 4.9164706,2.898356 Z"
       transform="matrix(1.9990614,0,0,1.9990614,22.710911,-0.11072418)" />
    <text
       xml:space="preserve"
       id="text1"
       style="font-size:6.4px;line-height:5.44252px;font-family:Arial;-inkscape-font-specification:Arial;white-space:pre;shape-inside:url(#rect1);display:inline;fill:#ffffff;stroke-width:1.3115;stroke-miterlimit:3.6;stroke-dasharray:5.246, 1.3115;fill-opacity:1"
       transform="matrix(1.3831259,0,0,2.8024094,6.7196156,-21.0503)"><tspan
         x="2.0644531"
         y="25.011479"
         id="tspan1">Extintor PQS</tspan></text>
  </g>
</svg>
