<?xml version="1.0" encoding="UTF-8" standalone="no"?>
<!-- Created with Inkscape (http://www.inkscape.org/) -->

<svg
   width="50"
   height="50"
   viewBox="0 0 13.229166 13.229166"
   version="1.1"
   id="svg1"
   xml:space="preserve"
   inkscape:version="1.3.2 (091e20e, 2023-11-25)"
   sodipodi:docname="Extintor CO2.svg"
   xmlns:inkscape="http://www.inkscape.org/namespaces/inkscape"
   xmlns:sodipodi="http://sodipodi.sourceforge.net/DTD/sodipodi-0.dtd"
   xmlns="http://www.w3.org/2000/svg"
   xmlns:svg="http://www.w3.org/2000/svg"><sodipodi:namedview
     id="namedview1"
     pagecolor="#ffffff"
     bordercolor="#000000"
     borderopacity="0.25"
     inkscape:showpageshadow="2"
     inkscape:pageopacity="0.0"
     inkscape:pagecheckerboard="0"
     inkscape:deskcolor="#d1d1d1"
     inkscape:document-units="mm"
     inkscape:zoom="8"
     inkscape:cx="31.625"
     inkscape:cy="36.6875"
     inkscape:window-width="1680"
     inkscape:window-height="1022"
     inkscape:window-x="0"
     inkscape:window-y="28"
     inkscape:window-maximized="0"
     inkscape:current-layer="layer1" /><defs
     id="defs1" /><g
     inkscape:label="Capa 1"
     inkscape:groupmode="layer"
     id="layer1"
     style="display:inline"
     transform="matrix(3.4876308,0,0,3.4876308,-363.34823,-508.6739)"><path
       style="fill:#ff0000;stroke:#000000;stroke-width:0.056394;stroke-opacity:1"
       d="m 105.07805,145.87933 h 2.06997 v 2.93266 h -2.07464 z"
       id="path1" /><path
       style="fill:#ffffff;stroke-width:0.0567138"
       d="m 106.00952,146.40678 v 0.27197 l -0.12022,0.002 c -0.0403,-0.002 -0.0686,0.009 -0.0623,0.0619 l 0.002,1.55984 c 0.004,0.0527 0.0299,0.0837 0.0606,0.10575 h 0.46165 c 0.0408,-0.004 0.0677,-0.0355 0.0851,-0.0855 l 9.6e-4,-1.58248 c 0.001,-0.0348 -0.006,-0.0516 -0.0473,-0.0555 l -0.21356,-0.004 -0.002,-0.27106 z"
       id="path3"
       sodipodi:nodetypes="ccccccccccccc" /><path
       style="fill:#ffffff;stroke-width:0.0567138"
       d="m 106.18001,146.49109 c 0.17832,-0.006 0.55998,-0.0553 0.58217,-0.002 0.1257,0.11611 0.14234,0.30202 0.14491,0.34316 9.8e-4,0.20357 -0.1034,0.2629 -0.17271,0.36298 l -0.29661,0.33143 -0.001,-0.12431 0.23647,-0.25037 c 0.0517,-0.083 0.10352,-0.0545 0.16927,-0.27486 0.0323,-0.12288 -0.009,-0.22347 -0.11263,-0.31989 -0.004,-0.0752 -0.36774,-0.003 -0.54581,-0.003 z"
       id="path4"
       sodipodi:nodetypes="ccccccccccc" /><path
       style="fill:#ffffff;stroke-width:0.0567138"
       d="m 105.28417,146.38099 -0.001,0.27558 c 0.2276,-0.003 0.47077,-0.0397 0.72472,-0.10271 v -0.06 c -0.36286,-0.0933 -0.54195,-0.10265 -0.72137,-0.11229 z"
       id="path2"
       sodipodi:nodetypes="ccccc" /><path
       style="fill:#ff0000;stroke-width:0.0567138"
       d="m 106.30778,147.02584 0.008,8.8e-4 c 0.0445,-0.004 0.048,-0.0447 0.057,-0.073 -0.009,-0.017 -0.0605,-0.0326 -0.0724,-0.076 -0.004,0.0272 -9.6e-4,0.0426 -0.0671,0.0762 0.003,0.0323 0.002,0.0685 0.056,0.0719 z"
       id="path5"
       sodipodi:nodetypes="ccccccc" /><text
       xml:space="preserve"
       style="font-size:0.801208px;line-height:0.681342px;font-family:Arial;-inkscape-font-specification:Arial;fill:#ffffff;stroke-width:0.164184;stroke-miterlimit:3.6;stroke-dasharray:0.656741, 0.164184;fill-opacity:1"
       x="123.01067"
       y="126.62856"
       id="text1"
       transform="scale(0.84657914,1.1812245)"><tspan
         sodipodi:role="line"
         id="tspan1"
         style="stroke-width:0.164184;fill:#ffffff;fill-opacity:1"
         x="123.01067"
         y="126.62856">Extintor CO2</tspan></text></g></svg>
