<?xml version="1.0" encoding="UTF-8" standalone="no"?>
<!-- Created with Inkscape (http://www.inkscape.org/) -->

<svg
   width="20.259844mm"
   height="21.991804mm"
   viewBox="0 0 20.259842 21.991804"
   version="1.1"
   id="svg1"
   xml:space="preserve"
   inkscape:version="1.3.1 (91b66b0783, 2023-11-16)"
   sodipodi:docname="extinm.svg"
   xmlns:inkscape="http://www.inkscape.org/namespaces/inkscape"
   xmlns:sodipodi="http://sodipodi.sourceforge.net/DTD/sodipodi-0.dtd"
   xmlns="http://www.w3.org/2000/svg"
   xmlns:svg="http://www.w3.org/2000/svg"><sodipodi:namedview
     id="namedview1"
     pagecolor="#ffffff"
     bordercolor="#000000"
     borderopacity="0.25"
     inkscape:showpageshadow="2"
     inkscape:pageopacity="0.0"
     inkscape:pagecheckerboard="0"
     inkscape:deskcolor="#d1d1d1"
     inkscape:document-units="mm"
     inkscape:zoom="5.9794052"
     inkscape:cx="45.405854"
     inkscape:cy="53.76789"
     inkscape:window-width="1920"
     inkscape:window-height="991"
     inkscape:window-x="-9"
     inkscape:window-y="-9"
     inkscape:window-maximized="1"
     inkscape:current-layer="layer1" /><defs
     id="defs1" /><g
     inkscape:label="Capa 1"
     inkscape:groupmode="layer"
     id="layer1"
     transform="translate(-94.870083,-137.57047)"><path
       style="fill:#ffffff;stroke-width:0.180388;paint-order:markers stroke fill"
       d="m 95.716679,137.74747 c 19.010641,0.16353 19.010641,0.16353 19.010641,0.16353 l 0.1876,18.02958 -19.823591,0.0818 z"
       id="path6" /><path
       style="fill:#ff0000;stroke-width:0.916353"
       d="m 94.923408,146.59401 c 0.01029,-5.14556 0.117342,-9.14696 0.238213,-8.90339 0.334067,0.67322 0.350261,18.24921 0.01681,18.24921 -0.183752,0 -0.267565,-3.07146 -0.255026,-9.34582 z m 0.370322,1.19046 -0.392199,-10.21169 2.727063,-0.0285 c 0.987435,-0.0102 4.338706,0.003 4.338706,0.003 0.0392,-0.0659 -2.881417,2.6382 -3.292659,3.08729 -0.411242,0.44909 -0.889579,1.17199 -1.06297,1.60645 -0.371868,0.93176 -0.423837,5.95421 -0.07177,6.93646 0.133915,0.37363 0.478845,1.32633 0.766511,2.11713 0.287665,0.79081 0.570647,1.95618 0.885111,2.50999 0.391469,0.68941 1.222287,0.86249 1.888307,0.86443 0.17994,-0.032 0.084,0.67082 0.13998,0.88373 0.0918,0.34963 -0.17067,0.38711 -2.71134,0.38711 l -3.472998,-0.0784 z m 15.01181,7.65765 c -0.007,-0.27374 -0.0101,-3.12937 -0.007,-6.34585 l 0.005,-5.84815 -1.45438,-1.26921 c -0.79991,-0.69806 -1.45438,-1.42591 -1.45438,-1.61744 0,-0.57291 1.50351,-0.42042 2.74242,0.27813 1.41596,0.79843 1.97762,0.96511 2.20773,0.65518 0.17091,-0.23018 -0.7201,-1.0089 -1.91696,-1.67536 -0.35968,-0.20029 -1.63354,-0.26357 -2.9097,-0.46103 -0.60765,-0.094 4.02544,-0.41311 3.37858,-0.52543 -0.12,-0.0209 -6.9984,0.0153 -8.26941,-0.16209 -2.21226,-0.30879 0.82776,-0.89285 1.77945,-0.88123 1.604,0.0196 10.85247,0.0266 10.78564,-0.1032 -0.0721,-0.14016 -0.12374,4.31029 -0.1122,9.32882 l 0.0209,9.12461 h -2.39168 c -2.29947,0 -2.39216,-0.0192 -2.40392,-0.49771 z m -9.78352,-2.44431 c -1.073476,-2.18974 -1.240544,-2.53906 -1.607986,-3.36226 -0.162916,-0.36498 -0.324464,-2.0074 -0.358997,-3.64984 -0.07026,-3.3416 0.186117,-4.1288 1.687023,-5.18005 0.67595,-0.47345 1.08493,-0.57121 2.38958,-0.57121 1.06977,0 1.57407,0.0874 1.57407,0.2725 0,0.14988 -0.65771,0.77796 -1.46158,1.39577 l -1.46158,1.12326 -0.004,5.07442 c -0.002,2.79091 -0.0953,5.19384 -0.20677,5.33982 -0.13307,0.17425 -0.32187,0.0223 -0.54969,-0.44241 z m -3.826841,-13.00682 c 0.07523,-0.4409 5.098921,-2.7157 6.452531,-2.77447 1.62018,-0.0703 1.48044,0.81246 1.04865,1.48406 -0.21605,0.33603 -0.56222,0.42786 -1.61293,0.42786 -1.2354,0 -5.966663,1.32212 -5.888251,0.86255 z m 8.523681,-1.89847 c 0.19182,-0.0638 0.42103,-0.056 0.50934,0.0174 0.0883,0.0735 -0.0687,0.12578 -0.34879,0.11618 -0.30957,-0.0106 -0.37255,-0.0631 -0.16055,-0.13364 z"
       id="path1"
       sodipodi:nodetypes="ssssccsssssssccscccccssssssssssscscccssssssccsccssssssssss" /><path
       style="fill:none;stroke:#000000;stroke-width:0.0595628;stroke-miterlimit:3.6"
       d="M 95.003274,155.89784 H 115.13592 V 137.54878 H 94.958831 Z"
       id="path2" /><path
       style="fill:#000000;fill-opacity:1;stroke:#000000;stroke-width:0.0595628;stroke-miterlimit:3.6;stroke-opacity:1"
       d="m 106.30665,144.17469 h 1.41416 v 0.32698 h 0.40854 v 0.34006 h 0.40853 v 0.26159 h 0.32998 v 2.6682 h -0.34568 v 0.27467 h -0.3614 v 0.41854 h -0.37711 v 0.26158 h -1.46131"
       id="path3" /><path
       style="fill:#000000;fill-opacity:1;stroke:#000000;stroke-width:0.0595628;stroke-miterlimit:3.6"
       d="m 106.40647,144.18922 h -1.41416 v 0.32699 h -0.40854 v 0.34007 h -0.40853 v 0.26158 h -0.32998 v 2.66818 h 0.34568 v 0.27468 h 0.3614 v 0.41854 h 0.37711 v 0.26159 h 1.46131"
       id="path3-0" /><text
       xml:space="preserve"
       style="font-size:5.0567px;line-height:4.3002px;font-family:Arial;-inkscape-font-specification:Arial;fill:#ffffff;fill-opacity:1;stroke:#000000;stroke-width:0.194106;stroke-miterlimit:3.6;stroke-opacity:1"
       x="82.001762"
       y="187.70058"
       id="text4"
       transform="scale(1.2689381,0.78806051)"><tspan
         sodipodi:role="line"
         id="tspan4"
         style="fill:#ffffff;fill-opacity:1;stroke-width:0.194106"
         x="82.001762"
         y="187.70058">K</tspan></text><path
       style="fill:#ed0000;fill-opacity:1;stroke:none;stroke-width:0.0595628;stroke-miterlimit:3.6;stroke-opacity:1"
       d="m 103.78076,151.1996 h 4.59984 v 0.38842 h -4.59984 z"
       id="path4" /><path
       style="fill:#ff0000;fill-opacity:1;stroke:#de0000;stroke-width:0.334469;stroke-miterlimit:3.6;stroke-dasharray:none;stroke-opacity:1"
       d="m 100.21002,155.35755 h 11.18763"
       id="path5" /><path
       style="fill:#ed0000;fill-opacity:1;stroke:none;stroke-width:0.0595628;stroke-miterlimit:3.6;stroke-opacity:1"
       d="m 103.52218,152.49765 5.41691,0.0392 v 0.89853 l -5.41691,-0.0131 z"
       id="path4-1"
       sodipodi:nodetypes="ccccc" /><text
       xml:space="preserve"
       style="font-size:3.26924px;font-family:Arial;-inkscape-font-specification:Arial;fill:#000000;stroke-width:0.147777;paint-order:markers stroke fill"
       x="101.3591"
       y="148.85533"
       id="text1"
       transform="scale(0.93744251,1.0667321)"><tspan
         sodipodi:role="line"
         id="tspan1"
         style="fill:#000000;stroke-width:0.147777"
         x="101.3591"
         y="148.85533">Extintor Tipo K</tspan></text></g></svg>
