<?xml version="1.0" encoding="UTF-8" standalone="no"?>
<!-- Created with Inkscape (http://www.inkscape.org/) -->

<svg
   width="62.454632"
   height="64.043686"
   viewBox="0 0 16.524455 16.944892"
   version="1.1"
   id="svg1"
   xml:space="preserve"
   inkscape:version="1.3.2 (091e20e, 2023-11-25, custom)"
   sodipodi:docname="Gas no inflamable.svg"
   xmlns:inkscape="http://www.inkscape.org/namespaces/inkscape"
   xmlns:sodipodi="http://sodipodi.sourceforge.net/DTD/sodipodi-0.dtd"
   xmlns="http://www.w3.org/2000/svg"
   xmlns:svg="http://www.w3.org/2000/svg"><sodipodi:namedview
     id="namedview1"
     pagecolor="#ffffff"
     bordercolor="#000000"
     borderopacity="0.25"
     inkscape:showpageshadow="2"
     inkscape:pageopacity="0.0"
     inkscape:pagecheckerboard="0"
     inkscape:deskcolor="#d1d1d1"
     inkscape:document-units="mm"
     inkscape:zoom="5.8511223"
     inkscape:cx="6.2381195"
     inkscape:cy="33.583301"
     inkscape:window-width="1920"
     inkscape:window-height="1017"
     inkscape:window-x="-8"
     inkscape:window-y="-8"
     inkscape:window-maximized="1"
     inkscape:current-layer="layer1" /><defs
     id="defs1"><rect
       x="5.4690361"
       y="53.664917"
       width="60.159397"
       height="8.8871841"
       id="rect1" /></defs><g
     inkscape:label="Capa 1"
     inkscape:groupmode="layer"
     id="layer1"
     transform="matrix(2.0772423,0,0,2.0772423,-227.22468,-302.25016)"><path
       style="fill:#008000"
       d="m 111.72259,150.56104 -1.5908,-1.6784 1.50375,-1.58827 c 0.82706,-0.87354 1.54409,-1.62974 1.5934,-1.68044 l 0.0896,-0.0922 0.44318,0.46759 c 0.24375,0.25717 0.95967,1.01325 1.59094,1.68019 l 1.14775,1.21261 -1.58888,1.67822 c -0.87388,0.92302 -1.59097,1.67842 -1.59353,1.67865 -0.003,2.4e-4 -0.72051,-0.75485 -1.59546,-1.67797 z m 2.93455,0.0792 c 0.73693,-0.77772 1.41637,-1.49463 1.50987,-1.59314 l 0.16998,-0.17911 -0.56056,-0.595 c -0.30831,-0.32726 -0.98955,-1.04681 -1.51385,-1.59902 l -0.95328,-1.00401 -1.5125,1.59658 -1.5125,1.59658 1.51001,1.59522 c 0.83051,0.87737 1.51292,1.59538 1.51648,1.59557 0.004,2e-4 0.60941,-0.63595 1.34635,-1.41367 z m -2.81081,-0.23567 -1.45799,-1.54145 1.46148,-1.54184 1.46149,-1.54185 1.46131,1.54185 1.46132,1.54184 -1.45997,1.54199 c -0.80299,0.84809 -1.46215,1.54174 -1.46481,1.54144 -0.003,-2.9e-4 -0.66093,-0.69418 -1.46283,-1.54198 z m 1.7291,0.92892 v -0.0777 l -0.12636,-0.003 -0.12637,-0.003 0.0919,-0.0731 c 0.0993,-0.079 0.14587,-0.13964 0.15601,-0.20329 0.0152,-0.0951 -0.0495,-0.19387 -0.14038,-0.21444 -0.0674,-0.0152 -0.16438,-0.0138 -0.2187,0.003 -0.0673,0.0212 -0.121,0.0879 -0.13542,0.16835 -0.005,0.0257 -0.003,0.0318 0.0102,0.0324 0.009,4.3e-4 0.0496,0.004 0.091,0.007 l 0.0751,0.007 0.005,-0.0287 c 0.008,-0.0426 0.0308,-0.0641 0.0679,-0.0641 0.0402,0 0.0659,0.0236 0.0659,0.0603 0,0.0417 -0.0226,0.0712 -0.10496,0.13747 -0.13954,0.11222 -0.20495,0.19855 -0.22156,0.29239 l -0.006,0.036 h 0.25835 0.25834 z m -2.02182,-1.82239 v -0.20463 h -0.0643 -0.0643 v 0.20463 0.20462 h 0.0643 0.0643 z m 0.193,0.10013 v -0.10449 l 0.0666,0.1041 0.0666,0.10411 0.062,3.9e-4 0.062,3.8e-4 v -0.20462 -0.20463 h -0.0594 -0.0594 l -0.003,0.10297 -0.003,0.10296 -0.0668,-0.10296 -0.0668,-0.10297 h -0.0596 -0.0595 v 0.20463 0.20462 h 0.0597 0.0597 z m 0.4595,0.0217 v -0.0828 h 0.0735 0.0735 v -0.0438 -0.0438 h -0.0735 -0.0735 v -0.0289 -0.0289 l 0.085,-0.003 0.085,-0.003 0.003,-0.0463 0.003,-0.0463 h -0.15214 -0.15214 v 0.20463 0.20462 h 0.0643 0.0643 z m 0.68534,0.0483 0.006,-0.0345 0.065,0.003 c 0.0648,0.003 0.065,0.003 0.0727,0.0345 l 0.008,0.0317 h 0.0683 0.0683 l -0.0183,-0.0512 c -0.0101,-0.0281 -0.0424,-0.11912 -0.0719,-0.20218 l -0.0536,-0.15103 h -0.0717 -0.0717 l -0.0698,0.1979 c -0.0689,0.19534 -0.0698,0.19726 -0.0726,0.14859 l -0.003,-0.0493 h -0.096 -0.096 v -0.15103 -0.15104 h -0.0643 -0.0643 v 0.20463 0.20462 h 0.22934 0.22933 z m 0.0407,-0.13759 c 0,-0.004 0.007,-0.0299 0.0155,-0.0586 l 0.0155,-0.0521 0.0165,0.0562 c 0.009,0.0309 0.0166,0.0572 0.0167,0.0586 8e-5,0.001 -0.0143,0.002 -0.032,0.002 -0.0177,0 -0.0322,-0.003 -0.0322,-0.006 z m 0.37883,0.0381 0.003,-0.13398 0.0319,0.1344 0.0319,0.1344 0.0503,-0.003 0.0503,-0.003 0.0295,-0.1218 0.0295,-0.1218 8.6e-4,0.12423 8.7e-4,0.12424 h 0.0551 0.0551 v -0.20499 -0.20499 l -0.0845,0.003 -0.0845,0.003 -0.0235,0.0992 c -0.0129,0.0545 -0.0258,0.10162 -0.0287,0.10462 -0.003,0.003 -0.0127,-0.0279 -0.0217,-0.0686 -0.009,-0.0407 -0.0203,-0.0889 -0.0251,-0.10705 l -0.009,-0.033 h -0.0823 -0.0823 v 0.20463 0.20462 h 0.0503 0.0503 z m 0.50542,0.0974 0.008,-0.0317 h 0.0627 0.0627 l 0.009,0.0317 c 0.009,0.0316 0.009,0.0317 0.0748,0.0345 0.0365,0.002 0.0663,-3.2e-4 0.0663,-0.004 0,-0.004 -0.0315,-0.0962 -0.0701,-0.20505 l -0.0701,-0.19798 h -0.0701 -0.0701 l -0.0679,0.19245 c -0.0373,0.10584 -0.0698,0.19812 -0.0723,0.20507 -0.003,0.01 0.0107,0.012 0.0628,0.01 l 0.0672,-0.003 z m 0.052,-0.18227 c 0.008,-0.0292 0.0174,-0.0501 0.0206,-0.0463 0.003,0.004 0.0122,0.0277 0.0202,0.0532 l 0.0144,0.0463 h -0.035 -0.035 z m 0.56475,0.20552 c 0.0636,-0.0282 0.0842,-0.12546 0.0371,-0.17539 -0.0133,-0.0141 -0.0276,-0.0257 -0.0318,-0.0257 -0.004,0 0.003,-0.0108 0.015,-0.0239 0.0166,-0.0176 0.0226,-0.0344 0.0226,-0.064 0,-0.0917 -0.0296,-0.10699 -0.20632,-0.10699 h -0.13371 v 0.20463 0.20462 h 0.13355 c 0.092,0 0.14288,-0.004 0.16354,-0.0133 z m -0.16843,-0.11774 c 0,-0.0343 4.1e-4,-0.0346 0.0391,-0.0345 0.049,1.9e-4 0.0645,0.0104 0.0605,0.0399 -0.003,0.0207 -0.008,0.0236 -0.0513,0.0262 l -0.0483,0.003 z m 0,-0.15698 c 0,-0.0346 3e-5,-0.0347 0.0381,-0.0317 0.0721,0.006 0.0698,0.0663 -0.002,0.0663 -0.0347,0 -0.0356,-9e-4 -0.0356,-0.0347 z m 0.59735,0.23442 v -0.0536 h -0.0919 -0.0919 v -0.15103 -0.15104 h -0.0643 -0.0643 v 0.20463 0.20462 h 0.15623 0.15623 z m 0.3768,0.005 v -0.0487 h -0.10109 -0.1011 v -0.0341 -0.0341 h 0.0919 0.0919 v -0.0487 -0.0487 h -0.0919 c -0.0916,0 -0.0919,-8e-5 -0.0919,-0.024 0,-0.0239 6.1e-4,-0.024 0.0988,-0.0268 l 0.0988,-0.003 0.003,-0.0463 0.003,-0.0463 h -0.16592 -0.16593 v 0.20463 0.20462 h 0.16543 0.16542 z m -2.71098,-0.65828 0.0504,-0.0287 0.003,-0.0901 0.003,-0.0901 h -0.0968 -0.0968 v 0.0439 0.0438 h 0.0368 c 0.03,0 0.0368,0.003 0.0368,0.0185 0,0.012 -0.0102,0.0223 -0.0289,0.0292 -0.0469,0.0173 -0.0717,0.0127 -0.10147,-0.0189 -0.0265,-0.0281 -0.0277,-0.0328 -0.0241,-0.0939 0.003,-0.0554 0.007,-0.0675 0.0291,-0.0873 0.0326,-0.0298 0.0652,-0.0292 0.0942,0.001 0.0225,0.0238 0.0248,0.0242 0.0826,0.0136 0.0547,-0.0101 0.059,-0.0126 0.0532,-0.0318 -0.0197,-0.0659 -0.063,-0.0948 -0.15273,-0.10159 -0.0821,-0.006 -0.13928,0.0114 -0.18127,0.0559 -0.0721,0.0764 -0.0754,0.22962 -0.007,0.30871 0.0412,0.0474 0.0876,0.063 0.17633,0.0592 0.0604,-0.003 0.0827,-0.008 0.12407,-0.0318 z m 0.78776,0.0155 c 0.0675,-0.0325 0.0957,-0.11687 0.0621,-0.18581 -0.0169,-0.0346 -0.0457,-0.0513 -0.13329,-0.077 -0.0757,-0.0223 -0.0776,-0.0234 -0.0702,-0.044 0.0111,-0.0307 0.0887,-0.009 0.0887,0.0246 0,0.0112 0.092,0.0118 0.10852,6.7e-4 0.0169,-0.0114 0.005,-0.0536 -0.0234,-0.0838 -0.0309,-0.0327 -0.0861,-0.0475 -0.15581,-0.0416 -0.0983,0.008 -0.14961,0.0609 -0.13767,0.14127 0.007,0.0497 0.0466,0.0824 0.12936,0.10794 0.0715,0.022 0.0921,0.0379 0.0827,0.0637 -0.0145,0.0401 -0.0904,0.0266 -0.10098,-0.018 -0.005,-0.0228 -0.01,-0.0247 -0.0577,-0.0245 -0.0699,2e-4 -0.076,0.005 -0.061,0.052 0.0153,0.0473 0.0461,0.0823 0.0821,0.0934 0.0512,0.0158 0.14459,0.0114 0.18641,-0.009 z m 1.07036,-0.0158 c 0.0462,-0.0346 0.0692,-0.0794 0.077,-0.15019 0.0151,-0.13676 -0.0528,-0.22886 -0.17751,-0.24073 -0.0754,-0.007 -0.12782,0.0107 -0.1734,0.059 -0.048,0.0509 -0.066,0.12403 -0.05,0.20319 0.0242,0.11977 0.0859,0.16583 0.21447,0.16022 0.0616,-0.003 0.0768,-0.007 0.10946,-0.0315 z m -0.16927,-0.0826 c -0.0383,-0.0237 -0.0412,-0.13935 -0.004,-0.18208 0.0239,-0.0279 0.073,-0.0293 0.0978,-0.003 0.0334,0.0354 0.0358,0.12271 0.005,0.17299 -0.0104,0.0169 -0.0223,0.0224 -0.0481,0.0221 -0.0188,-1.7e-4 -0.0414,-0.005 -0.0501,-0.0101 z m -1.47426,0.0713 0.009,-0.0317 h 0.0627 0.0627 l 0.008,0.0317 c 0.008,0.0317 0.008,0.0317 0.0738,0.0345 0.0363,0.002 0.0661,-0.001 0.0661,-0.006 0,-0.005 -0.0232,-0.0741 -0.0515,-0.15389 -0.0283,-0.0798 -0.0596,-0.16814 -0.0696,-0.19628 l -0.0181,-0.0512 -0.0706,8e-5 -0.0706,9e-5 -0.0689,0.19615 c -0.0379,0.10788 -0.0704,0.20012 -0.0721,0.20498 -0.002,0.005 0.0264,0.008 0.064,0.006 0.0671,-0.003 0.0672,-0.003 0.0758,-0.0345 z m 0.0454,-0.1559 c 0.007,-0.0395 0.0265,-0.0867 0.0304,-0.0755 0.002,0.005 0.009,0.0306 0.0164,0.056 l 0.013,0.0463 h -0.0324 c -0.0305,0 -0.0321,-0.002 -0.0273,-0.0268 z m 0.96416,0.094 0.003,-0.0985 0.0628,0.0985 0.0628,0.0985 h 0.059 0.059 v -0.20462 -0.20462 h -0.0594 -0.0594 l -0.003,0.0999 -0.003,0.0999 -0.0634,-0.0999 -0.0634,-0.0999 h -0.0629 -0.0629 v 0.20462 0.20462 h 0.064 0.064 z m -0.5396,-0.77888 c 0.59644,-0.0807 1.09419,-0.15101 1.10612,-0.15626 0.0195,-0.009 0.0211,-0.0137 0.0158,-0.0511 l -0.006,-0.0416 0.13407,-0.0171 c 0.0737,-0.009 0.13947,-0.0193 0.14608,-0.022 0.0326,-0.0132 0.0446,-0.1306 0.0199,-0.19338 -0.0243,-0.0617 -0.0382,-0.0649 -0.1878,-0.0436 -0.0725,0.0103 -0.13561,0.0163 -0.14015,0.0133 -0.005,-0.003 -0.008,-0.0221 -0.008,-0.0426 0,-0.0205 -0.005,-0.0419 -0.012,-0.0477 -0.015,-0.0132 -2.23848,0.28636 -2.2547,0.30379 -0.008,0.008 -0.004,0.0622 0.0156,0.21592 0.0144,0.11254 0.0264,0.21011 0.0266,0.2168 2.5e-4,0.007 0.0128,0.0122 0.0303,0.0123 0.0164,4e-5 0.51786,-0.0659 1.11429,-0.14664 z"
       id="path1" /><text
       xml:space="preserve"
       transform="matrix(0.15413546,0,0,0.26981786,108.53558,137.88597)"
       id="text1"
       style="font-size:6.4px;line-height:5.44252px;font-family:Arial;-inkscape-font-specification:Arial;white-space:pre;shape-inside:url(#rect1);display:inline;fill:#000000;stroke-width:1.3115;stroke-miterlimit:3.6;stroke-dasharray:5.246, 1.3115"><tspan
         x="5.46875"
         y="58.150151"
         id="tspan2">Gas no inflamable </tspan></text></g></svg>
