<?xml version="1.0" encoding="UTF-8" standalone="no"?>
<!-- Created with Inkscape (http://www.inkscape.org/) -->

<svg
   width="50"
   height="50"
   viewBox="0 0 13.229166 13.229167"
   version="1.1"
   id="svg1"
   xml:space="preserve"
   inkscape:version="1.3.2 (091e20e, 2023-11-25)"
   sodipodi:docname="Gas natural o licuado.svg"
   xmlns:inkscape="http://www.inkscape.org/namespaces/inkscape"
   xmlns:sodipodi="http://sodipodi.sourceforge.net/DTD/sodipodi-0.dtd"
   xmlns="http://www.w3.org/2000/svg"
   xmlns:svg="http://www.w3.org/2000/svg"><sodipodi:namedview
     id="namedview1"
     pagecolor="#ffffff"
     bordercolor="#000000"
     borderopacity="0.25"
     inkscape:showpageshadow="2"
     inkscape:pageopacity="0.0"
     inkscape:pagecheckerboard="0"
     inkscape:deskcolor="#d1d1d1"
     inkscape:document-units="mm"
     inkscape:zoom="5.8511223"
     inkscape:cx="9.9126282"
     inkscape:cy="32.728764"
     inkscape:window-width="1680"
     inkscape:window-height="1022"
     inkscape:window-x="0"
     inkscape:window-y="28"
     inkscape:window-maximized="0"
     inkscape:current-layer="layer3" /><defs
     id="defs1"><rect
       x="3.9308698"
       y="49.050419"
       width="60.501213"
       height="11.621702"
       id="rect1" /></defs><g
     inkscape:groupmode="layer"
     id="layer3"
     inkscape:label="Capa 3"
     transform="matrix(1.6527366,0,0,1.6527366,-160.69668,-186.1531)"><path
       style="fill:#ff0000;stroke-width:0.949279"
       d="m 99.247667,117.39148 -1.999249,-1.59897 1.999877,-1.60301 1.999865,-1.603 0.35783,0.28532 c 0.19679,0.15692 1.09784,0.87774 2.00232,1.60184 l 1.6445,1.31651 -1.99656,1.59971 c -1.09809,0.87983 -1.99943,1.5999 -2.00295,1.60014 -0.004,2.4e-4 -0.90605,-0.71909 -2.005633,-1.59854 z m 3.897513,-3.12809 c -1.04335,-0.83591 -1.9002,-1.51889 -1.90408,-1.51777 -0.004,9e-4 -0.85938,0.68507 -1.901114,1.51984 l -1.894076,1.51775 1.899516,1.51986 1.899504,1.51986 1.89864,-1.51986 1.89865,-1.51986 z m -3.741425,2.98756 -1.832879,-1.46931 1.836399,-1.4699 1.836385,-1.4699 0.49859,0.39845 c 0.27421,0.21914 1.10023,0.88095 1.83557,1.47069 l 1.33699,1.07223 -1.83333,1.46867 c -1.00833,0.80778 -1.83592,1.46862 -1.83909,1.46854 -0.003,-9e-5 -0.83056,-0.66136 -1.838635,-1.46947 z m 2.104115,0.79266 v -0.065 h -0.13142 -0.13141 l 0.0915,-0.0716 c 0.12152,-0.0951 0.16574,-0.16389 0.15672,-0.24379 -0.012,-0.10637 -0.0938,-0.16606 -0.23906,-0.17442 -0.0818,-0.004 -0.21179,0.0195 -0.25746,0.0478 -0.0195,0.0123 -0.0194,0.0151 0.004,0.0626 0.0134,0.0274 0.0255,0.0507 0.0269,0.0518 10e-4,9.1e-4 0.0278,-0.008 0.0587,-0.0209 0.09,-0.0366 0.18552,-0.0275 0.21261,0.0204 0.0361,0.0637 -0.002,0.11669 -0.18442,0.25681 l -0.14904,0.11441 v 0.0434 0.0434 h 0.27125 0.27126 z m -2.487438,-1.67556 v -0.19495 l -0.07791,-0.003 -0.07791,-0.003 v 0.20043 0.20043 l 0.07791,-0.003 0.07791,-0.003 z m 0.248168,0.0953 v -0.10424 l 0.08885,0.10424 0.08886,0.10424 h 0.0727 0.0727 v -0.19957 -0.19958 h -0.075 -0.075 v 0.10391 0.10392 l -0.08861,-0.10392 -0.08861,-0.10391 h -0.07298 -0.07298 v 0.19958 0.19957 h 0.07503 0.07503 z m 0.574705,0.0234 0.003,-0.0762 0.089,-0.003 0.08899,-0.003 v -0.0418 -0.0418 l -0.08949,-0.003 -0.0895,-0.003 v -0.0271 -0.0271 l 0.10677,-0.003 0.106765,-0.003 v -0.0418 -0.0418 l -0.187565,-0.003 -0.18756,-0.003 v 0.20024 0.20023 l 0.0779,-0.003 0.0779,-0.003 z m 0.681155,0.0275 0.004,-0.0488 h -0.11574 -0.11574 l -0.003,-0.14621 -0.003,-0.14621 -0.0779,-0.003 -0.0779,-0.003 v 0.20023 0.20023 l 0.19334,-0.003 0.19334,-0.003 z m 0.17959,0.0187 0.0107,-0.0302 h 0.084 0.084 l 0.008,0.0285 c 0.01,0.0351 0.0191,0.0382 0.10674,0.0347 l 0.0699,-0.003 -0.0627,-0.13459 c -0.0345,-0.074 -0.076,-0.16281 -0.0923,-0.19727 l -0.0296,-0.0626 h -0.0834 -0.0834 l -0.0887,0.18843 c -0.0488,0.10366 -0.0887,0.19364 -0.0887,0.20001 0,0.008 0.0215,0.0108 0.0775,0.009 0.0765,-0.003 0.0777,-0.003 0.0882,-0.0329 z m 0.0535,-0.12935 c 0,-0.004 0.009,-0.0314 0.0194,-0.0619 l 0.0195,-0.0555 0.0138,0.0321 c 0.008,0.0177 0.0175,0.0455 0.0219,0.062 0.008,0.0293 0.007,0.0298 -0.0332,0.0298 -0.0227,0 -0.0413,-0.003 -0.0413,-0.006 z m 0.48319,0.0435 0.004,-0.11603 0.0368,0.11603 0.0368,0.11604 0.0593,0.003 c 0.0681,0.004 0.0573,0.0182 0.10802,-0.15131 l 0.0277,-0.0928 0.006,0.12068 0.006,0.12068 0.0664,0.003 0.0664,0.003 v -0.20005 -0.20005 h -0.10345 -0.10344 l -0.0114,0.0348 c -0.006,0.0191 -0.0203,0.0641 -0.0309,0.0998 -0.0107,0.0358 -0.0228,0.0681 -0.0271,0.0719 -0.004,0.004 -0.0221,-0.0411 -0.04,-0.0998 l -0.0324,-0.10671 h -0.10274 -0.10275 v 0.20005 0.20004 l 0.0664,-0.003 0.0664,-0.003 z m 0.62508,0.0878 0.0135,-0.0329 0.0819,0.003 c 0.0818,0.003 0.082,0.003 0.0916,0.0329 l 0.01,0.0302 h 0.0805 c 0.0443,0 0.0805,-0.003 0.0806,-0.007 8e-5,-0.004 -0.0402,-0.0938 -0.0895,-0.19992 l -0.0896,-0.19296 -0.0854,0.003 -0.0854,0.003 -0.0848,0.18102 c -0.0467,0.0996 -0.0878,0.18832 -0.0914,0.19726 -0.006,0.0144 0.002,0.0162 0.0741,0.0162 h 0.0807 z m 0.046,-0.12841 c 0,-0.004 0.0286,-0.0713 0.0416,-0.0986 0.004,-0.008 0.0155,0.009 0.0285,0.0418 0.012,0.0306 0.0219,0.0568 0.022,0.058 9e-5,9.1e-4 -0.0207,0.003 -0.046,0.003 -0.0254,0 -0.0462,-0.002 -0.0462,-0.004 z m 0.68234,0.15205 c 0.0842,-0.0125 0.12565,-0.048 0.12565,-0.10766 0,-0.0347 -0.006,-0.0474 -0.0347,-0.0703 l -0.0347,-0.0279 0.0232,-0.0238 c 0.0282,-0.0288 0.0303,-0.0831 0.004,-0.11292 -0.0332,-0.0381 -0.083,-0.0475 -0.25206,-0.0475 h -0.1562 v 0.19958 0.19957 h 0.13117 c 0.0721,0 0.15914,-0.005 0.19335,-0.009 z m -0.16292,-0.12073 c 0,-0.0364 8.4e-4,-0.0371 0.0412,-0.0371 0.0554,0 0.0858,0.0146 0.0858,0.0411 0,0.0254 -0.0191,0.0332 -0.0817,0.0332 -0.0451,0 -0.0452,-1.3e-4 -0.0452,-0.0371 z m 0,-0.14852 c 0,-0.0287 4.2e-4,-0.0288 0.0548,-0.026 0.0499,0.003 0.0548,0.005 0.0548,0.026 0,0.0211 -0.005,0.0235 -0.0548,0.026 -0.0544,0.003 -0.0548,0.003 -0.0548,-0.026 z m 0.75028,0.22744 v -0.0511 h -0.11538 -0.11543 v -0.14853 -0.14851 h -0.0808 -0.0808 v 0.19958 0.19957 h 0.19623 0.19623 z m 0.47325,0 v -0.0511 h -0.12697 -0.12697 v -0.0325 -0.0325 h 0.11542 0.11543 v -0.0418 -0.0418 h -0.11543 -0.11542 v -0.0276 -0.0276 l 0.12408,-0.003 0.12408,-0.003 v -0.0418 -0.0418 l -0.20488,-0.003 -0.20488,-0.003 v 0.19979 0.1998 h 0.20777 0.20777 z m -2.73851,-0.62794 0.0721,-0.0277 v -0.0876 -0.0876 h -0.12182 -0.12184 l 0.004,0.0441 0.003,0.0441 0.0491,0.003 c 0.0328,0.002 0.0491,0.007 0.0491,0.016 0,0.0355 -0.13356,0.0458 -0.17133,0.0132 -0.0438,-0.0378 -0.0439,-0.1373 -2.6e-4,-0.175 0.0309,-0.0267 0.10471,-0.0265 0.13581,3.3e-4 0.0196,0.017 0.0305,0.0187 0.0769,0.0132 0.10058,-0.0122 0.10705,-0.0221 0.049,-0.0752 -0.0477,-0.0436 -0.0751,-0.0513 -0.18527,-0.0515 -0.15402,-2.7e-4 -0.23703,0.0487 -0.26171,0.15447 -0.0209,0.0898 0.0263,0.19062 0.10458,0.22318 0.0878,0.0365 0.21282,0.0339 0.3186,-0.006 z m 1.01173,0.007 c 0.0588,-0.0258 0.0909,-0.0727 0.0833,-0.12184 -0.008,-0.0503 -0.0648,-0.0918 -0.15356,-0.11164 -0.11631,-0.026 -0.12485,-0.0288 -0.12485,-0.0413 0,-0.0361 0.0914,-0.0342 0.10866,0.003 0.009,0.0186 0.0162,0.0204 0.0804,0.0174 0.0647,-0.003 0.0707,-0.004 0.0707,-0.0242 0,-0.0269 -0.0384,-0.0663 -0.0825,-0.0847 -0.0449,-0.0187 -0.19296,-0.0192 -0.23719,-7.6e-4 -0.13919,0.0579 -0.11163,0.17527 0.0503,0.21419 0.12493,0.03 0.13243,0.0335 0.12859,0.0601 -0.003,0.0221 -0.008,0.0242 -0.0554,0.0242 -0.0477,0 -0.0533,-0.003 -0.0688,-0.0307 -0.0131,-0.0241 -0.022,-0.0296 -0.0404,-0.0257 -0.013,0.003 -0.0463,0.005 -0.0741,0.005 -0.0502,1.3e-4 -0.0505,2.8e-4 -0.0434,0.0288 0.009,0.0345 0.0463,0.079 0.0788,0.093 0.0686,0.0296 0.20702,0.0273 0.27944,-0.004 z m -0.73683,-0.0105 0.008,-0.0325 h 0.0836 0.0836 l 0.0107,0.0302 c 0.0107,0.0301 0.0108,0.0302 0.0949,0.0329 0.0766,0.003 0.0836,9e-4 0.0775,-0.014 -0.004,-0.009 -0.0449,-0.0982 -0.0916,-0.19768 l -0.0848,-0.18102 -0.0854,-0.003 -0.0854,-0.003 -0.0896,0.19297 c -0.0493,0.10614 -0.0895,0.19609 -0.0895,0.19992 8e-5,0.004 0.0363,0.007 0.0804,0.007 h 0.0803 z m 0.0513,-0.13229 c 1e-4,-0.004 0.01,-0.031 0.0208,-0.0604 l 0.0209,-0.0535 0.0194,0.0496 c 0.0265,0.0678 0.0255,0.0713 -0.0208,0.0713 -0.0222,0 -0.0403,-0.003 -0.0402,-0.007 z m 0.43267,-0.66605 c 0,-0.0169 -0.009,-0.0187 -0.0952,-0.0213 -0.0524,-0.002 -0.0952,-0.006 -0.0952,-0.0116 0,-0.005 0.0148,-0.009 0.0328,-0.009 0.0182,0 0.0621,-0.008 0.0979,-0.0179 0.17035,-0.0471 0.2861,-0.16199 0.34276,-0.34013 0.0214,-0.0676 0.0439,-0.23596 0.0315,-0.23596 -0.003,0 -0.0226,0.0207 -0.0426,0.0456 -0.0325,0.0407 -0.0699,0.0671 -0.0699,0.0493 0,-0.004 0.007,-0.038 0.0164,-0.0763 0.0263,-0.11165 0.0337,-0.23011 0.0192,-0.30659 -0.0129,-0.0679 -0.0617,-0.16683 -0.0823,-0.16683 -0.006,0 -0.019,0.0136 -0.0294,0.0302 -0.0246,0.0391 -0.0725,0.0905 -0.0844,0.0905 -0.005,0 -0.0124,-0.0261 -0.0162,-0.058 -0.01,-0.0797 -0.048,-0.1952 -0.0879,-0.26364 -0.0297,-0.051 -0.11393,-0.13322 -0.13651,-0.13319 -0.005,0 -0.009,0.0303 -0.01,0.0673 -5.1e-4,0.037 -0.008,0.0798 -0.0157,0.0951 -0.0147,0.0276 -0.0151,0.027 -0.0426,-0.0551 -0.0168,-0.0499 -0.0539,-0.12196 -0.0932,-0.18102 -0.036,-0.054 -0.0876,-0.13331 -0.11472,-0.17637 -0.0285,-0.0453 -0.0518,-0.0726 -0.0552,-0.065 -0.003,0.007 -0.0118,0.0259 -0.019,0.0412 -0.007,0.0153 -0.0177,0.0926 -0.0233,0.17174 -0.006,0.0791 -0.0144,0.15606 -0.0196,0.17096 -0.009,0.027 -0.01,0.0268 -0.0748,-0.048 -0.0572,-0.0657 -0.10218,-0.0971 -0.11929,-0.0833 -0.003,0.003 8.6e-4,0.0163 0.008,0.031 0.007,0.0148 0.0136,0.0686 0.0136,0.11965 9e-5,0.0914 -0.008,0.12752 -0.0634,0.28068 l -0.0242,0.0672 -0.0491,-0.0672 c -0.027,-0.0369 -0.0626,-0.0773 -0.0792,-0.0897 l -0.0301,-0.0225 -7e-5,0.10605 c -6e-5,0.0937 -0.0225,0.26051 -0.0416,0.30893 -0.006,0.0151 -0.0123,0.0129 -0.0527,-0.0187 l -0.0459,-0.0358 0.004,0.246 c 0.004,0.22535 0.007,0.2514 0.0308,0.31027 0.0343,0.0838 0.12341,0.1593 0.22376,0.1895 0.0367,0.0111 0.0743,0.02 0.0836,0.02 0.009,0 0.0169,0.005 0.0169,0.009 0,0.005 -0.0346,0.009 -0.0808,0.009 -0.0786,0 -0.0808,6.4e-4 -0.0808,0.0233 v 0.0233 l 0.47613,-0.003 c 0.46744,-0.003 0.47613,-0.003 0.47613,-0.021 z m -0.52737,-0.0484 c 0.0256,-0.004 0.0462,-0.026 0.0336,-0.0361 -0.003,-0.003 -0.0378,-0.0108 -0.0767,-0.018 -0.13936,-0.0261 -0.2311,-0.0784 -0.28334,-0.16128 -0.0336,-0.0534 -0.0833,-0.23334 -0.055,-0.19929 0.005,0.005 0.0196,0.015 0.0334,0.0208 0.0237,0.01 0.0253,0.008 0.0331,-0.038 0.01,-0.056 0.0488,-0.1651 0.0643,-0.17809 0.006,-0.005 0.0105,0.005 0.0105,0.0278 1.3e-4,0.0568 0.0212,0.14823 0.0469,0.20334 0.0238,0.0511 0.10579,0.13552 0.12047,0.12398 0.005,-0.004 0.002,-0.0407 -0.005,-0.0827 -0.0136,-0.0814 -0.015,-0.23613 -0.002,-0.28222 0.007,-0.0255 0.009,-0.0231 0.0231,0.0279 0.0199,0.0709 0.0375,0.0984 0.0839,0.12976 0.0356,0.0241 0.0379,0.0245 0.0529,0.008 0.0435,-0.0478 0.076,-0.21313 0.0662,-0.33741 -0.007,-0.0834 -0.006,-0.0871 0.0124,-0.0697 0.063,0.0605 0.11846,0.22044 0.10349,0.29844 -0.003,0.0172 -0.009,0.046 -0.0124,0.0643 l -0.006,0.0332 0.0358,-0.0213 c 0.0198,-0.0117 0.0534,-0.0496 0.0751,-0.0845 0.0358,-0.0576 0.0405,-0.0616 0.0521,-0.0441 0.007,0.0107 0.0122,0.0588 0.0114,0.10937 -7.6e-4,0.0496 -10e-4,0.0938 -6.6e-4,0.0981 4e-4,0.005 0.0145,8e-4 0.0312,-0.008 l 0.0305,-0.016 -0.008,0.0493 c -0.0267,0.16216 -0.14739,0.29075 -0.30974,0.33014 -0.0478,0.0116 -0.0664,0.0206 -0.0664,0.0323 0,0.0105 0.0111,0.0176 0.0318,0.02 0.0174,0.002 -0.01,0.004 -0.0605,0.004 -0.0508,7e-5 -0.0803,-0.002 -0.0657,-0.004 z"
       id="path5" /><text
       xml:space="preserve"
       transform="matrix(0.18901988,0,0,0.24084722,96.450417,107.42737)"
       id="text1"
       style="font-size:6.4px;line-height:5.44252px;font-family:Arial;-inkscape-font-specification:Arial;white-space:pre;shape-inside:url(#rect1);display:inline;fill:#ffffff;stroke-width:1.3115;stroke-miterlimit:3.6;stroke-dasharray:5.246, 1.3115;fill-opacity:1"><tspan
         x="3.9316406"
         y="53.53687"
         id="tspan1">Gas inflamable </tspan></text></g></svg>
