<?xml version="1.0" encoding="UTF-8" standalone="no"?>
<!-- Created with Inkscape (http://www.inkscape.org/) -->

<svg
   width="58.523762"
   height="55.156502"
   viewBox="0 0 15.484411 14.593491"
   version="1.1"
   id="svg1"
   xml:space="preserve"
   inkscape:version="1.3.2 (091e20e, 2023-11-25, custom)"
   sodipodi:docname="Gas natural o licuado.svg"
   xmlns:inkscape="http://www.inkscape.org/namespaces/inkscape"
   xmlns:sodipodi="http://sodipodi.sourceforge.net/DTD/sodipodi-0.dtd"
   xmlns="http://www.w3.org/2000/svg"
   xmlns:svg="http://www.w3.org/2000/svg"><sodipodi:namedview
     id="namedview1"
     pagecolor="#ffffff"
     bordercolor="#000000"
     borderopacity="0.25"
     inkscape:showpageshadow="2"
     inkscape:pageopacity="0.0"
     inkscape:pagecheckerboard="0"
     inkscape:deskcolor="#d1d1d1"
     inkscape:document-units="mm"
     inkscape:zoom="5.8511223"
     inkscape:cx="9.9980819"
     inkscape:cy="32.728764"
     inkscape:window-width="1920"
     inkscape:window-height="1017"
     inkscape:window-x="-8"
     inkscape:window-y="-8"
     inkscape:window-maximized="1"
     inkscape:current-layer="layer3" /><defs
     id="defs1"><rect
       x="3.9308698"
       y="49.050419"
       width="60.501213"
       height="11.621702"
       id="rect1" /></defs><g
     inkscape:groupmode="layer"
     id="layer3"
     inkscape:label="Capa 3"
     transform="matrix(1.6527366,0,0,1.6527366,-160.69668,-186.1531)"><path
       style="fill:#ff0000"
       d="m 99.876951,117.97339 -1.999248,-1.77442 1.999876,-1.77887 1.999871,-1.77888 0.35782,0.31662 c 0.1968,0.17414 1.09785,0.97405 2.00233,1.77759 l 1.6445,1.46096 -1.99656,1.77522 c -1.0981,0.97637 -1.99943,1.77544 -2.00295,1.77571 -0.004,2.7e-4 -0.90605,-0.79799 -2.005639,-1.77393 z m 3.897519,-3.4713 c -1.04336,-0.92762 -1.9002,-1.68555 -1.90408,-1.68429 -0.004,10e-4 -0.85938,0.76023 -1.90112,1.68659 l -1.894075,1.68428 1.899515,1.68661 1.89951,1.68662 1.89864,-1.68662 1.89864,-1.68661 z m -3.74143,3.31535 -1.832879,-1.63052 1.836399,-1.63117 1.83639,-1.63117 0.49858,0.44216 c 0.27422,0.24319 1.10023,0.97761 1.83557,1.63205 l 1.33699,1.18988 -1.83332,1.62981 c -1.00833,0.8964 -1.83592,1.62974 -1.8391,1.62965 -0.003,-1e-4 -0.83055,-0.73391 -1.83863,-1.63069 z m 2.10412,0.87963 v -0.0721 h -0.13142 -0.13141 l 0.0915,-0.0795 c 0.12151,-0.10553 0.16573,-0.18187 0.15672,-0.27054 -0.012,-0.11804 -0.0938,-0.18427 -0.23907,-0.19355 -0.0818,-0.005 -0.21179,0.0216 -0.25745,0.0531 -0.0196,0.0136 -0.0195,0.0167 0.004,0.0695 0.0134,0.0304 0.0255,0.0563 0.0269,0.0575 10e-4,10e-4 0.0278,-0.009 0.0587,-0.0232 0.09,-0.0406 0.18553,-0.0305 0.21262,0.0226 0.0361,0.0707 -0.002,0.12949 -0.18443,0.28498 l -0.14903,0.12696 v 0.0482 0.0482 h 0.27125 0.27126 z m -2.487444,-1.85941 v -0.21633 l -0.07791,-0.003 -0.07791,-0.003 v 0.22242 0.22242 l 0.07791,-0.003 0.07791,-0.003 z m 0.248168,0.1058 v -0.11568 l 0.08885,0.11568 0.08885,0.11568 h 0.0727 0.0727 v -0.22148 -0.22148 h -0.075 -0.075 v 0.11532 0.11532 l -0.08861,-0.11532 -0.08861,-0.11532 h -0.07298 -0.07298 v 0.22148 0.22148 h 0.07503 0.07503 z m 0.574706,0.026 0.003,-0.0846 0.089,-0.003 0.089,-0.003 v -0.0464 -0.0464 l -0.0895,-0.003 -0.0895,-0.003 v -0.0301 -0.0301 l 0.10677,-0.003 0.10677,-0.003 v -0.0464 -0.0464 l -0.18757,-0.003 -0.18756,-0.003 v 0.22221 0.2222 l 0.0779,-0.003 0.0779,-0.003 z m 0.68116,0.0305 0.004,-0.0541 h -0.11574 -0.11574 l -0.003,-0.16225 -0.003,-0.16225 -0.0779,-0.003 -0.0779,-0.003 v 0.2222 0.2222 l 0.19334,-0.003 0.19334,-0.003 z m 0.17959,0.0206 0.0107,-0.0335 h 0.084 0.084 l 0.008,0.0316 c 0.01,0.0389 0.0191,0.0424 0.10674,0.0385 l 0.0699,-0.003 -0.0627,-0.14937 c -0.0345,-0.0821 -0.076,-0.18066 -0.0923,-0.2189 l -0.0296,-0.0695 h -0.0834 -0.0834 l -0.0887,0.20912 c -0.0488,0.11502 -0.0887,0.21489 -0.0887,0.22195 0,0.009 0.0215,0.012 0.0775,0.01 0.0765,-0.003 0.0777,-0.003 0.0882,-0.0365 z m 0.0535,-0.14354 c 0,-0.004 0.009,-0.0348 0.0194,-0.0687 l 0.0194,-0.0616 0.0138,0.0356 c 0.008,0.0196 0.0175,0.0505 0.0219,0.0687 0.008,0.0325 0.007,0.0331 -0.0332,0.0331 -0.0227,0 -0.0413,-0.003 -0.0413,-0.007 z m 0.48319,0.0483 0.004,-0.12876 0.0368,0.12876 0.0368,0.12877 0.0593,0.003 c 0.0681,0.004 0.0574,0.0202 0.10802,-0.16791 l 0.0277,-0.10302 0.006,0.13392 0.006,0.13392 0.0664,0.003 0.0664,0.003 v -0.22199 -0.222 h -0.10344 -0.10344 l -0.0114,0.0386 c -0.006,0.0212 -0.0202,0.0711 -0.0309,0.11074 -0.0107,0.0397 -0.0229,0.0756 -0.0271,0.0798 -0.004,0.004 -0.0221,-0.0456 -0.04,-0.11074 l -0.0324,-0.11842 h -0.10274 -0.10275 v 0.222 0.22199 l 0.0664,-0.003 0.0664,-0.003 z m 0.62507,0.0974 0.0135,-0.0365 0.0819,0.003 c 0.0818,0.003 0.082,0.003 0.0916,0.0365 l 0.01,0.0335 h 0.0805 c 0.0443,0 0.0805,-0.003 0.0806,-0.008 8e-5,-0.004 -0.0402,-0.10409 -0.0895,-0.22186 l -0.0896,-0.21414 -0.0854,0.003 -0.0854,0.003 -0.0848,0.20088 c -0.0467,0.11048 -0.0878,0.20899 -0.0914,0.2189 -0.006,0.016 0.002,0.018 0.0741,0.018 h 0.0807 z m 0.046,-0.1425 c 0,-0.004 0.0286,-0.0791 0.0416,-0.10946 0.004,-0.009 0.0155,0.01 0.0285,0.0464 0.012,0.034 0.022,0.063 0.0221,0.0644 9e-5,0.001 -0.0206,0.003 -0.046,0.003 -0.0254,0 -0.0462,-0.002 -0.0462,-0.004 z m 0.68233,0.16873 c 0.0842,-0.0139 0.12566,-0.0533 0.12566,-0.11947 0,-0.0385 -0.006,-0.0526 -0.0347,-0.078 l -0.0347,-0.031 0.0232,-0.0263 c 0.0282,-0.032 0.0303,-0.0922 0.004,-0.12531 -0.0332,-0.0423 -0.083,-0.0527 -0.25206,-0.0527 h -0.1562 v 0.22148 0.22148 h 0.13117 c 0.0721,0 0.15914,-0.005 0.19334,-0.0102 z m -0.16291,-0.13397 c 0,-0.0404 8.4e-4,-0.0412 0.0412,-0.0412 0.0554,0 0.0858,0.0162 0.0858,0.0456 0,0.0282 -0.019,0.0368 -0.0817,0.0368 -0.0451,0 -0.0452,-1.5e-4 -0.0452,-0.0412 z m 0,-0.16482 c 0,-0.0318 4.2e-4,-0.032 0.0548,-0.0289 0.0499,0.003 0.0548,0.005 0.0548,0.0289 0,0.0234 -0.005,0.026 -0.0548,0.0289 -0.0544,0.003 -0.0548,0.003 -0.0548,-0.0289 z m 0.75028,0.25238 v -0.0567 h -0.11543 -0.11543 v -0.16483 -0.16482 h -0.0808 -0.0808 v 0.22148 0.22148 h 0.19623 0.19623 z m 0.47325,0 v -0.0567 h -0.12697 -0.12697 v -0.0361 -0.0361 h 0.11542 0.11543 v -0.0464 -0.0464 h -0.11543 -0.11542 v -0.0306 -0.0306 l 0.12408,-0.003 0.12408,-0.003 v -0.0464 -0.0464 l -0.20488,-0.003 -0.20488,-0.003 v 0.22171 0.22172 h 0.20777 0.20777 z m -2.73851,-0.69682 0.0721,-0.0307 v -0.0972 -0.0972 h -0.12183 -0.12183 l 0.004,0.0489 0.003,0.0489 0.0491,0.003 c 0.0328,0.002 0.0491,0.008 0.0491,0.0177 0,0.0394 -0.13355,0.0508 -0.17133,0.0146 -0.0438,-0.0419 -0.0439,-0.15236 -2.6e-4,-0.1942 0.0309,-0.0296 0.10472,-0.0294 0.13581,3.7e-4 0.0196,0.0188 0.0305,0.0208 0.0769,0.0146 0.10058,-0.0135 0.10704,-0.0245 0.049,-0.0835 -0.0477,-0.0484 -0.0751,-0.0569 -0.18527,-0.0571 -0.15402,-3e-4 -0.23703,0.0541 -0.26171,0.17141 -0.021,0.0997 0.0263,0.21154 0.10458,0.24768 0.0878,0.0405 0.21281,0.0376 0.3186,-0.007 z m 1.01173,0.008 c 0.0588,-0.0286 0.0909,-0.0807 0.0833,-0.13521 -0.008,-0.0558 -0.0648,-0.10183 -0.15356,-0.12389 -0.11631,-0.0289 -0.12485,-0.032 -0.12485,-0.0458 0,-0.0401 0.0914,-0.0379 0.10866,0.003 0.009,0.0208 0.0162,0.0226 0.0804,0.0194 0.0647,-0.003 0.0707,-0.005 0.0707,-0.0269 0,-0.0299 -0.0384,-0.0736 -0.0825,-0.094 -0.0449,-0.0207 -0.19295,-0.0213 -0.23718,-8.4e-4 -0.13919,0.0642 -0.11163,0.1945 0.0503,0.23769 0.12493,0.0333 0.13243,0.0372 0.12859,0.0667 -0.003,0.0245 -0.008,0.0269 -0.0554,0.0269 -0.0477,0 -0.0533,-0.003 -0.0688,-0.0341 -0.0131,-0.0267 -0.022,-0.0329 -0.0404,-0.0285 -0.013,0.003 -0.0463,0.006 -0.0741,0.006 -0.0502,1.4e-4 -0.0505,3.1e-4 -0.0434,0.0319 0.009,0.0383 0.0463,0.0877 0.0788,0.1032 0.0686,0.0328 0.20702,0.0303 0.27944,-0.005 z m -0.73683,-0.0116 0.008,-0.0361 h 0.0836 0.0836 l 0.0107,0.0335 c 0.0107,0.0334 0.0108,0.0335 0.0949,0.0365 0.0766,0.003 0.0836,10e-4 0.0775,-0.0155 -0.004,-0.0102 -0.0449,-0.10889 -0.0916,-0.21937 l -0.0848,-0.20088 -0.0854,-0.003 -0.0854,-0.003 -0.0896,0.21414 c -0.0493,0.11777 -0.0895,0.21761 -0.0895,0.22186 8e-5,0.004 0.0363,0.008 0.0804,0.008 h 0.0803 z m 0.0513,-0.1468 c 1e-4,-0.004 0.01,-0.0344 0.0209,-0.0671 l 0.0208,-0.0594 0.0195,0.0551 c 0.0265,0.0752 0.0255,0.0791 -0.0209,0.0791 -0.0222,0 -0.0403,-0.003 -0.0402,-0.008 z m 0.43268,-0.73913 c 0,-0.0187 -0.009,-0.0209 -0.0952,-0.0236 -0.0524,-0.002 -0.0952,-0.007 -0.0952,-0.0129 0,-0.005 0.0148,-0.01 0.0328,-0.01 0.0181,0 0.0621,-0.009 0.0979,-0.02 0.17035,-0.0523 0.2861,-0.17977 0.34275,-0.37745 0.0215,-0.075 0.0439,-0.26185 0.0315,-0.26185 -0.003,0 -0.0226,0.0228 -0.0426,0.0506 -0.0325,0.0452 -0.0699,0.0745 -0.0699,0.0547 0,-0.004 0.007,-0.0422 0.0164,-0.0847 0.0263,-0.1239 0.0337,-0.25536 0.0192,-0.34023 -0.0129,-0.0754 -0.0617,-0.18514 -0.0823,-0.18514 -0.006,0 -0.0189,0.0151 -0.0294,0.0335 -0.0246,0.0434 -0.0725,0.10044 -0.0844,0.10044 -0.005,0 -0.0124,-0.029 -0.0162,-0.0644 -0.01,-0.0885 -0.048,-0.21662 -0.0879,-0.29257 -0.0297,-0.0566 -0.11393,-0.14784 -0.13651,-0.1478 -0.005,0 -0.009,0.0336 -0.01,0.0747 -5e-4,0.0411 -0.008,0.0886 -0.0157,0.10558 -0.0147,0.0306 -0.0151,0.03 -0.0426,-0.0611 -0.0168,-0.0554 -0.0539,-0.13534 -0.0932,-0.20088 -0.036,-0.0599 -0.0876,-0.14794 -0.11471,-0.19572 -0.0285,-0.0503 -0.0518,-0.0806 -0.0552,-0.0721 -0.003,0.008 -0.0118,0.0287 -0.019,0.0457 -0.007,0.017 -0.0177,0.10276 -0.0233,0.19058 -0.006,0.0878 -0.0144,0.17319 -0.0196,0.18972 -0.009,0.03 -0.01,0.0298 -0.0748,-0.0533 -0.0572,-0.0729 -0.10218,-0.10772 -0.11929,-0.0924 -0.003,0.003 8.6e-4,0.0181 0.008,0.0344 0.007,0.0164 0.0136,0.0761 0.0136,0.13277 9e-5,0.10147 -0.008,0.14151 -0.0633,0.31148 l -0.0242,0.0746 -0.0491,-0.0746 c -0.027,-0.041 -0.0626,-0.0858 -0.0792,-0.0995 l -0.0301,-0.025 -7e-5,0.11769 c -6e-5,0.10394 -0.0225,0.28909 -0.0416,0.34282 -0.006,0.0168 -0.0123,0.0143 -0.0527,-0.0206 l -0.0459,-0.0397 0.004,0.27299 c 0.004,0.25007 0.007,0.27897 0.0308,0.34431 0.0343,0.093 0.1234,0.17678 0.22376,0.21029 0.0367,0.0123 0.0743,0.0223 0.0836,0.0223 0.009,0 0.0169,0.005 0.0169,0.0103 0,0.006 -0.0346,0.0103 -0.0808,0.0103 -0.0786,0 -0.0808,7.1e-4 -0.0808,0.0259 v 0.0259 l 0.47613,-0.003 c 0.46744,-0.003 0.47613,-0.003 0.47613,-0.0233 z m -0.52737,-0.0537 c 0.0256,-0.004 0.0462,-0.0289 0.0336,-0.0401 -0.003,-0.003 -0.0378,-0.012 -0.0767,-0.0201 -0.13936,-0.029 -0.2311,-0.087 -0.28334,-0.17897 -0.0336,-0.0592 -0.0833,-0.25894 -0.055,-0.22115 0.005,0.006 0.0197,0.0166 0.0334,0.023 0.0237,0.0111 0.0253,0.009 0.0331,-0.0422 0.01,-0.0621 0.0488,-0.18321 0.0643,-0.19764 0.006,-0.006 0.0105,0.006 0.0105,0.0309 1.3e-4,0.0629 0.0212,0.16448 0.0469,0.22565 0.0238,0.0567 0.1058,0.15038 0.12048,0.13758 0.005,-0.004 0.002,-0.0452 -0.005,-0.0918 -0.0136,-0.0903 -0.015,-0.26205 -0.002,-0.31318 0.007,-0.0283 0.009,-0.0256 0.0231,0.0309 0.0198,0.0787 0.0375,0.10918 0.0839,0.144 0.0356,0.0268 0.0379,0.0272 0.0529,0.009 0.0435,-0.0531 0.076,-0.23651 0.0662,-0.37443 -0.007,-0.0925 -0.006,-0.0967 0.0124,-0.0773 0.063,0.0671 0.11847,0.24462 0.10349,0.33118 -0.003,0.019 -0.009,0.0511 -0.0124,0.0713 l -0.006,0.0368 0.0358,-0.0236 c 0.0197,-0.013 0.0534,-0.0551 0.0751,-0.0938 0.0358,-0.0639 0.0405,-0.0683 0.0521,-0.0489 0.007,0.0119 0.0122,0.0654 0.0114,0.12136 -7.5e-4,0.055 -10e-4,0.10404 -6.5e-4,0.10894 4e-4,0.005 0.0145,8.8e-4 0.0312,-0.009 l 0.0305,-0.0178 -0.008,0.0547 c -0.0267,0.17995 -0.14739,0.32265 -0.30974,0.36636 -0.0478,0.0129 -0.0664,0.0229 -0.0664,0.0358 0,0.0117 0.0111,0.0195 0.0318,0.0223 0.0174,0.002 -0.01,0.004 -0.0606,0.004 -0.0508,8e-5 -0.0803,-0.002 -0.0657,-0.004 z"
       id="path5" /><text
       xml:space="preserve"
       transform="matrix(0.22082122,0,0,0.28136817,96.314553,106.29498)"
       id="text1"
       style="font-size:6.4px;line-height:5.44252px;font-family:Arial;-inkscape-font-specification:Arial;white-space:pre;shape-inside:url(#rect1);display:inline;fill:#000000;stroke-width:1.3115;stroke-miterlimit:3.6;stroke-dasharray:5.246, 1.3115"><tspan
         x="3.9316406"
         y="53.53687"
         id="tspan2">Gas inflamable </tspan></text></g></svg>
