<?xml version="1.0" encoding="UTF-8" standalone="no"?>
<!-- Created with Inkscape (http://www.inkscape.org/) -->

<svg
   width="50"
   height="50"
   viewBox="0 0 13.229167 13.229167"
   version="1.1"
   id="svg1"
   xml:space="preserve"
   inkscape:version="1.3.2 (091e20e, 2023-11-25)"
   sodipodi:docname="Gas no inflamable.svg"
   xmlns:inkscape="http://www.inkscape.org/namespaces/inkscape"
   xmlns:sodipodi="http://sodipodi.sourceforge.net/DTD/sodipodi-0.dtd"
   xmlns="http://www.w3.org/2000/svg"
   xmlns:svg="http://www.w3.org/2000/svg"><sodipodi:namedview
     id="namedview1"
     pagecolor="#ffffff"
     bordercolor="#000000"
     borderopacity="0.25"
     inkscape:showpageshadow="2"
     inkscape:pageopacity="0.0"
     inkscape:pagecheckerboard="0"
     inkscape:deskcolor="#d1d1d1"
     inkscape:document-units="mm"
     inkscape:zoom="6.6740333"
     inkscape:cx="36.859271"
     inkscape:cy="30.341473"
     inkscape:window-width="1680"
     inkscape:window-height="1022"
     inkscape:window-x="0"
     inkscape:window-y="28"
     inkscape:window-maximized="0"
     inkscape:current-layer="layer1" /><defs
     id="defs1"><rect
       x="5.4690361"
       y="53.664917"
       width="60.159397"
       height="8.8871841"
       id="rect1" /></defs><g
     inkscape:label="Capa 1"
     inkscape:groupmode="layer"
     id="layer1"
     transform="matrix(2.0772423,0,0,2.0772423,-227.22468,-302.25016)"><path
       style="fill:#008000;stroke-width:0.758478"
       d="m 111.33838,149.34393 -1.20659,-1.27303 1.14056,-1.20467 c 0.62731,-0.66256 1.17116,-1.23612 1.20856,-1.27457 l 0.068,-0.07 0.33614,0.35466 c 0.18487,0.19506 0.72789,0.76852 1.20669,1.27439 l 0.87055,0.91973 -1.20513,1.2729 c -0.66283,0.70009 -1.20672,1.27304 -1.20866,1.27322 -0.003,1.7e-4 -0.5465,-0.57255 -1.21012,-1.27271 z m 2.22579,0.0601 c 0.55894,-0.58989 1.07428,-1.13365 1.1452,-1.20836 l 0.12892,-0.13585 -0.42517,-0.45129 c -0.23384,-0.24823 -0.75055,-0.79398 -1.14822,-1.21283 l -0.72304,-0.76152 -1.1472,1.21098 -1.1472,1.21097 1.14532,1.20993 c 0.62992,0.66547 1.14752,1.21007 1.15021,1.21021 0.003,1.5e-4 0.46223,-0.48236 1.02118,-1.07224 z m -2.13194,-0.17875 -1.10585,-1.16915 1.10849,-1.16946 1.10852,-1.16946 1.10836,1.16946 1.10838,1.16946 -1.10735,1.16956 c -0.60904,0.64326 -1.10901,1.16938 -1.11103,1.16915 -0.003,-2.3e-4 -0.50129,-0.52652 -1.10952,-1.16956 z m 1.31149,0.70457 v -0.0589 l -0.0958,-0.003 -0.0958,-0.003 0.0697,-0.0555 c 0.0753,-0.0599 0.11064,-0.10591 0.11833,-0.15419 0.0115,-0.0721 -0.0375,-0.14705 -0.10647,-0.16265 -0.0511,-0.0115 -0.12468,-0.0105 -0.16588,0.003 -0.051,0.0161 -0.0918,0.0667 -0.10272,0.12769 -0.004,0.0195 -0.003,0.0241 0.008,0.0245 0.007,3.3e-4 0.0376,0.003 0.0691,0.005 l 0.057,0.005 0.004,-0.0218 c 0.006,-0.0323 0.0234,-0.0486 0.0515,-0.0486 0.0305,0 0.0499,0.0179 0.0499,0.0458 0,0.0316 -0.0172,0.054 -0.0796,0.10426 -0.10583,0.0852 -0.15545,0.1506 -0.16805,0.22177 l -0.004,0.0273 h 0.19595 0.19594 z m -1.53351,-1.38225 v -0.15521 h -0.0488 -0.0488 v 0.15521 0.1552 h 0.0488 0.0488 z m 0.14639,0.0759 v -0.0793 l 0.0505,0.0789 0.0505,0.0789 0.047,3e-4 0.047,2.9e-4 v -0.1552 -0.15521 h -0.0451 -0.0451 l -0.003,0.0781 -0.003,0.0781 -0.0507,-0.0781 -0.0507,-0.0781 h -0.0452 -0.0452 v 0.15521 0.1552 h 0.0452 0.0453 z m 0.34851,0.0164 v -0.0628 h 0.0557 0.0557 v -0.0332 -0.0332 h -0.0557 -0.0557 v -0.022 -0.022 l 0.0644,-0.003 0.0644,-0.003 0.003,-0.0351 0.003,-0.0351 h -0.1154 -0.11539 v 0.15521 0.1552 h 0.0488 0.0488 z m 0.51982,0.0366 0.004,-0.0261 0.0493,0.003 c 0.0492,0.003 0.0493,0.003 0.0551,0.0261 l 0.006,0.0241 h 0.0518 0.0518 l -0.0139,-0.0388 c -0.008,-0.0213 -0.0322,-0.0904 -0.0546,-0.15335 l -0.0406,-0.11455 h -0.0544 -0.0544 l -0.053,0.15011 c -0.0523,0.14816 -0.053,0.14961 -0.055,0.1127 l -0.003,-0.0374 h -0.0728 -0.0728 v -0.11456 -0.11456 h -0.0488 -0.0488 v 0.15521 0.1552 h 0.17395 0.17394 z m 0.0308,-0.10436 c 0,-0.003 0.005,-0.0227 0.0117,-0.0444 l 0.0117,-0.0396 0.0125,0.0427 c 0.007,0.0235 0.0126,0.0434 0.0127,0.0445 6e-5,7.5e-4 -0.0108,0.002 -0.0243,0.002 -0.0134,0 -0.0245,-0.003 -0.0245,-0.004 z m 0.28733,0.0289 0.003,-0.10162 0.0242,0.10194 0.0242,0.10194 0.0381,-0.003 0.0381,-0.003 0.0224,-0.0924 0.0224,-0.0924 6.5e-4,0.0942 6.7e-4,0.0942 h 0.0418 0.0418 v -0.15548 -0.15548 l -0.0641,0.003 -0.0641,0.003 -0.0178,0.0753 c -0.01,0.0413 -0.0196,0.0771 -0.0218,0.0794 -0.003,0.003 -0.01,-0.0212 -0.0164,-0.052 -0.007,-0.0309 -0.0154,-0.0675 -0.019,-0.0812 l -0.007,-0.0251 h -0.0624 -0.0624 v 0.15521 0.1552 h 0.0381 0.0381 z m 0.38336,0.0739 0.006,-0.0241 h 0.0476 0.0476 l 0.007,0.0241 c 0.007,0.024 0.007,0.0241 0.0567,0.0261 0.0276,0.002 0.0503,-2.5e-4 0.0503,-0.003 0,-0.003 -0.0239,-0.073 -0.0532,-0.15552 l -0.0532,-0.15017 h -0.0532 -0.0532 l -0.0515,0.14597 c -0.0283,0.0803 -0.053,0.15027 -0.0548,0.15554 -0.003,0.008 0.008,0.009 0.0476,0.008 l 0.0509,-0.003 z m 0.0395,-0.13825 c 0.006,-0.0221 0.0132,-0.0379 0.0157,-0.0351 0.003,0.003 0.009,0.021 0.0153,0.0404 l 0.0109,0.0351 h -0.0266 -0.0266 z m 0.42836,0.15589 c 0.0483,-0.0214 0.0638,-0.0952 0.0282,-0.13304 -0.0101,-0.0107 -0.021,-0.0195 -0.0241,-0.0195 -0.003,0 0.003,-0.008 0.0114,-0.0181 0.0126,-0.0133 0.0172,-0.0261 0.0172,-0.0485 0,-0.0696 -0.0225,-0.0812 -0.1565,-0.0812 h -0.10141 v 0.1552 0.1552 h 0.1013 c 0.0698,0 0.10837,-0.003 0.12404,-0.01 z m -0.12775,-0.0893 c 0,-0.026 3.1e-4,-0.0262 0.0297,-0.0261 0.0371,1.4e-4 0.0489,0.008 0.0459,0.0303 -0.003,0.0157 -0.006,0.0179 -0.0389,0.0199 l -0.0366,0.003 z m 0,-0.11907 c 0,-0.0262 2e-5,-0.0263 0.0289,-0.0241 0.0547,0.004 0.053,0.0503 -0.002,0.0503 -0.0263,0 -0.027,-6.8e-4 -0.027,-0.0263 z m 0.45307,0.17781 v -0.0406 h -0.0697 -0.0697 v -0.11455 -0.11456 h -0.0488 -0.0488 v 0.15521 0.1552 h 0.1185 0.1185 z m 0.2858,0.004 v -0.037 h -0.0767 -0.0767 v -0.0259 -0.0259 h 0.0697 0.0697 v -0.037 -0.037 h -0.0697 c -0.0695,0 -0.0697,-7e-5 -0.0697,-0.0182 0,-0.0181 4.6e-4,-0.0182 0.0749,-0.0204 l 0.0749,-0.003 0.003,-0.0351 0.003,-0.0351 h -0.12584 -0.12586 v 0.1552 0.1552 h 0.12547 0.12547 z m -2.05622,-0.4993 0.0382,-0.0218 0.003,-0.0684 0.003,-0.0683 h -0.0734 -0.0734 v 0.0333 0.0332 h 0.0279 c 0.0228,0 0.0279,0.003 0.0279,0.014 0,0.009 -0.008,0.0169 -0.022,0.0221 -0.0356,0.0132 -0.0544,0.01 -0.077,-0.0143 -0.0201,-0.0213 -0.021,-0.0249 -0.0183,-0.0712 0.003,-0.042 0.005,-0.0512 0.0221,-0.0662 0.0247,-0.0226 0.0494,-0.0221 0.0715,7.6e-4 0.0171,0.0181 0.0188,0.0183 0.0627,0.0103 0.0415,-0.008 0.0447,-0.01 0.0404,-0.0241 -0.0149,-0.0499 -0.0477,-0.0719 -0.11584,-0.0771 -0.0622,-0.004 -0.10564,0.009 -0.13749,0.0424 -0.0547,0.058 -0.0572,0.17416 -0.005,0.23415 0.0313,0.0359 0.0665,0.0478 0.13374,0.0449 0.0458,-0.003 0.0628,-0.006 0.0941,-0.0241 z m 0.5975,0.0117 c 0.0512,-0.0246 0.0726,-0.0886 0.0471,-0.14094 -0.0128,-0.0262 -0.0347,-0.0389 -0.1011,-0.0584 -0.0574,-0.0169 -0.0588,-0.0178 -0.0532,-0.0334 0.008,-0.0233 0.0673,-0.007 0.0673,0.0187 0,0.009 0.0698,0.009 0.0823,5.1e-4 0.0128,-0.009 0.004,-0.0406 -0.0178,-0.0635 -0.0235,-0.0248 -0.0653,-0.036 -0.11817,-0.0316 -0.0746,0.006 -0.11348,0.0462 -0.10442,0.10716 0.005,0.0377 0.0354,0.0625 0.0981,0.0819 0.0542,0.0167 0.0699,0.0287 0.0628,0.0483 -0.011,0.0304 -0.0685,0.0202 -0.0766,-0.0137 -0.004,-0.0173 -0.008,-0.0188 -0.0437,-0.0186 -0.0531,1.6e-4 -0.0577,0.004 -0.0462,0.0395 0.0116,0.0359 0.0349,0.0624 0.0622,0.0708 0.0388,0.012 0.10968,0.009 0.14139,-0.007 z m 0.81185,-0.012 c 0.035,-0.0262 0.0524,-0.0602 0.0584,-0.11392 0.0115,-0.10373 -0.0401,-0.17358 -0.13464,-0.18259 -0.0572,-0.005 -0.097,0.008 -0.13152,0.0447 -0.0364,0.0386 -0.05,0.0941 -0.038,0.15412 0.0184,0.0908 0.0652,0.12578 0.16267,0.12153 0.0468,-0.003 0.0582,-0.005 0.083,-0.0239 z m -0.12839,-0.0627 c -0.0291,-0.018 -0.0313,-0.1057 -0.003,-0.13811 0.0181,-0.0212 0.0554,-0.0222 0.0741,-0.003 0.0253,0.0268 0.0272,0.0931 0.004,0.13121 -0.008,0.0128 -0.0169,0.017 -0.0365,0.0168 -0.0142,-1.4e-4 -0.0314,-0.004 -0.0379,-0.008 z m -1.1182,0.054 0.007,-0.0241 h 0.0476 0.0476 l 0.006,0.0241 c 0.006,0.024 0.006,0.024 0.056,0.0261 0.0276,0.002 0.0501,-7.6e-4 0.0501,-0.004 0,-0.004 -0.0176,-0.0562 -0.039,-0.11672 -0.0214,-0.0605 -0.0452,-0.12752 -0.0528,-0.14887 l -0.0137,-0.0388 -0.0536,6e-5 -0.0535,7e-5 -0.0523,0.14878 c -0.0287,0.0819 -0.0534,0.15178 -0.0547,0.15546 -0.002,0.004 0.02,0.006 0.0485,0.004 0.0509,-0.003 0.0509,-0.003 0.0575,-0.0261 z m 0.0344,-0.11825 c 0.005,-0.03 0.0201,-0.0658 0.023,-0.0573 0.002,0.004 0.007,0.0232 0.0125,0.0425 l 0.01,0.0351 h -0.0245 c -0.0231,0 -0.0244,-0.002 -0.0207,-0.0203 z m 0.7313,0.0713 0.003,-0.0748 0.0476,0.0748 0.0476,0.0747 h 0.0447 0.0448 v -0.1552 -0.1552 h -0.0451 -0.0451 l -0.003,0.0757 -0.003,0.0757 -0.0481,-0.0757 -0.0481,-0.0757 h -0.0477 -0.0477 v 0.1552 0.1552 h 0.0485 0.0485 z M 112.46836,147.52 c 0.45239,-0.0612 0.82992,-0.11454 0.83897,-0.11852 0.0148,-0.007 0.016,-0.0104 0.012,-0.0388 l -0.004,-0.0316 0.10169,-0.013 c 0.0559,-0.007 0.10579,-0.0147 0.1108,-0.0167 0.0247,-0.0101 0.0339,-0.0991 0.0151,-0.14668 -0.0184,-0.0468 -0.029,-0.0492 -0.14244,-0.0331 -0.055,0.008 -0.10286,0.0124 -0.1063,0.0101 -0.004,-0.003 -0.006,-0.0168 -0.006,-0.0323 0,-0.0155 -0.004,-0.0318 -0.009,-0.0362 -0.0114,-0.01 -1.69784,0.2172 -1.71015,0.23042 -0.006,0.006 -0.003,0.0472 0.0118,0.16378 0.0109,0.0853 0.02,0.15936 0.0202,0.16444 1.9e-4,0.005 0.01,0.009 0.023,0.009 0.0124,3e-5 0.39278,-0.05 0.84516,-0.11123 z"
       id="path1" /><text
       xml:space="preserve"
       transform="matrix(0.1242809,0,0,0.21755674,108.68993,138.88749)"
       id="text1"
       style="font-size:6.4px;line-height:5.44252px;font-family:Arial;-inkscape-font-specification:Arial;white-space:pre;shape-inside:url(#rect1);display:inline;fill:#ffffff;stroke-width:1.3115;stroke-miterlimit:3.6;stroke-dasharray:5.246, 1.3115;fill-opacity:1"><tspan
         x="5.46875"
         y="58.150151"
         id="tspan1">Gas no inflamable </tspan></text></g></svg>
