<?xml version="1.0" encoding="UTF-8" standalone="no"?>
<!-- Created with Inkscape (http://www.inkscape.org/) -->

<svg
   width="80"
   height="50"
   viewBox="0 0 21.166666 13.229167"
   version="1.1"
   id="svg1"
   xml:space="preserve"
   inkscape:version="1.3.1 (91b66b0783, 2023-11-16)"
   sodipodi:docname="Kit anti derrames version bonita.svg"
   xmlns:inkscape="http://www.inkscape.org/namespaces/inkscape"
   xmlns:sodipodi="http://sodipodi.sourceforge.net/DTD/sodipodi-0.dtd"
   xmlns="http://www.w3.org/2000/svg"
   xmlns:svg="http://www.w3.org/2000/svg"><sodipodi:namedview
     id="namedview1"
     pagecolor="#ffffff"
     bordercolor="#000000"
     borderopacity="0.25"
     inkscape:showpageshadow="2"
     inkscape:pageopacity="0.0"
     inkscape:pagecheckerboard="0"
     inkscape:deskcolor="#d1d1d1"
     inkscape:document-units="mm"
     inkscape:zoom="4.1373684"
     inkscape:cx="10.997329"
     inkscape:cy="31.541789"
     inkscape:window-width="1366"
     inkscape:window-height="705"
     inkscape:window-x="-8"
     inkscape:window-y="-8"
     inkscape:window-maximized="1"
     inkscape:current-layer="layer1" /><defs
     id="defs1" /><g
     inkscape:label="Capa 1"
     inkscape:groupmode="layer"
     id="layer1"
     transform="matrix(0.19332338,0,0,0.19332338,-8.9285005,-19.129577)"><path
       style="fill:#ffff00;stroke:#000000;stroke-width:0.0499999;stroke-opacity:1"
       d="M 46.427458,100.40098 H 154.5024 v 65.61236 H 46.427458 Z"
       id="path2" /><path
       style="fill:#000000;stroke:#000000;stroke-width:1.00159;stroke-opacity:1"
       d="m 99.599225,167.15369 c -0.255535,-0.23804 -0.08906,-0.63532 0.266211,-0.63532 0.164884,0 0.291814,0.13652 0.291814,0.31386 0,0.0686 -0.067,0.0904 -0.277069,0.0904 -0.214114,0 -0.269374,0.0186 -0.243215,0.0821 0.05301,0.1287 0.217987,0.16025 0.332622,0.0636 0.190322,-0.16044 0.272712,-0.06 0.09022,0.11 -0.132716,0.12361 -0.311659,0.114 -0.460606,-0.0247 z m 0.393178,-0.43623 c -0.04264,-0.10352 -0.277807,-0.0905 -0.315986,0.0175 -0.01668,0.0472 0.04004,0.0722 0.163704,0.0722 0.145593,0 0.180709,-0.0207 0.152282,-0.0897 z m 0.428357,0.51349 c -0.047,-0.0176 -0.0775,-0.139 -0.0775,-0.30829 0,-0.1692 -0.0305,-0.29069 -0.0775,-0.30845 -0.0539,-0.0203 -0.0572,-0.0439 -0.011,-0.077 0.0366,-0.0262 0.0898,-0.0997 0.1181,-0.16323 l 0.0516,-0.11551 0.0286,0.11551 c 0.0157,0.0635 0.0602,0.13699 0.0988,0.16323 0.0515,0.035 0.0496,0.0556 -0.007,0.077 -0.0918,0.0348 -0.10623,0.48172 -0.0155,0.48172 0.034,0 0.062,0.039 0.062,0.0866 0,0.089 -0.0356,0.0991 -0.17051,0.0484 z m 0.34101,-0.0225 c -0.21491,-0.11971 -0.0487,-0.40123 0.23694,-0.40123 0.0926,0 0.15057,-0.0335 0.15057,-0.0866 0,-0.0966 -0.21907,-0.11922 -0.279,-0.0289 -0.0563,0.0848 -0.15501,0.0703 -0.15501,-0.0227 0,-0.0964 0.13327,-0.15057 0.37045,-0.15057 0.20261,0 0.24958,0.0817 0.24958,0.4343 0,0.20164 -0.0215,0.25132 -0.10851,0.2502 -0.0597,-7.7e-4 -0.16431,0.0137 -0.23251,0.0323 -0.0682,0.0185 -0.17283,0.006 -0.23251,-0.0267 z m 0.28945,-0.0897 c 0.1387,-0.0496 0.12206,-0.19597 -0.0222,-0.19597 -0.13626,0 -0.21591,0.0869 -0.15866,0.17327 0.045,0.0677 0.0523,0.0687 0.18094,0.0227 z m 0.52046,0.0242 c -0.0864,-0.0805 -0.10912,-0.13457 -0.0626,-0.14904 0.0402,-0.0125 0.11717,0.0184 0.17106,0.0686 0.1175,0.10946 0.16459,0.11339 0.26274,0.0219 0.18724,-0.17443 -0.0202,-0.4737 -0.2398,-0.34595 -0.16248,0.0945 -0.18194,0.0879 -0.18097,-0.0612 0.002,-0.32437 0.0605,-0.38985 0.34739,-0.38985 0.14949,0 0.27178,0.0259 0.27178,0.0578 0,0.0317 -0.0977,0.0578 -0.217,0.0578 -0.27336,0 -0.29568,0.14417 -0.0299,0.19366 0.44485,0.0829 0.3233,0.66403 -0.14053,0.67189 -0.0255,4.3e-4 -0.10753,-0.0561 -0.18213,-0.12555 z m 0.83006,0.057 c -0.0902,-0.0841 -0.098,-0.21948 -0.0124,-0.21948 0.0341,0 0.062,0.0232 0.062,0.0516 0,0.0978 0.18265,0.11657 0.27722,0.0284 0.14524,-0.13529 0.11342,-0.19615 -0.0833,-0.15948 -0.14001,0.026 -0.19976,0.004 -0.27901,-0.10093 -0.13486,-0.17937 -0.12707,-0.31503 0.0263,-0.45792 0.14047,-0.13086 0.34328,-0.11016 0.47735,0.0487 0.12702,0.15053 0.0979,0.62832 -0.0465,0.76284 -0.13996,0.13037 -0.31112,0.14912 -0.42161,0.0462 z m 0.35743,-0.50446 c 0.0828,-0.14413 0.0818,-0.15238 -0.0306,-0.25712 -0.0522,-0.0486 -0.13584,-0.0736 -0.186,-0.0557 -0.11103,0.0397 -0.12188,0.34563 -0.0137,0.3863 0.13461,0.0506 0.16454,0.0411 0.23033,-0.0735 z m 0.4332,0.46761 c -0.0856,-0.0646 -0.12219,-0.13412 -0.0934,-0.17762 0.0352,-0.0531 0.0778,-0.0411 0.16531,0.0465 0.12799,0.12798 0.27049,0.11087 0.33261,-0.04 0.0417,-0.10107 -0.13178,-0.26188 -0.22472,-0.20838 -0.029,0.0167 -0.0529,0.004 -0.0529,-0.0286 0,-0.0325 0.0558,-0.0869 0.12401,-0.12096 0.0682,-0.034 0.124,-0.097 0.124,-0.14024 0,-0.11797 -0.17016,-0.15504 -0.27279,-0.0595 -0.13411,0.12492 -0.24196,0.10919 -0.16537,-0.0241 0.0776,-0.13505 0.24361,-0.17846 0.43293,-0.11323 0.12479,0.043 0.14027,0.0781 0.11028,0.25023 -0.0191,0.11011 -0.009,0.21521 0.023,0.23355 0.10827,0.0623 0.059,0.30803 -0.0799,0.39867 -0.17795,0.11611 -0.25149,0.11329 -0.42322,-0.0162 z m 1.2115,0.0263 c -0.13874,-0.0944 -0.15974,-0.43922 -0.0353,-0.57893 0.11775,-0.13215 0.41955,-0.118 0.50084,0.0234 0.053,0.0922 0.0472,0.11552 -0.0289,0.11552 -0.0524,0 -0.0951,-0.0277 -0.0951,-0.0618 0,-0.034 -0.0628,-0.0535 -0.13951,-0.0434 -0.11101,0.0147 -0.14334,0.0612 -0.15827,0.22769 -0.0224,0.25052 0.12522,0.34053 0.30712,0.18718 0.15532,-0.13093 0.22586,-0.0519 0.084,0.0941 -0.13183,0.13569 -0.27157,0.14725 -0.43491,0.036 z m 0.72737,-0.01 c -0.27795,-0.18135 -0.1305,-0.66092 0.20321,-0.66092 0.20628,0 0.34101,0.14867 0.34101,0.37627 0,0.18819 -0.16967,0.37456 -0.34101,0.37456 -0.0359,0 -0.12742,-0.0405 -0.20321,-0.0899 z m 0.39779,-0.23901 c 0.0518,-0.19208 -0.11869,-0.36089 -0.27324,-0.27065 -0.14423,0.0842 -0.16734,0.27553 -0.0469,0.38776 0.12633,0.11768 0.2711,0.0647 0.32009,-0.11711 z m 0.29729,0.25305 c -0.0188,-0.0458 -0.0256,-0.20985 -0.015,-0.36464 l 0.0192,-0.28144 h 0.49602 0.49602 l 0.0186,0.33209 c 0.0108,0.19342 -0.007,0.3321 -0.0431,0.3321 -0.034,0 -0.0702,-0.12345 -0.0806,-0.27434 -0.0158,-0.22997 -0.039,-0.27434 -0.1429,-0.27434 -0.10395,0 -0.12706,0.0444 -0.1429,0.27434 -0.02,0.29131 -0.13284,0.38379 -0.14085,0.11552 -0.0106,-0.35661 -0.0608,-0.452 -0.20959,-0.39882 -0.0665,0.0237 -0.0957,0.11298 -0.0957,0.29252 0,0.25795 -0.0944,0.40436 -0.15915,0.24701 z m -10.902452,-0.25217 c -0.110601,-0.30237 -0.123895,-0.42288 -0.04664,-0.42288 0.02871,0 0.08957,0.11045 0.135268,0.24546 l 0.08308,0.24547 0.05954,-0.24547 c 0.07603,-0.31342 0.200902,-0.31405 0.301421,-0.002 l 0.07846,0.24394 0.06875,-0.22951 c 0.05507,-0.18385 0.100933,-0.23308 0.230521,-0.24746 0.141586,-0.0157 0.16694,0.008 0.203191,0.1877 0.05265,0.26143 0.126301,0.26288 0.178535,0.004 0.05331,-0.26475 0.202948,-0.26437 0.256319,6.4e-4 0.05801,0.28807 0.13279,0.2984 0.182341,0.0251 0.03804,-0.20975 0.05938,-0.23269 0.201786,-0.21683 0.126208,0.014 0.174257,0.0657 0.231623,0.24876 l 0.07238,0.23103 0.08216,-0.24547 c 0.04518,-0.13501 0.115627,-0.24546 0.156536,-0.24546 0.04091,0 0.101177,0.11045 0.133928,0.24546 l 0.05954,0.24547 0.08308,-0.24547 c 0.04569,-0.13501 0.106565,-0.24546 0.135268,-0.24546 0.07237,0 0.06408,0.10141 -0.03301,0.40429 -0.107688,0.33593 -0.252948,0.36879 -0.3324,0.0752 l -0.05942,-0.21958 -0.05992,0.20206 c -0.09344,0.31509 -0.24113,0.2911 -0.336249,-0.0546 -0.04416,-0.16052 -0.100343,-0.29185 -0.124845,-0.29185 -0.0245,0 -0.08031,0.12996 -0.124006,0.28879 -0.09999,0.36342 -0.266917,0.39929 -0.335887,0.0722 l -0.04566,-0.21658 -0.07523,0.20214 c -0.119,0.31978 -0.246864,0.28768 -0.343137,-0.0861 -0.09286,-0.36058 -0.132574,-0.35369 -0.24705,0.0429 -0.0953,0.3301 -0.211643,0.35123 -0.317875,0.0578 l -0.0784,-0.21659 -0.05657,0.21659 c -0.07654,0.29305 -0.198147,0.27251 -0.317436,-0.0536 z m 3.00129,0.21244 c 0,-0.0318 0.04186,-0.0578 0.09301,-0.0578 0.05115,0 0.09301,0.0259 0.09301,0.0578 0,0.0317 -0.04186,0.0578 -0.09301,0.0578 -0.05115,0 -0.09301,-0.0259 -0.09301,-0.0578 z m 0.372015,-0.28018 v -0.33793 l 0.449518,-0.003 c 0.247235,-0.001 0.484393,0.0238 0.52702,0.0562 0.114317,0.0869 0.102929,0.62238 -0.01324,0.62238 -0.06716,0 -0.08927,-0.0681 -0.08509,-0.26216 0.0063,-0.29251 -0.0228,-0.34542 -0.162507,-0.29548 -0.06676,0.0238 -0.09568,0.11331 -0.09568,0.29592 0,0.19414 -0.02402,0.26172 -0.09301,0.26172 -0.07045,0 -0.09301,-0.071 -0.09301,-0.29302 0,-0.24787 -0.01672,-0.29006 -0.108505,-0.27382 -0.08176,0.0144 -0.113162,0.0867 -0.127401,0.29301 -0.01326,0.19217 -0.04562,0.27383 -0.108504,0.27383 -0.06793,0 -0.08961,-0.0817 -0.08961,-0.33793 z m 5.642217,0.28018 c 0,-0.0318 0.0419,-0.0578 0.093,-0.0578 0.0512,0 0.0931,0.0259 0.0931,0.0578 0,0.0317 -0.0419,0.0578 -0.0931,0.0578 -0.0512,0 -0.093,-0.0259 -0.093,-0.0578 z m -56.855937,-1.42948 3.08e-4,-0.21658 0.152469,0.17326 c 0.193318,0.2197 0.193615,0.25991 0.0019,0.25991 -0.137838,0 -0.154972,-0.024 -0.154698,-0.21659 z m 2.805303,-3.29264 -2.805611,-3.49953 v -3.52541 c 0,-2.99329 0.01286,-3.51263 0.08523,-3.44082 0.04687,0.0465 1.279753,1.56602 2.739725,3.37668 2.193631,2.72055 2.65899,3.32973 2.680391,3.50871 0.02148,0.17971 0.0499,0.21658 0.166898,0.21658 0.114071,0 0.663442,0.64901 2.876601,3.39833 1.504581,1.86907 2.735602,3.4155 2.735602,3.4365 0,0.021 -1.276475,0.036 -2.836613,0.0334 l -2.836612,-0.005 z m 11.090433,0.11091 c -1.504581,-1.86907 -2.735602,-3.4155 -2.735602,-3.4365 0,-0.021 1.268981,-0.0382 2.819958,-0.0382 h 2.819957 l 2.706605,3.36432 c 1.488633,1.85037 2.734168,3.3968 2.767855,3.4365 0.04882,0.0575 -0.517859,0.0722 -2.79096,0.0722 h -2.852211 z m 10.996096,0.0129 c -1.499444,-1.86199 -2.735657,-3.40868 -2.74714,-3.4371 -0.01214,-0.03 1.167058,-0.0454 2.817976,-0.0367 l 2.838854,0.015 2.715743,3.37043 c 1.493658,1.85373 2.715743,3.39366 2.715743,3.42206 0,0.0297 -1.198604,0.0517 -2.807457,0.0517 h -2.807456 z m 10.97628,-0.004 c -1.50046,-1.86326 -2.737503,-3.40955 -2.748985,-3.43618 -0.01148,-0.0266 1.258017,-0.0417 2.821112,-0.0333 l 2.841988,0.015 2.6834,3.321 c 1.47587,1.82655 2.711475,3.36648 2.74579,3.42206 0.05903,0.0957 -0.0902,0.10104 -2.776403,0.10017 l -2.838793,-9.1e-4 z m 13.629639,3.25963 c -0.256873,-0.26594 -5.352311,-6.63099 -5.352311,-6.68592 0,-0.0369 0.996903,-0.0572 2.806023,-0.0572 h 2.806024 l 2.727695,3.38662 c 1.500225,1.86263 2.736995,3.40906 2.748365,3.43651 0.0114,0.0275 -1.23895,0.0499 -2.794804,0.0499 h -2.815471 z m 8.355096,-3.23917 c -1.48073,-1.84773 -2.70373,-3.39199 -2.71777,-3.4317 -0.0201,-0.0571 0.56612,-0.0722 2.79417,-0.0722 h 2.81971 l 2.71918,3.37947 c 1.49555,1.85869 2.72847,3.40512 2.73984,3.4365 0.0134,0.0371 -0.97523,0.0554 -2.82111,0.0522 l -2.84177,-0.005 z m 10.97706,-0.0293 c -1.50458,-1.86907 -2.7356,-3.4155 -2.7356,-3.4365 0,-0.021 1.26886,-0.0382 2.81969,-0.0382 h 2.81969 l 2.49986,3.10441 c 1.37491,1.70743 2.61803,3.25386 2.76248,3.43651 l 0.26264,0.3321 h -2.84658 -2.84657 z m 13.63305,3.3415 c 0,-0.0312 -1.2137,-1.56332 -2.69711,-3.4046 -1.48341,-1.84129 -2.6971,-3.36241 -2.6971,-3.38028 0,-0.0178 1.27513,-0.0257 2.83362,-0.0174 l 2.83363,0.015 2.56098,3.1766 c 1.40854,1.74714 2.64624,3.28707 2.75044,3.42208 l 0.18947,0.24547 h -2.88696 c -1.85162,0 -2.88697,-0.0204 -2.88697,-0.0568 z m 8.33933,-3.33531 c -1.50046,-1.86407 -2.73741,-3.40985 -2.74878,-3.43505 -0.0114,-0.0252 1.25814,-0.0447 2.82111,-0.0434 l 2.84179,0.002 2.6971,3.35504 c 1.48341,1.84527 2.71942,3.39059 2.74669,3.43405 0.0417,0.0664 -0.40458,0.0787 -2.79011,0.0775 l -2.83969,-10e-4 z m 10.95748,-0.0328 -2.74506,-3.41916 1.30266,-0.0156 1.30266,-0.0156 0.0163,-1.88593 0.0163,-1.88593 2.74361,3.40831 2.74361,3.40832 v 1.91527 1.91527 l -1.31755,-0.003 -1.31756,-0.003 z m 6.25663,-2.18163 c -0.10077,-0.0376 -0.13721,-0.088 -0.11661,-0.1614 0.0164,-0.0587 0.005,-0.14768 -0.0247,-0.19773 -0.0333,-0.0555 -0.03,-0.10512 0.008,-0.12722 0.0424,-0.0243 0.0426,-0.0718 6e-4,-0.14474 -0.0715,-0.12447 8.6e-4,-0.19149 0.14942,-0.1384 0.14268,0.051 0.12117,-0.0517 -0.0292,-0.13914 -0.14715,-0.0856 -0.14931,-0.41713 -0.003,-0.46194 0.0637,-0.0195 0.0781,0.0133 0.0551,0.12551 -0.0171,0.0835 -0.007,0.15193 0.0222,0.15193 0.0293,0 0.0534,-0.0909 0.0534,-0.20215 0,-0.16653 -0.0228,-0.20215 -0.12957,-0.20215 -0.0712,0 -0.18073,-0.0585 -0.24326,-0.12996 -0.11126,-0.12715 -0.11081,-0.13063 0.021,-0.16195 0.0777,-0.0184 0.17414,0.004 0.22776,0.0537 0.0822,0.0757 0.0954,0.0738 0.11415,-0.0166 0.0116,-0.0563 -0.0372,-0.14033 -0.1085,-0.18685 -0.0896,-0.0585 -0.12966,-0.14712 -0.12966,-0.28737 0,-0.17648 0.0161,-0.198 0.12401,-0.1661 0.0893,0.0264 0.12401,0.0104 0.12401,-0.0573 0,-0.0517 0.0244,-0.0798 0.0544,-0.0626 0.0704,0.0406 0.0693,1.93258 -10e-4,1.97317 -0.0294,0.0169 -0.0254,0.0796 0.009,0.13931 0.0429,0.0747 0.0413,0.12064 -0.005,0.14741 -0.0487,0.028 -0.0487,0.0565 -1.7e-4,0.10169 0.0767,0.0714 0.091,0.21481 0.0209,0.20929 -0.0255,-0.002 -0.11246,-0.0282 -0.19308,-0.0583 z m 0.11558,-2.13275 c 0,-0.0317 -0.0489,-0.0574 -0.1085,-0.0569 -0.0927,7.5e-4 -0.095,0.009 -0.0155,0.0569 0.11702,0.0704 0.12401,0.0704 0.12401,0 z m -0.12401,-0.57333 c 0,-0.0659 0.0296,-0.11975 0.0657,-0.11975 0.0361,0 0.0484,-0.0259 0.0273,-0.0578 -0.0772,-0.11639 -0.21702,-0.0581 -0.21702,0.0905 0,0.1269 -0.0201,0.14261 -0.1395,0.10901 -0.21295,-0.0599 -0.24282,-0.10783 -0.21874,-0.35077 0.0212,-0.21448 0.0405,-0.20569 0.1415,0.0646 0.0417,0.1114 0.0451,0.11085 0.0975,-0.0157 0.0298,-0.0722 0.10117,-0.14798 0.15845,-0.16846 0.14183,-0.0507 0.34436,0.19031 0.32042,0.38135 -0.0232,0.18534 -0.23559,0.24572 -0.23559,0.067 z m -0.42162,-0.59335 c -0.10538,-0.0981 -0.0922,-0.36478 0.0223,-0.45336 0.1311,-0.10136 0.38088,-0.0142 0.54383,0.18963 0.13103,0.16394 0.10559,0.28122 -0.0371,0.17094 -0.0614,-0.0475 -0.10022,-0.0353 -0.15703,0.0496 -0.085,0.12683 -0.26042,0.14723 -0.37204,0.0433 z m 0.29761,-0.21947 c 0,-0.0318 -0.0714,-0.0578 -0.15866,-0.0578 -0.0899,0 -0.14208,0.025 -0.12035,0.0578 0.0211,0.0317 0.0924,0.0578 0.15867,0.0578 0.0662,0 0.12034,-0.0259 0.12034,-0.0578 z m 0.12401,-0.51982 c 0,-0.0635 0.0334,-0.11551 0.0744,-0.11551 0.057,0 0.0574,-0.0158 0.001,-0.0679 -0.0559,-0.0521 -0.0996,-0.0456 -0.18686,0.0281 -0.0878,0.0741 -0.13072,0.0804 -0.18747,0.0275 -0.0567,-0.0529 -0.0735,-0.0395 -0.0735,0.0586 0,0.0699 -0.0279,0.12706 -0.062,0.12706 -0.0342,0 -0.062,-0.11786 -0.062,-0.26193 0,-0.24674 0.007,-0.25824 0.12797,-0.19815 0.0941,0.0469 0.15053,0.0464 0.21304,-0.002 0.0603,-0.0466 0.12023,-0.0483 0.20575,-0.006 0.22881,0.11406 0.28616,0.52541 0.0733,0.52541 -0.0826,0 -0.12401,-0.0385 -0.12401,-0.11551 z m -3.64313,-4.19754 -2.74409,-3.40889 0.016,-3.5174 0.016,-3.51742 2.50833,3.11885 c 1.37958,1.71536 2.61442,3.23965 2.74408,3.3873 l 0.23577,0.26845 -0.016,3.539 -0.016,3.53899 z m -95.188782,-6.16973 v -9.38543 l 2.557601,0.001 c 4.75046,0.002 6.300713,0.17262 7.368088,0.81064 0.675184,0.4036 1.196869,1.0466 1.446606,1.78302 0.252502,0.74458 0.284167,1.53632 0.284167,7.10533 0,6.12318 -0.02807,6.56775 -0.469393,7.43232 -0.358497,0.70231 -1.083646,1.20111 -2.072708,1.42571 -0.754328,0.17129 -1.81047,0.21232 -5.471716,0.21251 l -3.642645,2e-4 z m 6.076449,5.97074 c 0.524709,-0.27471 0.526813,-0.2997 0.526813,-6.25952 v -5.08258 L 62.720523,140.288 c -0.175184,-0.33127 -0.411723,-0.44729 -1.006587,-0.49374 l -0.432229,-0.0338 v 6.12094 c 0,3.36651 0.02092,6.14099 0.0465,6.16551 0.08253,0.0791 0.765597,-0.0211 1.007748,-0.14789 z m 7.440087,-5.97074 v -9.38543 h 4.216166 4.216167 v 1.87709 1.87708 h -1.674066 -1.674067 v 1.79327 1.79328 l 1.550117,-0.0172 1.550118,-0.0172 -5.6e-5,1.80489 -5.6e-5,1.80489 h -1.550061 -1.550062 v 2.05036 2.05035 h 1.829073 1.829073 v 1.87708 1.87709 h -4.371173 -4.371173 z m 10.168402,-0.007 v -9.39266 l 3.301631,0.0316 c 4.991206,0.0477 5.680637,0.15902 6.677326,1.07898 0.929035,0.85751 1.266626,1.93501 1.267137,4.04434 3.87e-4,1.59705 -0.153214,2.41132 -0.557333,2.95453 -0.291042,0.39122 -0.884968,0.67996 -1.698405,0.8257 l -0.403016,0.0722 0.279011,0.0706 c 0.153456,0.0389 0.505887,0.17191 0.78318,0.29573 0.609803,0.27232 0.996684,0.64163 1.30724,1.24787 0.198004,0.38652 0.215148,0.46783 0.267919,1.27063 0.03101,0.47174 0.05714,2.2157 0.05807,3.87548 l 0.0017,3.01777 H 88.872813 86.51672 l -0.0012,-3.53759 c -0.0012,-3.43788 -0.03357,-4.15861 -0.20134,-4.48184 -0.114871,-0.22132 -0.434127,-0.36517 -0.885318,-0.3989 l -0.400173,-0.03 v 4.22413 4.22413 h -2.5421 -2.542101 z m 5.697128,-2.05122 c 0.786173,-0.12752 0.904944,-0.44018 0.863554,-2.27326 -0.02103,-0.93143 -0.04252,-1.13012 -0.142106,-1.31399 -0.143285,-0.26454 -0.502126,-0.44148 -0.990601,-0.48844 l -0.343774,-0.0331 v 2.08732 c 0,1.91037 0.0088,2.08731 0.103426,2.08731 0.05688,0 0.286159,-0.0297 0.509501,-0.0659 z m 7.509395,2.05122 v -9.39266 l 3.301631,0.0312 c 1.815896,0.0172 3.58064,0.0597 3.92165,0.0944 1.3988,0.14244 2.03136,0.36514 2.67752,0.94265 0.9731,0.86974 1.32091,1.94577 1.32091,4.08645 0,2.67401 -0.4519,3.4385 -2.23136,3.77487 l -0.40302,0.0762 0.24802,0.0744 c 0.46678,0.14006 0.98919,0.36099 1.25216,0.52953 0.3268,0.20945 0.78898,0.80435 0.9684,1.24651 0.13361,0.32928 0.1358,0.38808 0.15431,4.13151 l 0.0187,3.79749 h -2.32836 -2.328371 l -0.0027,-3.27768 c -0.0027,-3.3121 -0.0415,-4.24764 -0.193033,-4.65871 -0.107743,-0.29226 -0.430139,-0.45469 -0.965551,-0.48645 l -0.388775,-0.023 v 4.22295 4.22295 H 95.662 93.150901 Z m 6.03212,-2.14372 c 0.13547,-0.0502 0.272732,-0.15513 0.324289,-0.248 0.146276,-0.26349 0.235768,-1.22294 0.19899,-2.13336 -0.0368,-0.91095 -0.111236,-1.17594 -0.387109,-1.37808 -0.16485,-0.12079 -0.644544,-0.24064 -0.963136,-0.24064 h -0.182955 v 2.0849 2.08491 l 0.387515,-0.0414 c 0.213134,-0.0227 0.493217,-0.0805 0.622406,-0.12834 z m 6.023211,11.31981 c 0.0207,-0.11913 0.1753,-1.23022 0.3434,-2.46909 0.16811,-1.23887 0.34804,-2.55139 0.39985,-2.9167 0.0518,-0.36531 0.24831,-1.79477 0.43668,-3.1766 0.18837,-1.38182 0.43864,-3.21415 0.55616,-4.07183 0.11752,-0.85768 0.34743,-2.54056 0.51092,-3.73973 l 0.29726,-2.18031 h 3.64083 3.64082 l 0.0359,0.18771 c 0.0791,0.41409 2.82187,18.36765 2.82187,18.47148 0,0.10858 -0.071,0.11166 -2.5731,0.11166 -2.40909,0 -2.57313,-0.006 -2.57352,-0.10107 -2.2e-4,-0.0556 -0.0556,-0.77683 -0.12299,-1.60274 -0.0674,-0.82592 -0.12305,-1.53416 -0.1236,-1.57387 -7.6e-4,-0.0544 -0.22268,-0.0722 -0.90005,-0.0722 -0.67837,0 -0.8988,0.0177 -0.89812,0.0722 0.002,0.15576 -0.25741,3.02556 -0.28448,3.14772 l -0.0288,0.12996 h -2.60837 -2.60837 z m 7.14061,-6.64199 c -0.0733,-0.33568 -0.57083,-5.32708 -0.69392,-6.96124 -0.0234,-0.3106 -0.0503,-0.55751 -0.0597,-0.54869 -0.009,0.009 -0.14459,0.96469 -0.3003,2.12415 -0.23831,1.77451 -0.37517,2.92098 -0.62566,5.24139 l -0.0327,0.30322 h 0.8735 0.8735 z m 6.41107,-2.52736 v -9.38593 l 3.26836,0.0149 3.26836,0.0149 0.10859,0.66419 c 0.0597,0.36531 0.20899,1.36595 0.33169,2.22363 0.12269,0.85769 0.36083,2.47566 0.52919,3.59551 0.16837,1.11986 0.30901,2.05551 0.31255,2.07924 0.009,0.062 0.43406,-3.07481 0.79985,-5.90578 0.17239,-1.33417 0.3271,-2.48425 0.34378,-2.55572 l 0.0303,-0.12996 h 3.28496 3.28494 v 9.38616 9.38615 l -2.21659,-0.0152 -2.21658,-0.0151 -0.0309,-6.06283 -0.031,-6.06282 -0.20543,1.50006 c -0.35694,2.60649 -1.25246,9.09285 -1.36332,9.87475 l -0.10646,0.75084 -1.56354,0.0154 -1.56354,0.0154 -0.0288,-0.13095 c -0.0158,-0.072 -0.0594,-0.33885 -0.0968,-0.59299 -0.1201,-0.81689 -0.66363,-4.4693 -1.17751,-7.91262 -0.27495,-1.84244 -0.51122,-3.37587 -0.52501,-3.40763 -0.0138,-0.0318 -0.0272,2.66473 -0.0299,5.99222 l -0.005,6.04999 h -2.20109 -2.20109 z m 17.54669,5.2e-4 v -9.38543 h 4.21617 4.21617 v 1.87617 1.87615 l -1.68956,0.0153 -1.68957,0.0153 v 1.76157 1.76157 h 1.56558 1.56557 l -1e-5,1.80489 -2e-5,1.80489 h -1.58185 -1.58186 l 0.0163,2.03592 0.0163,2.03591 1.84457,0.0153 1.84458,0.0153 v 1.87622 1.87623 h -4.37118 -4.37118 z m 18.32616,9.29465 c -0.0536,-0.0499 -0.0975,-0.11303 -0.0975,-0.14026 0,-0.11627 0.21161,-0.23103 0.42604,-0.23103 0.25163,0 0.37999,0.0812 0.37999,0.24056 0,0.20963 -0.52076,0.30571 -0.7086,0.13073 z m 0.5846,-0.14026 c 0,-0.0318 -0.11161,-0.0578 -0.24802,-0.0578 -0.1364,0 -0.248,0.0259 -0.248,0.0578 0,0.0317 0.1116,0.0578 0.248,0.0578 0.13641,0 0.24802,-0.0259 0.24802,-0.0578 z m -0.58257,-0.41322 c -0.19895,-0.26461 0.23618,-0.50655 0.55789,-0.31019 0.1681,0.10261 0.18623,0.31789 0.0307,0.36564 -0.0626,0.0192 -0.0772,-0.008 -0.0523,-0.0965 0.019,-0.0677 0.009,-0.13774 -0.0216,-0.15554 -0.031,-0.0178 -0.0562,0.0202 -0.0562,0.0845 0,0.10965 -0.16218,0.23646 -0.30242,0.23646 -0.0344,0 -0.10466,-0.056 -0.15614,-0.12444 z m 0.31906,-0.12103 c -0.0142,-0.0397 -0.063,-0.0722 -0.10851,-0.0722 -0.0455,0 -0.0943,0.0324 -0.1085,0.0722 -0.0153,0.043 0.0286,0.0722 0.1085,0.0722 0.0799,0 0.12387,-0.0293 0.10851,-0.0722 z m -0.35812,-0.45039 c -0.0585,-0.10178 -0.025,-0.28025 0.0548,-0.29174 0.53706,-0.0774 0.71955,-0.0108 0.68015,0.24803 -0.018,0.11866 -0.0559,0.13394 -0.34759,0.1406 -0.25753,0.006 -0.34012,-0.0148 -0.3873,-0.0968 z m 0.24961,-0.11273 c 0,-0.0317 -0.028,-0.0578 -0.062,-0.0578 -0.0341,0 -0.062,0.0259 -0.062,0.0578 0,0.0317 0.0279,0.0578 0.062,0.0578 0.0342,0 0.062,-0.0259 0.062,-0.0578 z m 0.37202,0 c 0,-0.0317 -0.0419,-0.0578 -0.0931,-0.0578 -0.0512,0 -0.093,0.0259 -0.093,0.0578 0,0.0317 0.0419,0.0578 0.093,0.0578 0.0512,0 0.0931,-0.0259 0.0931,-0.0578 z m -0.21063,-0.33691 c -0.0175,-0.0264 -0.11293,-0.0371 -0.21192,-0.0235 -0.14161,0.0193 -0.18709,-6e-4 -0.21319,-0.0936 -0.0552,-0.19673 0.0774,-0.28402 0.41872,-0.27559 0.2736,0.007 0.3124,0.0233 0.33028,0.14078 0.0319,0.20987 -0.22116,0.40673 -0.32389,0.25191 z m -0.16139,-0.1829 c 0,-0.0317 -0.028,-0.0578 -0.062,-0.0578 -0.0341,0 -0.062,0.0259 -0.062,0.0578 0,0.0318 0.0279,0.0578 0.062,0.0578 0.0342,0 0.062,-0.0259 0.062,-0.0578 z m 0.37202,0.003 c 0,-0.078 -0.11303,-0.13206 -0.18702,-0.0894 -0.0346,0.0199 -0.047,0.0605 -0.0273,0.09 0.0466,0.0701 0.21436,0.0697 0.21436,-5.8e-4 z m -0.61589,-0.45826 c -0.079,-0.13749 -0.0256,-0.29598 0.0997,-0.29598 0.0623,0 0.0783,0.036 0.0512,0.11551 -0.054,0.15835 0.0491,0.14643 0.1248,-0.0144 0.0744,-0.1579 0.32717,-0.17504 0.42614,-0.0289 0.11581,0.17101 -0.0265,0.3007 -0.35187,0.32068 -0.23134,0.0142 -0.29647,-0.004 -0.34994,-0.0968 z m 0.61589,-0.12272 c 0,-0.0317 -0.0558,-0.0578 -0.12401,-0.0578 -0.0682,0 -0.12401,0.0259 -0.12401,0.0578 0,0.0318 0.0558,0.0578 0.12401,0.0578 0.0682,0 0.12401,-0.0259 0.12401,-0.0578 z m -0.44952,-0.33593 c -0.14909,-0.016 -0.1705,-0.0432 -0.1705,-0.21658 0,-0.10908 0.0279,-0.19832 0.062,-0.19832 0.0341,0 0.062,0.065 0.062,0.14439 0,0.0794 0.0325,0.1444 0.0723,0.1444 0.0398,0 0.0547,-0.0164 0.0332,-0.0365 -0.0888,-0.0828 0.0908,-0.25231 0.26749,-0.25231 0.14337,0 0.19106,0.0312 0.22175,0.14514 0.0472,0.17522 -0.0819,0.35568 -0.1855,0.2592 -0.0483,-0.045 -0.0413,-0.0775 0.0247,-0.11555 0.0732,-0.0422 0.0763,-0.0675 0.015,-0.12467 -0.09,-0.0839 -0.18036,-0.0183 -0.21123,0.15355 -0.0159,0.0885 -0.0606,0.11123 -0.19126,0.0973 z m -104.947647,-3.87157 -2.736085,-3.39893 0.01599,-3.51581 0.01599,-3.51582 2.743608,3.40285 2.74361,3.40285 v 3.51189 c 0,1.93154 -0.01058,3.51189 -0.02351,3.51189 -0.01293,0 -1.254746,-1.52952 -2.759593,-3.39892 z m 105.186537,3.35085 c -0.0175,-0.0264 -0.11287,-0.0371 -0.21182,-0.0235 -0.2107,0.0288 -0.29778,-0.10047 -0.19187,-0.28482 0.0469,-0.0815 0.11145,-0.10922 0.21278,-0.0911 0.08,0.0142 0.18069,0.006 0.22368,-0.0191 0.11943,-0.0687 0.30186,0.0505 0.30186,0.19732 0,0.20358 -0.24075,0.36279 -0.33463,0.22131 z m -0.16139,-0.1795 c 0,-0.0299 -0.028,-0.0704 -0.062,-0.09 -0.0341,-0.0196 -0.062,0.005 -0.062,0.0544 0,0.0496 0.0279,0.09 0.062,0.09 0.0342,0 0.062,-0.0244 0.062,-0.0544 z m 0.33836,5.8e-4 c 0.0459,-0.0691 -0.0708,-0.13759 -0.15336,-0.09 -0.0693,0.04 -0.0238,0.14381 0.063,0.14381 0.0301,0 0.0707,-0.0242 0.0903,-0.0538 z m -0.58797,-0.46882 c -0.0587,-0.1021 -0.0243,-0.28315 0.0548,-0.28891 0.0219,-0.002 0.15702,-0.0123 0.30021,-0.0239 0.29372,-0.0237 0.41178,0.0599 0.37994,0.2691 -0.018,0.11867 -0.0559,0.13394 -0.34759,0.1406 -0.25753,0.006 -0.34012,-0.0148 -0.3873,-0.0969 z m 0.59317,-0.0588 c 0.0571,-0.086 -0.009,-0.13277 -0.12781,-0.0904 -0.0548,0.0196 -0.0822,0.0618 -0.061,0.0937 0.0503,0.0757 0.13735,0.0741 0.18883,-0.003 z m -0.34356,-0.0539 c 0,-0.0318 -0.028,-0.0578 -0.062,-0.0578 -0.0341,0 -0.062,0.0259 -0.062,0.0578 0,0.0317 0.0279,0.0578 0.062,0.0578 0.0342,0 0.062,-0.0259 0.062,-0.0578 z m -0.10921,-0.32726 c -0.13959,-0.0524 -0.2176,-0.24849 -0.13551,-0.34064 0.11495,-0.12901 0.1891,-0.0979 0.14618,0.0615 -0.0228,0.0846 -0.0122,0.14439 0.0255,0.14439 0.0355,0 0.0733,-0.0585 0.0842,-0.12996 0.0151,-0.0993 0.0669,-0.13419 0.21919,-0.1479 0.17221,-0.0155 0.20515,0.003 0.24166,0.13894 0.0315,0.11686 0.0132,0.1767 -0.0717,0.23454 -0.11291,0.0769 -0.35865,0.0959 -0.50952,0.0392 z m 0.438,-0.22064 c 0.007,-0.0314 -0.0366,-0.0657 -0.0962,-0.0764 -0.0679,-0.0122 -0.10851,0.0161 -0.10851,0.0756 0,0.10048 0.18325,0.10119 0.20479,7.9e-4 z m -0.39079,-0.30016 c -0.29433,-0.1 -0.26213,-0.38514 0.0507,-0.44916 0.26553,-0.0543 0.50731,0.0524 0.50731,0.22389 0,0.0783 -0.0209,0.15388 -0.0465,0.16791 -0.0937,0.0514 -0.42111,0.088 -0.51152,0.0574 z m 0.40302,-0.22043 c 0,-0.0686 -0.24914,-0.10968 -0.38045,-0.0627 -0.0509,0.0181 -0.0741,0.0607 -0.0517,0.0944 0.0504,0.0759 0.43214,0.0479 0.43214,-0.0318 z m -3.73613,-11.74973 -2.74409,-3.41108 0.016,-3.51607 0.016,-3.51607 2.74408,3.40775 2.74409,3.40774 -0.0159,3.51941 -0.016,3.51939 z m -101.628745,-3.40298 -2.73641,-3.39927 v -3.54118 -3.54117 l 2.759109,3.42697 2.75911,3.42698 v 3.51347 c 0,1.93241 -0.01022,3.51346 -0.0227,3.51346 -0.01248,0 -1.254084,-1.52966 -2.759109,-3.39926 z m 11.958171,-13.89878 c 0,-5.13021 -0.007,-9.34715 -0.0155,-9.37098 -0.0085,-0.0238 1.121256,-0.0501 2.510627,-0.0584 l 2.526126,-0.0151 0.01598,3.56449 0.01598,3.56448 1.092118,-3.5494 1.092119,-3.54939 2.364518,-0.0151 c 1.300485,-0.008 2.364519,0.003 2.364519,0.0248 0,0.022 -0.151572,0.48364 -0.336826,1.02587 -1.151464,3.3703 -2.392286,7.02623 -2.45167,7.22357 -0.06571,0.21835 0.01245,0.49715 1.424814,5.08257 0.821888,2.66835 1.53328,4.97527 1.580874,5.1265 l 0.08654,0.27497 -2.612615,-0.015 -2.612617,-0.015 -0.16715,-0.63532 c -0.09194,-0.34942 -0.521689,-2.0388 -0.955015,-3.75417 -0.433327,-1.71536 -0.810716,-3.19681 -0.838643,-3.29211 -0.02792,-0.0953 -0.05329,1.60057 -0.05637,3.76861 l -0.0056,3.94188 h -2.511085 -2.5111 z m 13.082518,-0.0578 v -9.38542 h 2.542101 2.542101 v 9.38542 9.38543 h -2.542101 -2.542101 z m 9.176364,1.87709 v -7.50835 h -1.488059 -1.488058 v -1.87708 -1.87709 h 5.518218 5.518219 v 1.87709 1.87708 H 90.608869 89.12081 v 7.50834 7.50834 h -2.542101 -2.542101 z m 12.363882,7.3495 c 0.03549,-0.1599 0.121611,-0.78151 1.03031,-7.43614 0.273275,-2.00126 0.578822,-4.23643 0.678994,-4.96705 0.100172,-0.73062 0.323618,-2.36802 0.496548,-3.63865 0.17293,-1.27065 0.328155,-2.36895 0.344943,-2.44068 l 0.03053,-0.13041 3.639195,0.0149 3.63921,0.0149 1.40769,9.18327 c 0.77423,5.0508 1.42213,9.26774 1.43979,9.37099 l 0.0322,0.18771 h -2.58824 -2.58824 l -0.10932,-1.45836 c -0.0601,-0.80209 -0.12488,-1.55581 -0.14389,-1.67494 l -0.0346,-0.21658 h -0.88047 -0.88049 l -0.14526,1.67493 -0.14527,1.67495 h -2.62939 -2.629402 z m 7.14217,-6.7575 c -0.0566,-0.34436 -0.33,-3.00736 -0.49952,-4.86598 -0.0854,-0.9371 -0.1749,-1.91174 -0.19872,-2.16587 l -0.0433,-0.46205 -0.14107,1.01074 c -0.42822,3.06844 -0.84022,6.61204 -0.77571,6.67212 0.0163,0.0152 0.40412,0.0276 0.8618,0.0276 h 0.83215 z m 6.41097,-2.46909 v -9.38542 l 2.12359,9.9e-4 2.12358,0.001 1.35783,4.08527 c 0.74681,2.24689 1.38042,4.12425 1.40804,4.1719 0.0289,0.0498 0.0479,-0.10981 0.0448,-0.37542 -0.003,-0.25413 -0.002,-2.13193 0.003,-4.1729 l 0.008,-3.71085 h 2.10809 2.10808 v 9.38542 9.38543 h -2.22429 -2.22429 l -0.31206,-1.02519 c -0.94007,-3.08826 -2.25236,-7.31726 -2.27803,-7.34118 -0.0163,-0.0151 -0.0297,1.86106 -0.0297,4.1694 v 4.19697 h -2.10808 -2.10809 z m 15.37662,1.87709 v -7.50834 h -1.48806 -1.48806 v -1.87708 -1.87709 h 5.51821 5.51823 v 1.87709 1.87708 h -1.48807 -1.48806 v 7.50834 7.50834 h -2.5421 -2.54209 z m 9.17635,-1.87774 v -9.38607 l 2.52661,0.0151 c 1.38963,0.008 2.51962,0.0345 2.5111,0.0584 -0.009,0.0238 -0.0155,4.24077 -0.0155,9.37098 v 9.32767 h -2.5111 -2.5111 z m 16.9417,3.72574 -2.74408,-3.40833 0.016,-3.52294 0.016,-3.52294 2.74409,3.40833 2.74408,3.40833 -0.0159,3.52293 -0.016,3.52295 z m -101.62221,-3.40788 -2.743897,-3.40808 0.01598,-3.52165 0.01597,-3.52165 2.743608,3.40971 2.74361,3.40972 v 3.52002 c 0,1.93601 -0.007,3.52001 -0.01568,3.52001 -0.0086,0 -1.250442,-1.53363 -2.759586,-3.40808 z m 98.97208,-13.52905 c -2.96681,-3.68251 -5.40351,-6.71918 -5.41488,-6.74812 -0.0122,-0.0312 1.13478,-0.0508 2.82111,-0.048 l 2.84178,0.005 2.58908,3.22916 2.58908,3.22915 -0.0159,3.51431 -0.016,3.51431 z M 49.826753,107.76683 47.083145,104.363 v -1.64133 -1.64135 l 1.534561,0.002 1.53456,0.002 2.728109,3.38799 c 1.500459,1.86339 2.737408,3.4088 2.748775,3.43423 0.01137,0.0254 -0.6648,0.0463 -1.502594,0.0463 h -1.523261 l -0.01647,1.60866 -0.01647,1.60866 z m 11.067861,0.0854 c -0.09825,-0.10311 -5.046585,-6.2428 -5.306619,-6.58423 l -0.142963,-0.18771 h 2.842205 2.842203 l 2.726739,3.38601 c 1.499706,1.8623 2.736039,3.40873 2.747406,3.4365 0.01161,0.0284 -1.21331,0.0505 -2.796002,0.0505 -2.604521,0 -2.823922,-0.008 -2.912969,-0.10108 z m 8.354192,-3.2517 c -1.486748,-1.84403 -2.7187,-3.39046 -2.737669,-3.4365 -0.02982,-0.0724 0.351919,-0.0837 2.817622,-0.0837 2.409286,0 2.857369,0.0127 2.885967,0.0821 0.01862,0.0452 1.235302,1.57433 2.70374,3.39806 1.468437,1.82373 2.669887,3.33317 2.669887,3.35432 0,0.0211 -1.268182,0.0385 -2.818184,0.0385 h -2.818184 z m 10.951144,-0.0456 c -1.504581,-1.86907 -2.735603,-3.4155 -2.735603,-3.43651 0,-0.021 1.276476,-0.0361 2.836613,-0.0333 l 2.836613,0.005 2.692243,3.3595 c 1.480735,1.84773 2.703732,3.39199 2.717775,3.4317 0.02017,0.0571 -0.565945,0.0722 -2.793254,0.0722 h -2.818785 z m 13.720101,3.35412 c -0.0772,-0.0482 -5.481269,-6.75038 -5.481269,-6.79793 0,-0.017 1.276476,-0.0289 2.836613,-0.0265 l 2.836612,0.004 2.697107,3.35912 c 1.483408,1.84752 2.706128,3.39198 2.717153,3.43214 0.01593,0.0581 -0.549699,0.0728 -2.759109,0.0721 -1.528535,-4.9e-4 -2.809734,-0.02 -2.847107,-0.0434 z m 10.905999,-0.0857 c -0.15663,-0.16027 -5.412833,-6.68433 -5.412833,-6.71849 0,-0.0135 1.276473,-0.0239 2.836603,-0.0232 l 2.83662,0.001 2.72811,3.38872 c 1.50046,1.86379 2.73741,3.40963 2.74878,3.43519 0.0114,0.0255 -1.2463,0.0465 -2.79481,0.0465 h -2.81547 z m 10.97653,0 c -0.11674,-0.12144 -4.96893,-6.14476 -5.2808,-6.55536 l -0.14257,-0.18771 h 2.84209 2.84208 l 2.72686,3.38538 c 1.49977,1.86196 2.73615,3.40839 2.74752,3.43651 0.0118,0.0293 -1.18668,0.0512 -2.7948,0.0512 h -2.81547 z m 8.37748,-3.22381 c -1.48558,-1.84457 -2.7164,-3.391 -2.73515,-3.4365 -0.0292,-0.0711 0.36788,-0.0827 2.81802,-0.0827 2.40929,0 2.85737,0.0127 2.88597,0.0821 0.0186,0.0452 1.2353,1.57433 2.70374,3.39806 1.46844,1.82373 2.66989,3.33317 2.66989,3.35432 0,0.0211 -1.26932,0.0385 -2.8207,0.0385 h -2.8207 z m 10.95407,-0.0446 c -1.50458,-1.86907 -2.73561,-3.4155 -2.73561,-3.4365 0,-0.021 1.27674,-0.0382 2.8372,-0.0382 h 2.8372 l 0.0863,0.12996 c 0.0475,0.0715 1.25533,1.58013 2.68409,3.35257 1.42875,1.77245 2.61329,3.2604 2.63231,3.30656 0.0299,0.0726 -0.34461,0.0839 -2.78568,0.0839 h -2.82026 z"
       id="path1" /></g></svg>
