<?xml version="1.0" encoding="UTF-8" standalone="no"?>
<!-- Created with Inkscape (http://www.inkscape.org/) -->

<svg
   width="210mm"
   height="297mm"
   viewBox="0 0 210 297"
   version="1.1"
   id="svg1"
   xml:space="preserve"
   inkscape:version="1.3.2 (091e20e, 2023-11-25, custom)"
   sodipodi:docname="imagen 5 kit antiderrame.svg"
   xmlns:inkscape="http://www.inkscape.org/namespaces/inkscape"
   xmlns:sodipodi="http://sodipodi.sourceforge.net/DTD/sodipodi-0.dtd"
   xmlns="http://www.w3.org/2000/svg"
   xmlns:svg="http://www.w3.org/2000/svg"><sodipodi:namedview
     id="namedview1"
     pagecolor="#ffffff"
     bordercolor="#000000"
     borderopacity="0.25"
     inkscape:showpageshadow="2"
     inkscape:pageopacity="0.0"
     inkscape:pagecheckerboard="0"
     inkscape:deskcolor="#d1d1d1"
     inkscape:document-units="mm"
     inkscape:zoom="22.627417"
     inkscape:cx="398.58725"
     inkscape:cy="561.64166"
     inkscape:window-width="1920"
     inkscape:window-height="1017"
     inkscape:window-x="-8"
     inkscape:window-y="-8"
     inkscape:window-maximized="1"
     inkscape:current-layer="svg1" /><defs
     id="defs1" /><g
     inkscape:label="Capa 1"
     inkscape:groupmode="layer"
     id="layer1"
     style="display:inline"><path
       style="display:inline;fill:#ffff00;stroke-width:0.1"
       d="m 100.92935,145.83206 h 8.00381 v 5.29065 h -8.04903 z"
       id="path1" /><path
       style="display:inline;fill:#000000;stroke-width:0.113155"
       d="m 102.52491,150.97721 h -0.5045 l -0.99033,-0.9283 v -0.44663 z"
       id="path5-9" /><path
       style="fill:#000000;stroke-width:0.113155"
       d="m 107.27557,145.94913 h 0.5045 l 0.99033,0.92829 v 0.44663 z"
       id="path5" /><path
       style="fill:none;stroke-width:0.1;stroke:#000000;stroke-opacity:1;stroke-dasharray:none"
       d="m 101.03248,149.60226 v -3.64514 h 7.73791 v 4.99607 l -7.7379,0.008 z"
       id="path6"
       sodipodi:nodetypes="cccccc" /><path
       style="fill:#000000;stroke:#000000;stroke-width:0.1;stroke-dasharray:none;stroke-opacity:1"
       d="m 101.08844,146.30885 v -0.31176 h 0.27179 l 4.90813,4.90814 h -0.47163 -0.1199 z"
       id="path7" /><path
       style="fill:#000000;stroke:#000000;stroke-width:0.1;stroke-dasharray:none;stroke-opacity:1"
       d="m 101.12001,146.97176 3.88495,3.88494 h -0.53558 l -3.35336,-3.35336 z"
       id="path8" /><path
       style="fill:#000000;stroke:#000000;stroke-width:0.1;stroke-dasharray:none;stroke-opacity:1"
       d="m 103.93365,150.86398 -2.79833,-2.74567 0.003,0.46363 2.44845,2.30492 z"
       id="path9"
       sodipodi:nodetypes="ccccc" /><path
       style="fill:#000000;stroke:#000000;stroke-width:0.1;stroke-dasharray:none;stroke-opacity:1"
       d="m 101.08044,149.09865 0.0113,0.23691 1.66578,1.59793 0.26226,-0.0226 -1.95064,-1.93932 z"
       id="path10"
       sodipodi:nodetypes="cccccc" /><path
       style="fill:#000000;stroke:#000000;stroke-width:0.1;stroke-dasharray:none;stroke-opacity:1"
       d="m 101.91853,146.00729 h 0.41827 l 4.90237,4.90237 h -0.53915 l -4.8928,-4.89281 z"
       id="path11" /><path
       style="fill:#000000;stroke:#000000;stroke-width:0.1;stroke-dasharray:none;stroke-opacity:1"
       d="m 107.47541,150.89724 h 0.46364 l -4.90015,-4.90015 h -0.3757 z"
       id="path12" /><path
       style="fill:#000000;stroke:#000000;stroke-width:0.1;stroke-dasharray:none;stroke-opacity:1"
       d="m 108.33873,150.90523 h 0.39169 v -0.35172 l -4.54842,-4.54842 h -0.58354 -0.17586 z"
       id="path13" /><path
       style="fill:#000000;stroke:#000000;stroke-width:0.1;stroke-dasharray:none;stroke-opacity:1"
       d="m 108.71444,150.08987 v -0.35172 l -3.73706,-3.73706 h -0.33973 z"
       id="path14" /><path
       style="fill:#000000;stroke:#000000;stroke-width:0.1;stroke-dasharray:none;stroke-opacity:1"
       d="m 108.71444,149.36244 v -0.33573 l -3.02562,-3.02562 h -0.35572 z"
       id="path15" /><path
       style="fill:#000000;stroke:#000000;stroke-width:0.1;stroke-dasharray:none;stroke-opacity:1"
       d="m 108.71444,148.59505 v -0.30376 l -2.2902,-2.2902 h -0.38769 l 2.68388,2.68389 z"
       id="path16" /><path
       style="fill:#000000;stroke:#000000;stroke-width:0.1;stroke-dasharray:none;stroke-opacity:1"
       d="m 108.70644,147.92358 v -0.34373 l -1.58675,-1.58675 h -0.37171 l 1.96046,1.96045 z"
       id="path17" /><path
       style="fill:#ffff00;stroke:none;stroke-width:0.1;stroke-dasharray:none;stroke-opacity:1;fill-opacity:1"
       d="m 101.64,146.52468 v 3.63714 h 6.33902 v -3.57319 h -6.355 z"
       id="path18" /><path
       style="display:inline;fill:#000000;fill-opacity:1;stroke:none;stroke-width:0.01;stroke-dasharray:none;stroke-opacity:1"
       d="m 104.40293,148.49473 v 1.30697 h 0.19185 v -0.53158 l 0.0649,0.004 c 0.0202,0.002 0.0359,0.0141 0.0349,0.0637 l 0.006,0.45963 0.22183,0.004 -0.002,-0.58353 c -0.033,-0.0561 -0.0867,-0.0961 -0.1677,-0.11487 0.0547,-0.0129 0.10995,-0.0238 0.15434,-0.0833 0.0111,-0.1349 0.0261,-0.26781 -0.004,-0.4233 -0.0146,-0.0506 -0.0265,-0.10007 -0.0992,-0.10319 z"
       id="path30-8"
       sodipodi:nodetypes="cccccccccccccc" /><path
       style="display:inline;fill:#000000;fill-opacity:1;stroke:none;stroke-width:0.1;stroke-dasharray:none;stroke-opacity:1"
       d="m 102.28056,146.90976 -3.5e-4,1.1013 0.17495,0.003 V 147.616 l 0.32127,0.40058 h 0.24397 l -0.44193,-0.52894 0.44629,-0.57317 -0.19259,-0.004 -0.36842,0.40685 0.007,-0.41112 z"
       id="path19"
       sodipodi:nodetypes="cccccccccccc" /><path
       style="fill:#000000;fill-opacity:1;stroke:none;stroke-width:0.01;stroke-dasharray:none;stroke-opacity:1"
       d="m 103.11085,146.91237 v 1.10713 h 0.17985 v -1.10313 z"
       id="path22" /><path
       style="display:inline;fill:#000000;fill-opacity:1;stroke:none;stroke-width:0.01;stroke-dasharray:none;stroke-opacity:1"
       d="m 106.60447,146.90593 v 1.10713 h 0.17985 v -1.10313 z"
       id="path22-6" /><path
       style="fill:#000000;fill-opacity:1;stroke:none;stroke-width:0.01;stroke-dasharray:none;stroke-opacity:1"
       d="m 103.39462,146.90838 v 0.15987 h 0.16387 v 0.94726 h 0.17187 v -0.94726 h 0.16387 v -0.15588 z"
       id="path23" /><path
       style="display:inline;fill:#000000;fill-opacity:1;stroke:none;stroke-width:0.01;stroke-dasharray:none;stroke-opacity:1"
       d="m 106.0029,146.90593 v 0.15987 h 0.16387 v 0.94726 h 0.17187 v -0.94726 h 0.16387 v -0.15588 z"
       id="path23-1" /><path
       style="fill:#000000;fill-opacity:1;stroke:none;stroke-width:0.01;stroke-dasharray:none;stroke-opacity:1"
       d="m 104.46776,148.00824 h 0.24305 l 0.06,-0.22405 h 0.23389 l 0.0634,0.23655 h 0.2588 l -0.29743,-1.11005 h -0.21693 z"
       id="path24" /><path
       style="display:inline;fill:#000000;fill-opacity:1;stroke:none;stroke-width:0.0108399;stroke-dasharray:none;stroke-opacity:1"
       d="m 104.99824,149.79532 h 0.24305 l 0.06,-0.26327 h 0.23389 l 0.0634,0.27796 h 0.2588 l -0.29743,-1.30435 h -0.21693 z"
       id="path24-3" /><path
       style="fill:#ffff00;fill-opacity:1;stroke:none;stroke-width:0.01;stroke-dasharray:none;stroke-opacity:1"
       d="m 104.81538,147.60127 h 0.16675 l -0.0593,-0.31654 z"
       id="path25" /><path
       style="display:inline;fill:#ffff00;fill-opacity:1;stroke:none;stroke-width:0.01;stroke-dasharray:none;stroke-opacity:1"
       d="m 105.35378,149.26042 h 0.16675 l -0.0593,-0.31654 z"
       id="path25-9" /><path
       style="fill:#000000;fill-opacity:1;stroke:none;stroke-width:0.00845153;stroke-dasharray:none;stroke-opacity:1"
       d="m 105.35802,148.02237 v -1.10505 l 0.13812,-0.008 0.2925,0.76269 -0.008,-0.75421 h 0.14313 v 1.1107 l -0.12316,-0.008 -0.30549,-0.81199 0.006,0.81199 z"
       id="path26"
       inkscape:transform-center-y="-0.016957217"
       inkscape:transform-center-x="-1.8112416e-05"
       sodipodi:nodetypes="ccccccccccc" /><path
       style="fill:#000000;fill-opacity:1;stroke:none;stroke-width:0.00966487;stroke-dasharray:none;stroke-opacity:1"
       d="m 102.28028,148.49435 v 1.3057 l 0.28154,0.004 c 0.0767,-0.014 0.26074,0.0209 0.30035,-0.13195 v -0.99123 c 0.003,-0.0985 -0.0946,-0.21218 -0.25756,-0.19579 z"
       id="path27"
       sodipodi:nodetypes="ccccccc" /><path
       style="fill:#ffff00;fill-opacity:1;stroke:none;stroke-width:0.01;stroke-dasharray:none;stroke-opacity:1"
       d="m 102.52731,148.58705 h 0.06 l 0.024,0.048 v 1.0192 l -0.02,0.04 h -0.036 -0.032 z"
       id="path28" /><path
       style="display:inline;fill:#000000;fill-opacity:1;stroke:none;stroke-width:0.00952579;stroke-dasharray:none;stroke-opacity:1"
       d="m 106.92474,148.49741 v 1.3057 l 0.55966,-0.008 9.2e-4,-0.23825 -0.40045,0.003 -0.004,-0.31911 h 0.1516 v -0.30804 h -0.14361 l 0.004,-0.21757 0.3886,0.003 -0.003,-0.22092 z"
       id="path29-1"
       sodipodi:nodetypes="ccccccccccccc" /><path
       style="display:inline;fill:#000000;fill-opacity:1;stroke:none;stroke-width:0.00952579;stroke-dasharray:none;stroke-opacity:1"
       d="m 102.99308,148.50744 v 1.3057 l 0.55966,-0.008 9.2e-4,-0.23825 -0.40045,0.003 -0.004,-0.31911 h 0.1516 v -0.30804 h -0.14361 l 0.004,-0.21757 0.3886,0.003 -0.003,-0.22092 z"
       id="path29-1-3"
       sodipodi:nodetypes="ccccccccccccc" /><path
       style="fill:#000000;fill-opacity:1;stroke:none;stroke-width:0.01;stroke-dasharray:none;stroke-opacity:1"
       d="m 103.70638,148.49912 v 1.30697 h 0.19185 v -0.53158 l 0.0649,0.004 c 0.0202,0.002 0.0359,0.0141 0.0349,0.0637 l 0.006,0.45963 0.22183,0.004 -0.002,-0.58353 c -0.033,-0.0561 -0.0867,-0.0961 -0.1677,-0.11487 0.0547,-0.0129 0.10995,-0.0238 0.15434,-0.0833 0.0111,-0.1349 0.0261,-0.26781 -0.004,-0.4233 -0.0146,-0.0506 -0.0265,-0.10007 -0.0992,-0.10319 z"
       id="path30"
       sodipodi:nodetypes="cccccccccccccc" /><path
       style="fill:#ffff00;fill-opacity:1;stroke:none;stroke-width:0.01;stroke-dasharray:none;stroke-opacity:1"
       d="m 103.88823,148.63805 v 0.30176 c 0.0275,-0.004 0.0747,-0.0123 0.0836,-0.0455 l -0.003,-0.2246 c -0.01,-0.0188 -0.046,-0.0377 -0.0807,-0.0317 z"
       id="path31"
       sodipodi:nodetypes="cccccc" /><path
       style="display:inline;fill:#ffff00;fill-opacity:1;stroke:none;stroke-width:0.01;stroke-dasharray:none;stroke-opacity:1"
       d="m 104.61387,148.64326 v 0.30176 c 0.0275,-0.004 0.0747,-0.0123 0.0836,-0.0455 l -0.003,-0.2246 c -0.01,-0.0188 -0.046,-0.0377 -0.0807,-0.0317 z"
       id="path31-2"
       sodipodi:nodetypes="cccccc" /><path
       style="fill:#000000;fill-opacity:1;stroke:none;stroke-width:0.01;stroke-dasharray:none;stroke-opacity:1"
       d="m 105.93668,149.79137 h 0.17777 v -0.84336 l 0.226,0.84343 h 0.13367 l 0.21445,-0.86387 0.003,0.86794 h 0.14643 v -1.30638 h -0.27285 l -0.15197,0.56715 -0.15164,-0.56593 h -0.31651 z"
       id="path32"
       sodipodi:nodetypes="cccccccccccccc" /></g></svg>
