<?xml version="1.0" encoding="UTF-8" standalone="no"?>
<svg
   width="50"
   height="50"
   viewBox="0 0 50 50"
   fill="none"
   version="1.1"
   id="svg6"
   sodipodi:docname="LavaOjo.svg"
   inkscape:version="1.3.2 (091e20e, 2023-11-25)"
   xmlns:inkscape="http://www.inkscape.org/namespaces/inkscape"
   xmlns:sodipodi="http://sodipodi.sourceforge.net/DTD/sodipodi-0.dtd"
   xmlns="http://www.w3.org/2000/svg"
   xmlns:svg="http://www.w3.org/2000/svg">
  <sodipodi:namedview
     id="namedview6"
     pagecolor="#ffffff"
     bordercolor="#000000"
     borderopacity="0.25"
     inkscape:showpageshadow="2"
     inkscape:pageopacity="0.0"
     inkscape:pagecheckerboard="0"
     inkscape:deskcolor="#d1d1d1"
     inkscape:zoom="6.9916667"
     inkscape:cx="49.344457"
     inkscape:cy="22.240763"
     inkscape:window-width="1680"
     inkscape:window-height="1022"
     inkscape:window-x="0"
     inkscape:window-y="28"
     inkscape:window-maximized="0"
     inkscape:current-layer="svg6" />
  <g
     clip-path="url(#clip0_13_3883)"
     id="g6"
     transform="matrix(0.8784267,0,0,0.65435042,-1.430274,-1.1442193)"
     style="stroke-width:1.1805">
    <path
       d="M 60,0 H 0 v 60 h 60 z"
       fill="#ffffff"
       id="path1"
       style="stroke-width:1.1805" />
    <path
       d="m 58.5,1.5 h -57 v 57 h 57 z"
       fill="#008855"
       id="path2"
       style="stroke-width:1.1805" />
    <path
       d="M 22.7131,7.407 C 22.5472,7.4068 22.383,7.40943 22.2163,7.41638 17.0748,7.53127 12.3864,10.9517 9.49438,15.5726 14.2502,23.5758 25.3052,25.6492 31.9569,19.3695 33.3386,18.2888 34.5272,16.9751 35.4913,15.4132 32.5968,10.8177 27.8564,7.41242 22.7137,7.40625 Z m 5.025,3.6375 c 1.6868,1.0504 3.1618,2.5605 4.2657,4.3125 -0.7055,1.1429 -1.5764,2.1154 -2.5875,2.9062 -4.8675,4.5953 -12.9543,3.0721 -16.4344,-2.7843 1.0992,-1.7563 2.548,-3.2741 4.218,-4.341 -0.4229,0.8562 -0.6319,1.8023 -0.609,2.757 -0.036,0.7973 0.09,1.5936 0.3703,2.3409 0.2804,0.7473 0.7092,1.43 1.2607,2.0069 0.5515,0.577 1.2142,1.0362 1.9481,1.3499 0.7339,0.3137 1.5238,0.4754 2.3219,0.4754 0.7981,0 1.588,-0.1617 2.3219,-0.4754 0.7338,-0.3137 1.3965,-0.7729 1.948,-1.3499 0.5515,-0.5769 0.9804,-1.2596 1.2607,-2.0069 0.2804,-0.7473 0.4064,-1.5436 0.3704,-2.3409 0.0234,-0.9901 -0.2026,-1.9701 -0.657,-2.85 z m -5.436,0.114 c 0.3795,-0.027 0.7604,0.0245 1.119,0.1514 0.3586,0.1268 0.6872,0.3263 0.9652,0.5859 0.278,0.2595 0.4995,0.5737 0.6507,0.9228 0.1511,0.349 0.2286,0.7255 0.2276,1.1059 0,0.7336 -0.2914,1.4371 -0.8101,1.9559 -0.5187,0.5187 -1.2223,0.8101 -1.9559,0.8101 -0.7336,0 -1.4371,-0.2914 -1.9558,-0.8101 -0.5187,-0.5188 -0.8102,-1.2223 -0.8102,-1.9559 -0.0018,-0.7005 0.2623,-1.3757 0.739,-1.8891 0.4766,-0.5133 1.1303,-0.8268 1.829,-0.8769 z"
       fill="#ffffff"
       id="path3"
       style="stroke-width:1.1805" />
    <path
       d="m 44.0072,16.1878 v 5.067 h 4.965 v -5.067 h 4.965 v -4.965 h -4.965 V 6.25781 h -4.965 v 4.96499 h -5.067 v 4.965 z"
       fill="#ffffff"
       id="path4"
       style="stroke-width:1.1805" />
    <path
       d="m 31.587,40.104 c 0,2.316 -1.626,4.239 -3.069,4.239 -1.443,0 -3.882,0.342 -3.882,2.5425 v 6.795 h -4.242 v -6.795 c 0,-2.169 -2.829,-2.544 -4.422,-2.544 -1.596,0 -2.619,-1.824 -2.619,-4.239 z"
       fill="#ffffff"
       id="path5"
       style="stroke-width:1.1805" />
    <path
       d="m 8.04309,20.1269 c 0,0.2092 -0.08313,0.4099 -0.2311,0.5579 -0.14796,0.148 -0.34865,0.2311 -0.5579,0.2311 -0.20926,0 -0.40994,-0.0831 -0.55791,-0.2311 -0.14797,-0.148 -0.23109,-0.3487 -0.23109,-0.5579 0,-0.2093 0.08312,-0.41 0.23109,-0.5579 0.14797,-0.148 0.34865,-0.2311 0.55791,-0.2311 0.20925,0 0.40994,0.0831 0.5579,0.2311 0.14797,0.1479 0.2311,0.3486 0.2311,0.5579 z m 3.06901,3.675 c 0,0.2092 -0.0831,0.4099 -0.2311,0.5579 -0.148,0.148 -0.3487,0.2311 -0.5579,0.2311 -0.2093,0 -0.40995,-0.0831 -0.55792,-0.2311 -0.14797,-0.148 -0.23109,-0.3487 -0.23109,-0.5579 0,-0.1036 0.02041,-0.2062 0.06006,-0.3019 0.03965,-0.0958 0.09776,-0.1828 0.17103,-0.256 0.07327,-0.0733 0.16024,-0.1314 0.25602,-0.1711 0.0957,-0.0396 0.1983,-0.06 0.3019,-0.06 0.1036,0 0.2062,0.0204 0.3019,0.06 0.0958,0.0397 0.1827,0.0978 0.256,0.1711 0.0733,0.0732 0.1314,0.1602 0.171,0.256 0.0397,0.0957 0.0601,0.1983 0.0601,0.3019 z m 4.515,0 c 0,0.2092 -0.0831,0.4099 -0.2311,0.5579 -0.148,0.148 -0.3487,0.2311 -0.5579,0.2311 -0.2093,0 -0.41,-0.0831 -0.5579,-0.2311 -0.148,-0.148 -0.2311,-0.3487 -0.2311,-0.5579 0,-0.2093 0.0831,-0.41 0.2311,-0.5579 0.1479,-0.148 0.3486,-0.2311 0.5579,-0.2311 0.2092,0 0.4099,0.0831 0.5579,0.2311 0.148,0.1479 0.2311,0.3486 0.2311,0.5579 z m 15.372,0 c 0,0.2092 -0.0831,0.4099 -0.2311,0.5579 -0.148,0.148 -0.3487,0.2311 -0.5579,0.2311 -0.2093,0 -0.41,-0.0831 -0.5579,-0.2311 -0.148,-0.148 -0.2311,-0.3487 -0.2311,-0.5579 0,-0.2093 0.0831,-0.41 0.2311,-0.5579 0.1479,-0.148 0.3486,-0.2311 0.5579,-0.2311 0.2092,0 0.4099,0.0831 0.5579,0.2311 0.148,0.1479 0.2311,0.3486 0.2311,0.5579 z m 4.449,0 c 0,0.2092 -0.0831,0.4099 -0.2311,0.5579 -0.148,0.148 -0.3487,0.2311 -0.5579,0.2311 -0.2093,0 -0.41,-0.0831 -0.5579,-0.2311 -0.148,-0.148 -0.2311,-0.3487 -0.2311,-0.5579 0,-0.2093 0.0831,-0.41 0.2311,-0.5579 0.1479,-0.148 0.3486,-0.2311 0.5579,-0.2311 0.2092,0 0.4099,0.0831 0.5579,0.2311 0.148,0.1479 0.2311,0.3486 0.2311,0.5579 z m -1.911,3.054 c 0,0.2092 -0.0831,0.4099 -0.2311,0.5579 -0.148,0.148 -0.3487,0.2311 -0.5579,0.2311 -0.2093,0 -0.41,-0.0831 -0.5579,-0.2311 -0.148,-0.148 -0.2311,-0.3487 -0.2311,-0.5579 0,-0.2093 0.0831,-0.41 0.2311,-0.5579 0.1479,-0.148 0.3486,-0.2311 0.5579,-0.2311 0.2092,0 0.4099,0.0831 0.5579,0.2311 0.148,0.1479 0.2311,0.3486 0.2311,0.5579 z m -3.855,0 c 0,0.2092 -0.0831,0.4099 -0.2311,0.5579 -0.148,0.148 -0.3487,0.2311 -0.5579,0.2311 -0.2093,0 -0.41,-0.0831 -0.5579,-0.2311 -0.148,-0.148 -0.2311,-0.3487 -0.2311,-0.5579 0,-0.2093 0.0831,-0.41 0.2311,-0.5579 0.1479,-0.148 0.3486,-0.2311 0.5579,-0.2311 0.2092,0 0.4099,0.0831 0.5579,0.2311 0.148,0.1479 0.2311,0.3486 0.2311,0.5579 z m -3.057,0 c 0,0.2092 -0.0831,0.4099 -0.2311,0.5579 -0.148,0.148 -0.3487,0.2311 -0.5579,0.2311 -0.2093,0 -0.41,-0.0831 -0.5579,-0.2311 -0.148,-0.148 -0.2311,-0.3487 -0.2311,-0.5579 0,-0.2093 0.0831,-0.41 0.2311,-0.5579 0.1479,-0.148 0.3486,-0.2311 0.5579,-0.2311 0.2092,0 0.4099,0.0831 0.5579,0.2311 0.148,0.1479 0.2311,0.3486 0.2311,0.5579 z m -3.306,0 c 0,0.2092 -0.0831,0.4099 -0.2311,0.5579 -0.148,0.148 -0.3487,0.2311 -0.5579,0.2311 -0.2093,0 -0.41,-0.0831 -0.5579,-0.2311 -0.148,-0.148 -0.2311,-0.3487 -0.2311,-0.5579 0,-0.2093 0.0831,-0.41 0.2311,-0.5579 0.1479,-0.148 0.3486,-0.2311 0.5579,-0.2311 0.2092,0 0.4099,0.0831 0.5579,0.2311 0.148,0.1479 0.2311,0.3486 0.2311,0.5579 z m -3.369,0 c 0,0.2092 -0.0831,0.4099 -0.2311,0.5579 -0.148,0.148 -0.3487,0.2311 -0.5579,0.2311 -0.2093,0 -0.41,-0.0831 -0.5579,-0.2311 -0.148,-0.148 -0.2311,-0.3487 -0.2311,-0.5579 0,-0.2093 0.0831,-0.41 0.2311,-0.5579 0.1479,-0.148 0.3486,-0.2311 0.5579,-0.2311 0.2092,0 0.4099,0.0831 0.5579,0.2311 0.148,0.1479 0.2311,0.3486 0.2311,0.5579 z m -3.024,0 c 0,0.2092 -0.0831,0.4099 -0.2311,0.5579 -0.148,0.148 -0.3487,0.2311 -0.5579,0.2311 -0.2093,0 -0.41,-0.0831 -0.5579,-0.2311 -0.148,-0.148 -0.2311,-0.3487 -0.2311,-0.5579 0,-0.2093 0.0831,-0.41 0.2311,-0.5579 0.1479,-0.148 0.3486,-0.2311 0.5579,-0.2311 0.2092,0 0.4099,0.0831 0.5579,0.2311 0.148,0.1479 0.2311,0.3486 0.2311,0.5579 z m -3.879,0 c 0,0.2092 -0.0831,0.4099 -0.2311,0.5579 -0.148,0.148 -0.3487,0.2311 -0.5579,0.2311 -0.2093,0 -0.41,-0.0831 -0.5579,-0.2311 -0.148,-0.148 -0.2311,-0.3487 -0.2311,-0.5579 0,-0.2093 0.0831,-0.41 0.2311,-0.5579 0.1479,-0.148 0.3486,-0.2311 0.5579,-0.2311 0.2092,0 0.4099,0.0831 0.5579,0.2311 0.148,0.1479 0.2311,0.3486 0.2311,0.5579 z m 1.308,2.796 c 0,0.2092 -0.0831,0.4099 -0.2311,0.5579 -0.148,0.148 -0.3487,0.2311 -0.5579,0.2311 -0.2093,0 -0.41,-0.0831 -0.5579,-0.2311 -0.148,-0.148 -0.2311,-0.3487 -0.2311,-0.5579 0,-0.2093 0.0831,-0.41 0.2311,-0.5579 0.1479,-0.148 0.3486,-0.2311 0.5579,-0.2311 0.2092,0 0.4099,0.0831 0.5579,0.2311 0.148,0.1479 0.2311,0.3486 0.2311,0.5579 z m 3.456,0 c 0,0.2092 -0.0831,0.4099 -0.2311,0.5579 -0.148,0.148 -0.3487,0.2311 -0.5579,0.2311 -0.2093,0 -0.41,-0.0831 -0.5579,-0.2311 -0.148,-0.148 -0.2311,-0.3487 -0.2311,-0.5579 0,-0.2093 0.0831,-0.41 0.2311,-0.5579 0.1479,-0.148 0.3486,-0.2311 0.5579,-0.2311 0.2092,0 0.4099,0.0831 0.5579,0.2311 0.148,0.1479 0.2311,0.3486 0.2311,0.5579 z m 2.808,0 c 0,0.2092 -0.0831,0.4099 -0.2311,0.5579 -0.148,0.148 -0.3487,0.2311 -0.5579,0.2311 -0.2093,0 -0.41,-0.0831 -0.5579,-0.2311 -0.148,-0.148 -0.2311,-0.3487 -0.2311,-0.5579 0,-0.2093 0.0831,-0.41 0.2311,-0.5579 0.1479,-0.148 0.3486,-0.2311 0.5579,-0.2311 0.2092,0 0.4099,0.0831 0.5579,0.2311 0.148,0.1479 0.2311,0.3486 0.2311,0.5579 z m 2.7219,0 c 0,0.2092 -0.0831,0.4099 -0.231,0.5579 -0.148,0.148 -0.3487,0.2311 -0.558,0.2311 -0.2092,0 -0.4099,-0.0831 -0.5579,-0.2311 -0.1479,-0.148 -0.2311,-0.3487 -0.2311,-0.5579 0,-0.2093 0.0832,-0.41 0.2311,-0.5579 0.148,-0.148 0.3487,-0.2311 0.5579,-0.2311 0.2093,0 0.41,0.0831 0.558,0.2311 0.1479,0.1479 0.231,0.3486 0.231,0.5579 z m 2.637,0 c 0,0.2092 -0.0831,0.4099 -0.231,0.5579 -0.148,0.148 -0.3487,0.2311 -0.558,0.2311 -0.2092,0 -0.4099,-0.0831 -0.5579,-0.2311 C 24.4832,30.0618 24.4,29.8611 24.4,29.6519 c 0,-0.1036 0.0205,-0.2062 0.0601,-0.3019 0.0397,-0.0958 0.0978,-0.1828 0.171,-0.256 0.0733,-0.0733 0.1603,-0.1314 0.256,-0.1711 0.0957,-0.0396 0.1983,-0.06 0.3019,-0.06 0.1037,0 0.2063,0.0204 0.302,0.06 0.0957,0.0397 0.1827,0.0978 0.256,0.1711 0.0732,0.0732 0.1313,0.1602 0.171,0.256 0.0396,0.0957 0.06,0.1983 0.06,0.3019 z m 2.862,0 c 0,0.2092 -0.0831,0.4099 -0.2311,0.5579 -0.1479,0.148 -0.3486,0.2311 -0.5579,0.2311 -0.2092,0 -0.4099,-0.0831 -0.5579,-0.2311 -0.1479,-0.148 -0.2311,-0.3487 -0.2311,-0.5579 0,-0.2093 0.0832,-0.41 0.2311,-0.5579 0.148,-0.148 0.3487,-0.2311 0.5579,-0.2311 0.2093,0 0.41,0.0831 0.5579,0.2311 0.148,0.1479 0.2311,0.3486 0.2311,0.5579 z m 3.414,0 c 0,0.2092 -0.0831,0.4099 -0.2311,0.5579 -0.1479,0.148 -0.3486,0.2311 -0.5579,0.2311 -0.2092,0 -0.4099,-0.0831 -0.5579,-0.2311 -0.1479,-0.148 -0.2311,-0.3487 -0.2311,-0.5579 0,-0.2093 0.0832,-0.41 0.2311,-0.5579 0.148,-0.148 0.3487,-0.2311 0.5579,-0.2311 0.2093,0 0.41,0.0831 0.5579,0.2311 0.148,0.1479 0.2311,0.3486 0.2311,0.5579 z m -0.93,2.595 c 0,0.2092 -0.0831,0.4099 -0.2311,0.5579 -0.1479,0.148 -0.3486,0.2311 -0.5579,0.2311 -0.2092,0 -0.4099,-0.0831 -0.5579,-0.2311 -0.1479,-0.148 -0.2311,-0.3487 -0.2311,-0.5579 0,-0.2093 0.0832,-0.41 0.2311,-0.5579 0.148,-0.148 0.3487,-0.2311 0.5579,-0.2311 0.2093,0 0.41,0.0831 0.5579,0.2311 0.148,0.1479 0.2311,0.3486 0.2311,0.5579 z m -3.144,0 c 0,0.2092 -0.0831,0.4099 -0.2311,0.5579 -0.1479,0.148 -0.3486,0.2311 -0.5579,0.2311 -0.2092,0 -0.4099,-0.0831 -0.5579,-0.2311 -0.1479,-0.148 -0.2311,-0.3487 -0.2311,-0.5579 0,-0.2093 0.0832,-0.41 0.2311,-0.5579 0.148,-0.148 0.3487,-0.2311 0.5579,-0.2311 0.2093,0 0.41,0.0831 0.5579,0.2311 0.148,0.1479 0.2311,0.3486 0.2311,0.5579 z m -2.5275,0 c 0,0.2092 -0.0831,0.4099 -0.2311,0.5579 -0.148,0.148 -0.3487,0.2311 -0.5579,0.2311 -0.2093,0 -0.41,-0.0831 -0.5579,-0.2311 -0.148,-0.148 -0.2311,-0.3487 -0.2311,-0.5579 0,-0.2093 0.0831,-0.41 0.2311,-0.5579 0.1479,-0.148 0.3486,-0.2311 0.5579,-0.2311 0.2092,0 0.4099,0.0831 0.5579,0.2311 0.148,0.1479 0.2311,0.3486 0.2311,0.5579 z m -2.334,0 c 0,0.2092 -0.0831,0.4099 -0.2311,0.5579 -0.148,0.148 -0.3487,0.2311 -0.5579,0.2311 -0.2093,0 -0.41,-0.0831 -0.5579,-0.2311 -0.148,-0.148 -0.2311,-0.3487 -0.2311,-0.5579 0,-0.2093 0.0831,-0.41 0.2311,-0.5579 0.1479,-0.148 0.3486,-0.2311 0.5579,-0.2311 0.2092,0 0.4099,0.0831 0.5579,0.2311 0.148,0.1479 0.2311,0.3486 0.2311,0.5579 z m -2.376,0 c 0,0.2092 -0.0831,0.4099 -0.2311,0.5579 -0.148,0.148 -0.3487,0.2311 -0.5579,0.2311 -0.2093,0 -0.41,-0.0831 -0.5579,-0.2311 -0.148,-0.148 -0.2311,-0.3487 -0.2311,-0.5579 0,-0.2093 0.0831,-0.41 0.2311,-0.5579 0.1479,-0.148 0.3486,-0.2311 0.5579,-0.2311 0.2092,0 0.4099,0.0831 0.5579,0.2311 0.148,0.1479 0.2311,0.3486 0.2311,0.5579 z m -2.571,0 c 0,0.2092 -0.0831,0.4099 -0.2311,0.5579 -0.148,0.148 -0.3487,0.2311 -0.5579,0.2311 -0.2093,0 -0.41,-0.0831 -0.5579,-0.2311 -0.148,-0.148 -0.2311,-0.3487 -0.2311,-0.5579 0,-0.2093 0.0831,-0.41 0.2311,-0.5579 0.1479,-0.148 0.3486,-0.2311 0.5579,-0.2311 0.2092,0 0.4099,0.0831 0.5579,0.2311 0.148,0.1479 0.2311,0.3486 0.2311,0.5579 z m -3.099,0 c 0,0.2092 -0.0831,0.4099 -0.2311,0.5579 -0.148,0.148 -0.3487,0.2311 -0.5579,0.2311 -0.2093,0 -0.4099,-0.0831 -0.5579,-0.2311 -0.148,-0.148 -0.2311,-0.3487 -0.2311,-0.5579 0,-0.2093 0.0831,-0.41 0.2311,-0.5579 0.148,-0.148 0.3486,-0.2311 0.5579,-0.2311 0.2092,0 0.4099,0.0831 0.5579,0.2311 0.148,0.1479 0.2311,0.3486 0.2311,0.5579 z m 0.561,2.178 c 0,0.2092 -0.0831,0.4099 -0.2311,0.5579 -0.148,0.148 -0.3487,0.2311 -0.5579,0.2311 -0.2093,0 -0.4099,-0.0831 -0.5579,-0.2311 -0.148,-0.148 -0.2311,-0.3487 -0.2311,-0.5579 0,-0.2093 0.0831,-0.41 0.2311,-0.5579 0.148,-0.148 0.3486,-0.2311 0.5579,-0.2311 0.2092,0 0.4099,0.0831 0.5579,0.2311 0.148,0.1479 0.2311,0.3486 0.2311,0.5579 z m 2.862,0 c 0,0.2092 -0.0831,0.4099 -0.2311,0.5579 -0.148,0.148 -0.3487,0.2311 -0.5579,0.2311 -0.2093,0 -0.41,-0.0831 -0.5579,-0.2311 -0.148,-0.148 -0.2311,-0.3487 -0.2311,-0.5579 0,-0.2093 0.0831,-0.41 0.2311,-0.5579 0.1479,-0.148 0.3486,-0.2311 0.5579,-0.2311 0.2092,0 0.4099,0.0831 0.5579,0.2311 0.148,0.1479 0.2311,0.3486 0.2311,0.5579 z m 2.463,0 c 0,0.2092 -0.0831,0.4099 -0.2311,0.5579 -0.148,0.148 -0.3487,0.2311 -0.5579,0.2311 -0.2093,0 -0.41,-0.0831 -0.5579,-0.2311 -0.148,-0.148 -0.2311,-0.3487 -0.2311,-0.5579 0,-0.2093 0.0831,-0.41 0.2311,-0.5579 0.1479,-0.148 0.3486,-0.2311 0.5579,-0.2311 0.2092,0 0.4099,0.0831 0.5579,0.2311 0.148,0.1479 0.2311,0.3486 0.2311,0.5579 z m 2.181,0 c 0,0.2092 -0.0831,0.4099 -0.2311,0.5579 -0.148,0.148 -0.3487,0.2311 -0.5579,0.2311 -0.2093,0 -0.41,-0.0831 -0.5579,-0.2311 -0.148,-0.148 -0.2311,-0.3487 -0.2311,-0.5579 0,-0.2093 0.0831,-0.41 0.2311,-0.5579 0.1479,-0.148 0.3486,-0.2311 0.5579,-0.2311 0.2092,0 0.4099,0.0831 0.5579,0.2311 0.148,0.1479 0.2311,0.3486 0.2311,0.5579 z m 2.139,0 c 0,0.2092 -0.0831,0.4099 -0.2311,0.5579 -0.148,0.148 -0.3487,0.2311 -0.5579,0.2311 -0.2093,0 -0.41,-0.0831 -0.5579,-0.2311 -0.148,-0.148 -0.2311,-0.3487 -0.2311,-0.5579 0,-0.2093 0.0831,-0.41 0.2311,-0.5579 0.1479,-0.148 0.3486,-0.2311 0.5579,-0.2311 0.2092,0 0.4099,0.0831 0.5579,0.2311 0.148,0.1479 0.2311,0.3486 0.2311,0.5579 z m 2.4,0 c 0,0.2092 -0.0831,0.4099 -0.2311,0.5579 -0.148,0.148 -0.3487,0.2311 -0.5579,0.2311 -0.2093,0 -0.41,-0.0831 -0.5579,-0.2311 -0.148,-0.148 -0.2311,-0.3487 -0.2311,-0.5579 0,-0.2093 0.0831,-0.41 0.2311,-0.5579 0.1479,-0.148 0.3486,-0.2311 0.5579,-0.2311 0.2092,0 0.4099,0.0831 0.5579,0.2311 0.148,0.1479 0.2311,0.3486 0.2311,0.5579 z m 2.883,0 c 0,0.2092 -0.0831,0.4099 -0.2311,0.5579 -0.148,0.148 -0.3487,0.2311 -0.5579,0.2311 -0.2093,0 -0.41,-0.0831 -0.5579,-0.2311 -0.148,-0.148 -0.2311,-0.3487 -0.2311,-0.5579 0,-0.2093 0.0831,-0.41 0.2311,-0.5579 0.1479,-0.148 0.3486,-0.2311 0.5579,-0.2311 0.2092,0 0.4099,0.0831 0.5579,0.2311 0.148,0.1479 0.2311,0.3486 0.2311,0.5579 z m -0.378,2.178 c 0,0.2092 -0.0831,0.4099 -0.2311,0.5579 -0.148,0.148 -0.3487,0.2311 -0.5579,0.2311 -0.2093,0 -0.41,-0.0831 -0.5579,-0.2311 -0.148,-0.148 -0.2311,-0.3487 -0.2311,-0.5579 0,-0.2093 0.0831,-0.41 0.2311,-0.5579 0.1479,-0.148 0.3486,-0.2311 0.5579,-0.2311 0.2092,0 0.4099,0.0831 0.5579,0.2311 0.148,0.1479 0.2311,0.3486 0.2311,0.5579 z m -2.658,0 c 0,0.2092 -0.0831,0.4099 -0.2311,0.5579 -0.148,0.148 -0.3487,0.2311 -0.5579,0.2311 -0.2093,0 -0.41,-0.0831 -0.5579,-0.2311 -0.148,-0.148 -0.2311,-0.3487 -0.2311,-0.5579 0,-0.2093 0.0831,-0.41 0.2311,-0.5579 0.1479,-0.148 0.3486,-0.2311 0.5579,-0.2311 0.2092,0 0.4099,0.0831 0.5579,0.2311 0.148,0.1479 0.2311,0.3486 0.2311,0.5579 z m -2.322,0 c 0,0.2092 -0.0831,0.4099 -0.2311,0.5579 -0.148,0.148 -0.3487,0.2311 -0.5579,0.2311 -0.2093,0 -0.41,-0.0831 -0.5579,-0.2311 -0.148,-0.148 -0.2311,-0.3487 -0.2311,-0.5579 0,-0.2093 0.0831,-0.41 0.2311,-0.5579 0.1479,-0.148 0.3486,-0.2311 0.5579,-0.2311 0.2092,0 0.4099,0.0831 0.5579,0.2311 0.148,0.1479 0.2311,0.3486 0.2311,0.5579 z m -2.073,0 c 0,0.2092 -0.0831,0.4099 -0.2311,0.5579 -0.148,0.148 -0.3487,0.2311 -0.5579,0.2311 -0.2093,0 -0.41,-0.0831 -0.5579,-0.2311 -0.148,-0.148 -0.2311,-0.3487 -0.2311,-0.5579 0,-0.2093 0.0831,-0.41 0.2311,-0.5579 0.1479,-0.148 0.3486,-0.2311 0.5579,-0.2311 0.2092,0 0.4099,0.0831 0.5579,0.2311 0.148,0.1479 0.2311,0.3486 0.2311,0.5579 z m -2.16,0 c 0,0.2092 -0.0831,0.4099 -0.2311,0.5579 -0.148,0.148 -0.3487,0.2311 -0.5579,0.2311 -0.2093,0 -0.41,-0.0831 -0.5579,-0.2311 -0.148,-0.148 -0.2311,-0.3487 -0.2311,-0.5579 0,-0.2093 0.0831,-0.41 0.2311,-0.5579 0.1479,-0.148 0.3486,-0.2311 0.5579,-0.2311 0.2092,0 0.4099,0.0831 0.5579,0.2311 0.148,0.1479 0.2311,0.3486 0.2311,0.5579 z m -2.2899,0 c 0,0.2092 -0.0831,0.4099 -0.2311,0.5579 -0.148,0.148 -0.3487,0.2311 -0.5579,0.2311 -0.2093,0 -0.41,-0.0831 -0.5579,-0.2311 -0.148,-0.148 -0.2311,-0.3487 -0.2311,-0.5579 0,-0.2093 0.0831,-0.41 0.2311,-0.5579 0.1479,-0.148 0.3486,-0.2311 0.5579,-0.2311 0.2092,0 0.4099,0.0831 0.5579,0.2311 0.148,0.1479 0.2311,0.3486 0.2311,0.5579 z m -2.679,0 c 0,0.2092 -0.0831,0.4099 -0.2311,0.5579 -0.148,0.148 -0.3487,0.2311 -0.5579,0.2311 -0.2093,0 -0.41,-0.0831 -0.5579,-0.2311 -0.148,-0.148 -0.2311,-0.3487 -0.2311,-0.5579 0,-0.2093 0.0831,-0.41 0.2311,-0.5579 0.1479,-0.148 0.3486,-0.2311 0.5579,-0.2311 0.2092,0 0.4099,0.0831 0.5579,0.2311 0.148,0.1479 0.2311,0.3486 0.2311,0.5579 z m 0.183,1.995 c 0,0.2092 -0.0831,0.4099 -0.2311,0.5579 -0.148,0.148 -0.3487,0.2311 -0.5579,0.2311 -0.2093,0 -0.41,-0.0831 -0.5579,-0.2311 -0.148,-0.148 -0.2311,-0.3487 -0.2311,-0.5579 0,-0.2093 0.0831,-0.41 0.2311,-0.5579 0.1479,-0.148 0.3486,-0.2311 0.5579,-0.2311 0.2092,0 0.4099,0.0831 0.5579,0.2311 0.148,0.1479 0.2311,0.3486 0.2311,0.5579 z m 2.571,0 c 0,0.2092 -0.0831,0.4099 -0.2311,0.5579 -0.148,0.148 -0.3487,0.2311 -0.5579,0.2311 -0.2093,0 -0.41,-0.0831 -0.5579,-0.2311 -0.148,-0.148 -0.2311,-0.3487 -0.2311,-0.5579 0,-0.2093 0.0831,-0.41 0.2311,-0.5579 0.1479,-0.148 0.3486,-0.2311 0.5579,-0.2311 0.2092,0 0.4099,0.0831 0.5579,0.2311 0.148,0.1479 0.2311,0.3486 0.2311,0.5579 z m 2.193,0 c 0,0.2092 -0.0831,0.4099 -0.2311,0.5579 -0.148,0.148 -0.3487,0.2311 -0.5579,0.2311 -0.2093,0 -0.41,-0.0831 -0.5579,-0.2311 -0.148,-0.148 -0.2311,-0.3487 -0.2311,-0.5579 0,-0.2093 0.0831,-0.41 0.2311,-0.5579 0.1479,-0.148 0.3486,-0.2311 0.5579,-0.2311 0.2092,0 0.4099,0.0831 0.5579,0.2311 0.148,0.1479 0.2311,0.3486 0.2311,0.5579 z m 2.172,0 c 0,0.2092 -0.0832,0.4099 -0.2311,0.5579 -0.148,0.148 -0.3487,0.2311 -0.5579,0.2311 -0.2093,0 -0.41,-0.0831 -0.5579,-0.2311 -0.148,-0.148 -0.2311,-0.3487 -0.2311,-0.5579 0,-0.2093 0.0831,-0.41 0.2311,-0.5579 0.1479,-0.148 0.3486,-0.2311 0.5579,-0.2311 0.2092,0 0.4099,0.0831 0.5579,0.2311 0.1479,0.1479 0.2311,0.3486 0.2311,0.5579 z m 2.16,0 c 0,0.2092 -0.0831,0.4099 -0.2311,0.5579 -0.148,0.148 -0.3487,0.2311 -0.5579,0.2311 -0.2093,0 -0.41,-0.0831 -0.5579,-0.2311 -0.148,-0.148 -0.2311,-0.3487 -0.2311,-0.5579 0,-0.2093 0.0831,-0.41 0.2311,-0.5579 0.1479,-0.148 0.3486,-0.2311 0.5579,-0.2311 0.2092,0 0.4099,0.0831 0.5579,0.2311 0.148,0.1479 0.2311,0.3486 0.2311,0.5579 z m 2.214,0 c 0,0.2092 -0.0832,0.4099 -0.2311,0.5579 -0.148,0.148 -0.3487,0.2311 -0.5579,0.2311 -0.2093,0 -0.41,-0.0831 -0.5579,-0.2311 -0.148,-0.148 -0.2311,-0.3487 -0.2311,-0.5579 0,-0.2093 0.0831,-0.41 0.2311,-0.5579 0.1479,-0.148 0.3486,-0.2311 0.5579,-0.2311 0.2092,0 0.4099,0.0831 0.5579,0.2311 0.1479,0.1479 0.2311,0.3486 0.2311,0.5579 z m 2.496,0 c 0,0.2092 -0.0831,0.4099 -0.2311,0.5579 -0.148,0.148 -0.3487,0.2311 -0.5579,0.2311 -0.2093,0 -0.41,-0.0831 -0.5579,-0.2311 -0.148,-0.148 -0.2311,-0.3487 -0.2311,-0.5579 0,-0.2093 0.0831,-0.41 0.2311,-0.5579 0.1479,-0.148 0.3486,-0.2311 0.5579,-0.2311 0.2092,0 0.4099,0.0831 0.5579,0.2311 0.148,0.1479 0.2311,0.3486 0.2311,0.5579 z m 8.37,-18.471 c 0,0.2092 -0.0832,0.4099 -0.2311,0.5579 -0.148,0.148 -0.3487,0.2311 -0.5579,0.2311 -0.2093,0 -0.41,-0.0831 -0.5579,-0.2311 -0.148,-0.148 -0.2311,-0.3487 -0.2311,-0.5579 0,-0.2093 0.0831,-0.41 0.2311,-0.5579 0.1479,-0.148 0.3486,-0.2311 0.5579,-0.2311 0.2092,0 0.4099,0.0831 0.5579,0.2311 0.1479,0.1479 0.2311,0.3486 0.2311,0.5579 z"
       fill="#ffffff"
       id="path6"
       style="stroke-width:1.1805" />
  </g>
  <defs
     id="defs6">
    <clipPath
       id="clip0_13_3883">
      <rect
         width="60"
         height="60"
         fill="#ffffff"
         id="rect6"
         x="0"
         y="0" />
    </clipPath>
  </defs>
  <text
     xml:space="preserve"
     style="font-size:10.0064px;line-height:8.50936px;font-family:Arial;-inkscape-font-specification:Arial;fill:#fefefe;fill-opacity:1;stroke-width:0.981072;stroke-miterlimit:3.6;stroke-dasharray:3.92427, 0.981072"
     x="0.47847876"
     y="34.452682"
     id="text6"
     transform="scale(0.73125618,1.3675098)"><tspan
       sodipodi:role="line"
       id="tspan6"
       x="0.47847876"
       y="34.452682"
       style="fill:#fefefe;fill-opacity:1;stroke-width:0.981072">Lavado de ojos</tspan></text>
</svg>
