<?xml version="1.0" encoding="UTF-8" standalone="no"?>
<!-- Created with Inkscape (http://www.inkscape.org/) -->

<svg
   width="50"
   height="50"
   viewBox="0 0 13.229166 13.229166"
   version="1.1"
   id="svg1"
   xml:space="preserve"
   inkscape:version="1.3.2 (091e20e, 2023-11-25)"
   sodipodi:docname="llave.svg"
   xmlns:inkscape="http://www.inkscape.org/namespaces/inkscape"
   xmlns:sodipodi="http://sodipodi.sourceforge.net/DTD/sodipodi-0.dtd"
   xmlns="http://www.w3.org/2000/svg"
   xmlns:svg="http://www.w3.org/2000/svg"><sodipodi:namedview
     id="namedview1"
     pagecolor="#ffffff"
     bordercolor="#000000"
     borderopacity="0.25"
     inkscape:showpageshadow="2"
     inkscape:pageopacity="0.0"
     inkscape:pagecheckerboard="0"
     inkscape:deskcolor="#d1d1d1"
     inkscape:document-units="mm"
     inkscape:zoom="10.341327"
     inkscape:cx="26.979129"
     inkscape:cy="27.704374"
     inkscape:window-width="1680"
     inkscape:window-height="1022"
     inkscape:window-x="0"
     inkscape:window-y="28"
     inkscape:window-maximized="0"
     inkscape:current-layer="layer1" /><defs
     id="defs1"><inkscape:path-effect
       effect="bspline"
       id="path-effect2"
       is_visible="true"
       lpeversion="1.3"
       weight="33.333333"
       steps="2"
       helper_size="0"
       apply_no_weight="true"
       apply_with_weight="true"
       only_selected="false"
       uniform="false" /></defs><g
     inkscape:label="Capa 1"
     inkscape:groupmode="layer"
     id="layer1"><path
       style="fill:#ffffff;stroke:#000000;stroke-width:0.22325;paint-order:markers stroke fill"
       d="m 1.2842858,0.41900066 c 0.6255777,-0.0721071 1.8572446,-0.0876978 2.4789248,-0.007794 0.6216803,0.0799042 0.6333731,0.25529637 0.666504,0.91011798 0.033131,0.6548217 0.087697,1.789024 -0.035083,2.3756254 C 4.2718519,4.2835517 3.9717366,4.3225278 3.3617404,4.3322718 2.7517442,4.3420158 1.8319099,4.3225277 1.3524948,4.2445728 0.87307968,4.1666178 0.83410367,4.0302018 0.78538206,3.4377437 0.73666045,2.8452857 0.67819641,1.7968307 0.65870821,1.2082797 0.63922,0.61972864 0.65870802,0.49110775 1.2842858,0.41900066 Z"
       id="path2"
       inkscape:path-effect="#path-effect2"
       inkscape:original-d="M 0.67819642,0.3624843 C 1.9098635,0.34689356 3.1415304,0.33130286 4.3731976,0.31571213 4.3848895,0.49111127 4.3965841,0.66650337 4.4082768,0.841899 4.4628453,1.9761467 4.5174116,3.110349 4.5719793,4.2445741 4.2718519,4.2835517 3.9717366,4.3225278 3.6716152,4.3615046 2.7517442,4.3420156 1.8319099,4.3225278 0.91205726,4.3030393 0.87307967,4.1666178 0.83410363,4.0302018 0.79512683,3.8937829 0.73666045,2.8452857 0.67819642,1.7968307 0.61973121,0.74835466 0.63921999,0.61972864 0.65870801,0.49110775 0.67819642,0.3624843 Z"
       transform="matrix(2.4936414,0,0,2.5083978,0.00184236,0.007279)" /><path
       style="fill:#ff0000;stroke-width:0.490047"
       d="M -0.17530144,11.137481 C -0.23528586,11.05116 -0.2700422,8.5339436 -0.25256075,5.5435305 L -0.22079977,0.10644611 6.5931147,0.05070963 13.407029,-0.00482565 V 5.5178351 c 0,4.8430179 -0.04867,5.5382549 -0.395526,5.6495669 -0.574654,0.184512 -13.05748031,0.156144 -13.186807,-0.02978 z M 7.6563518,10.352764 C 7.8335941,10.174085 7.9810137,9.6884736 7.900886,9.3534308 7.7767856,8.8344782 7.6117468,8.5814104 8.3295045,8.3643398 8.7778822,8.228721 9.7433215,7.6770104 10.113794,7.9455314 11.196574,8.7303491 11.317741,8.2940956 10.869274,6.3626151 10.474959,4.6643422 9.6874195,4.1441218 9.5583252,4.9833281 9.5254538,5.1968773 8.7599563,5.2404609 8.4570366,5.3208659 8.0126331,5.4387777 7.8577632,5.3603043 7.6550584,4.9144727 7.5168849,4.610558 7.2354955,4.2211065 7.0297355,4.0490277 6.823986,3.8769893 6.3603424,3.5965565 6.3603424,3.1447084 c 0,-0.8130887 0.305134,-1.0516489 1.253819,-1.0516489 1.1248971,0 1.2819259,-0.091352 1.108705,-0.645336 C 8.6017352,1.0603046 8.3979096,1.039177 5.3118496,1.0938673 c -3.0922958,0.05473 -3.2821828,0.082297 -3.2821828,0.476396 0,0.3390468 0.1914952,0.430016 1.0111259,0.4804404 1.0051173,0.061773 1.0105786,0.066803 0.9189986,0.83647 C 3.9091263,3.3130445 3.5385081,4.1922124 3.136205,4.8408884 2.352475,6.1046177 2.1822177,7.4210047 2.6987062,8.2235699 c 0.1616747,0.2512174 0.2694597,0.8122234 0.2395255,1.2466867 -0.029952,0.4344427 0.013186,0.8814404 0.095878,0.9933164 0.082683,0.111874 1.0863455,0.203385 2.2303823,0.203385 1.5454234,0 2.1602115,-0.08069 2.3918703,-0.314197 z"
       id="path1"
       sodipodi:nodetypes="sscccssssssssssssssssssssssssss" /><text
       xml:space="preserve"
       style="font-size:2.67981px;font-family:Arial;-inkscape-font-specification:Arial;fill:#ffffff;stroke:#ffffff;stroke-width:0.121133;paint-order:markers stroke fill;fill-opacity:1;stroke-opacity:1"
       x="0.2522938"
       y="14.428604"
       id="text1"
       transform="scale(1.0985691,0.91027497)"><tspan
         sodipodi:role="line"
         id="tspan1"
         style="stroke-width:0.121133;fill:#ffffff;fill-opacity:1;stroke:#ffffff;stroke-opacity:1"
         x="0.2522938"
         y="14.428604">Red Seca</tspan></text></g></svg>
