<?xml version="1.0" encoding="UTF-8" standalone="no"?>
<!-- Created with Inkscape (http://www.inkscape.org/) -->

<svg
   width="20"
   height="20"
   viewBox="0 0 5.2916665 5.2916666"
   version="1.1"
   id="svg1"
   xml:space="preserve"
   inkscape:version="1.3.1 (91b66b0783, 2023-11-16)"
   sodipodi:docname="llave.svg"
   xmlns:inkscape="http://www.inkscape.org/namespaces/inkscape"
   xmlns:sodipodi="http://sodipodi.sourceforge.net/DTD/sodipodi-0.dtd"
   xmlns="http://www.w3.org/2000/svg"
   xmlns:svg="http://www.w3.org/2000/svg"><sodipodi:namedview
     id="namedview1"
     pagecolor="#ffffff"
     bordercolor="#000000"
     borderopacity="0.25"
     inkscape:showpageshadow="2"
     inkscape:pageopacity="0.0"
     inkscape:pagecheckerboard="0"
     inkscape:deskcolor="#d1d1d1"
     inkscape:document-units="mm"
     inkscape:zoom="22.627417"
     inkscape:cx="4.5299028"
     inkscape:cy="3.1598834"
     inkscape:window-width="1920"
     inkscape:window-height="991"
     inkscape:window-x="-9"
     inkscape:window-y="-9"
     inkscape:window-maximized="1"
     inkscape:current-layer="layer1" /><defs
     id="defs1"><inkscape:path-effect
       effect="bspline"
       id="path-effect2"
       is_visible="true"
       lpeversion="1.3"
       weight="33.333333"
       steps="2"
       helper_size="0"
       apply_no_weight="true"
       apply_with_weight="true"
       only_selected="false"
       uniform="false" /></defs><g
     inkscape:label="Capa 1"
     inkscape:groupmode="layer"
     id="layer1"><path
       style="fill:#ffffff;stroke:#000000;stroke-width:0.22325;paint-order:markers stroke fill"
       d="m 1.2842858,0.41900066 c 0.6255777,-0.0721071 1.8572446,-0.0876978 2.4789248,-0.007794 0.6216803,0.0799042 0.6333731,0.25529637 0.666504,0.91011798 0.033131,0.6548217 0.087697,1.789024 -0.035083,2.3756254 C 4.2718519,4.2835517 3.9717366,4.3225278 3.3617404,4.3322718 2.7517442,4.3420158 1.8319099,4.3225277 1.3524948,4.2445728 0.87307968,4.1666178 0.83410367,4.0302018 0.78538206,3.4377437 0.73666045,2.8452857 0.67819641,1.7968307 0.65870821,1.2082797 0.63922,0.61972864 0.65870802,0.49110775 1.2842858,0.41900066 Z"
       id="path2"
       inkscape:path-effect="#path-effect2"
       inkscape:original-d="M 0.67819642,0.3624843 C 1.9098635,0.34689356 3.1415304,0.33130286 4.3731976,0.31571213 4.3848895,0.49111127 4.3965841,0.66650337 4.4082768,0.841899 4.4628453,1.9761467 4.5174116,3.110349 4.5719793,4.2445741 4.2718519,4.2835517 3.9717366,4.3225278 3.6716152,4.3615046 2.7517442,4.3420156 1.8319099,4.3225278 0.91205726,4.3030393 0.87307967,4.1666178 0.83410363,4.0302018 0.79512683,3.8937829 0.73666045,2.8452857 0.67819642,1.7968307 0.61973121,0.74835466 0.63921999,0.61972864 0.65870801,0.49110775 0.67819642,0.3624843 Z" /><path
       style="fill:#ff0000;stroke-width:0.192796"
       d="M 0.03051899,4.4371759 C 0.00722974,4.402763 -0.00626458,3.3992474 5.2268044e-4,2.2070867 L 0.01285404,0.03953404 2.6583904,0.01731409 5.3039265,-0.00482565 V 2.196843 c 0,1.9307216 -0.018897,2.2078854 -0.1535646,2.2522611 C 4.9272494,4.5226618 0.08072973,4.5113525 0.030518,4.437232 Z M 3.0711975,4.1243399 C 3.1400127,4.0531076 3.1972491,3.8595133 3.1661391,3.7259449 3.1179565,3.5190588 3.0538794,3.4181705 3.3325524,3.331633 3.5066373,3.2775671 3.8814739,3.0576217 4.0253119,3.1646705 4.4457063,3.4775466 4.4927501,3.3036294 4.3186309,2.5336237 4.1655356,1.8565888 3.8597697,1.6491973 3.8096482,1.983756 3.7968857,2.0688897 3.4996775,2.0862647 3.3820674,2.1183191 3.2095255,2.1653259 3.1493965,2.1340416 3.0706953,1.956306 3.0170488,1.8351471 2.9077979,1.6798881 2.8279106,1.611287 2.7480273,1.542702 2.5680154,1.4309044 2.5680154,1.2507703 c 0,-0.32414666 0.1184698,-0.41925128 0.4868015,-0.41925128 0.4367469,0 0.4977141,-0.0364182 0.4304602,-0.25727019 C 3.4382473,0.4198001 3.359111,0.41137736 2.1609328,0.4331802 0.96033346,0.45499907 0.88660891,0.46598866 0.88660891,0.62310065 c 0,0.1351647 0.074349,0.17143056 0.39257469,0.1915328 0.3902418,0.0246265 0.3923622,0.0266319 0.3568058,0.33346785 -0.019671,0.169778 -0.1635653,0.5202678 -0.3197615,0.7788695 -0.3042871,0.5037994 -0.37039032,1.0285914 -0.1698611,1.3485427 0.062771,0.1001503 0.1046191,0.3238017 0.092997,0.4970052 -0.011629,0.1731953 0.00512,0.351396 0.037225,0.3959964 0.032102,0.0446 0.4217791,0.081082 0.8659571,0.081082 0.6000184,0 0.8387129,-0.032168 0.9286556,-0.125258 z"
       id="path1"
       sodipodi:nodetypes="sscccssssssssssssssssssssssssss" /><text
       xml:space="preserve"
       style="font-size:1.07149px;font-family:Arial;-inkscape-font-specification:Arial;fill:#000000;stroke:#000000;stroke-width:0.0484335;paint-order:markers stroke fill"
       x="0.10020626"
       y="5.7659163"
       id="text1"
       transform="scale(1.1018148,0.90759357)"><tspan
         sodipodi:role="line"
         id="tspan1"
         style="stroke-width:0.0484335"
         x="0.10020626"
         y="5.7659163">Red Seca</tspan></text></g></svg>
