<?xml version="1.0" encoding="UTF-8" standalone="no"?>
<svg
   width="71.184364"
   height="69.259247"
   viewBox="0 0 71.184364 69.259247"
   fill="none"
   version="1.1"
   id="svg3"
   sodipodi:docname="Radicacion.svg"
   inkscape:version="1.3.2 (091e20e, 2023-11-25, custom)"
   xmlns:inkscape="http://www.inkscape.org/namespaces/inkscape"
   xmlns:sodipodi="http://sodipodi.sourceforge.net/DTD/sodipodi-0.dtd"
   xmlns="http://www.w3.org/2000/svg"
   xmlns:svg="http://www.w3.org/2000/svg">
  <sodipodi:namedview
     id="namedview3"
     pagecolor="#ffffff"
     bordercolor="#000000"
     borderopacity="0.25"
     inkscape:showpageshadow="2"
     inkscape:pageopacity="0.0"
     inkscape:pagecheckerboard="0"
     inkscape:deskcolor="#d1d1d1"
     inkscape:zoom="5.5968169"
     inkscape:cx="15.812559"
     inkscape:cy="56.013982"
     inkscape:window-width="1920"
     inkscape:window-height="1017"
     inkscape:window-x="-8"
     inkscape:window-y="-8"
     inkscape:window-maximized="1"
     inkscape:current-layer="svg3" />
  <g
     clip-path="url(#clip0_18_4071)"
     id="g3"
     transform="translate(3.9308057,0.17867299)">
    <path
       d="M 60.2682,49.8236 31.9657,0.797816 C 31.6765,0.299181 31.1479,0 30.5795,0 30.011,0 29.4825,0.309154 29.1933,0.797816 L 0.890734,49.8236 c -0.289208,0.4987 -0.289208,1.107 0,1.5957 0.289206,0.4986 0.817766,0.7978 1.386206,0.7978 H 58.882 c 0.5685,0 1.097,-0.3092 1.3862,-0.7978 0.2892,-0.4987 0.2892,-1.107 0,-1.5957 z"
       fill="#000000"
       id="path1" />
    <path
       d="M 5.05859,49.0186 30.5887,4.99023 56.1188,49.0186 Z"
       fill="#f6bd16"
       id="path2" />
    <path
       d="m 33.2367,33.9859 c 0,1.4706 -1.1921,2.6627 -2.6627,2.6627 -1.4706,0 -2.6627,-1.1921 -2.6627,-2.6627 0,-1.4706 1.1921,-2.6627 2.6627,-2.6627 1.4706,0 2.6627,1.1921 2.6627,2.6627 z m 4.0091,-11.5484 -4.6673,8.0879 c 0.0798,0.0498 0.1596,0.0897 0.2394,0.1496 0.1097,0.0698 0.2094,0.1495 0.3091,0.2293 0.0998,0.0798 0.1895,0.1696 0.2892,0.2593 0.0898,0.0898 0.1796,0.1895 0.2593,0.2793 0.0798,0.0997 0.1596,0.1994 0.2294,0.3091 0.0698,0.1097 0.1396,0.2194 0.1995,0.3291 0.0598,0.1097 0.1196,0.2294 0.1695,0.3491 0.0499,0.1196 0.0997,0.2393 0.1396,0.3689 0.0399,0.1297 0.0698,0.2494 0.0997,0.379 0.03,0.1296 0.0499,0.2593 0.0599,0.3989 0.0099,0.1297 0.0199,0.2693 0.0199,0.4089 h 9.3345 c -0.02,-4.9066 -2.4334,-9.0951 -6.6817,-11.5484 z m -13.3335,0 c -4.2484,2.4533 -6.6618,6.6418 -6.6618,11.5484 h 9.3344 c 0,-0.1396 0.01,-0.2792 0.02,-0.4089 0.01,-0.1296 0.0399,-0.2693 0.0598,-0.3989 0.0299,-0.1296 0.0599,-0.2593 0.0997,-0.379 0.0399,-0.1296 0.0798,-0.2493 0.1397,-0.3689 0.0498,-0.1197 0.1097,-0.2394 0.1695,-0.3491 0.0598,-0.1097 0.1296,-0.2194 0.1995,-0.3291 0.0698,-0.1097 0.1495,-0.2094 0.2293,-0.3091 0.0798,-0.0998 0.1696,-0.1895 0.2593,-0.2793 0.0898,-0.0897 0.1895,-0.1795 0.2892,-0.2593 0.0998,-0.0798 0.1995,-0.1595 0.3092,-0.2293 0.0798,-0.0499 0.1595,-0.0998 0.2393,-0.1496 z m 4.6672,15.0089 -4.6672,8.0879 c 4.2483,2.4533 9.0851,2.4533 13.3335,0 l -4.6673,-8.0879 c -0.0299,0.02 -0.0598,0.0399 -0.0897,0.0599 -0.1097,0.0598 -0.2294,0.1196 -0.3491,0.1695 -0.1196,0.0499 -0.2393,0.0997 -0.369,0.1396 -0.1296,0.0399 -0.2493,0.0698 -0.3789,0.0997 -0.1297,0.03 -0.2593,0.0499 -0.3989,0.0599 -0.1297,0.0099 -0.2693,0.0199 -0.4089,0.0199 -0.1396,0 -0.2693,-0.01 -0.4089,-0.0199 -0.1296,-0.01 -0.2692,-0.0299 -0.3989,-0.0599 -0.1296,-0.0299 -0.2593,-0.0598 -0.379,-0.0997 -0.1296,-0.0399 -0.2493,-0.0798 -0.3689,-0.1396 -0.1197,-0.0499 -0.2394,-0.1097 -0.3491,-0.1695 -0.0399,-0.02 -0.0698,-0.0399 -0.0997,-0.0599 z"
       fill="#000000"
       id="path3" />
  </g>
  <defs
     id="defs3">
    <rect
       x="3.7521329"
       y="53.423225"
       width="80.58152"
       height="19.296682"
       id="rect4" />
    <clipPath
       id="clip0_18_4071">
      <rect
         width="59.836201"
         height="52.356701"
         fill="#ffffff"
         transform="translate(0.671875)"
         id="rect3"
         x="0"
         y="0" />
    </clipPath>
  </defs>
  <text
     xml:space="preserve"
     id="text3"
     style="font-size:5.75499px;line-height:4.89401px;font-family:Arial;-inkscape-font-specification:Arial;white-space:pre;shape-inside:url(#rect4);display:inline;fill:#000000;stroke-width:1.3115;stroke-miterlimit:3.6;stroke-dasharray:5.246, 1.3115"
     transform="matrix(1.3280097,0,0,2.492356,-4.5105182,-78.696268)"><tspan
       x="3.7519531"
       y="57.457797"
       id="tspan2">Peligro de Radiacion</tspan></text>
</svg>
