<?xml version="1.0" encoding="UTF-8" standalone="no"?>
<!-- Created with Inkscape (http://www.inkscape.org/) -->

<svg
   width="71"
   height="69"
   viewBox="0 0 18.785416 18.256251"
   version="1.1"
   id="svg1"
   xml:space="preserve"
   inkscape:version="1.3.2 (091e20e, 2023-11-25, custom)"
   sodipodi:docname="Red humeda.svg"
   xmlns:inkscape="http://www.inkscape.org/namespaces/inkscape"
   xmlns:sodipodi="http://sodipodi.sourceforge.net/DTD/sodipodi-0.dtd"
   xmlns="http://www.w3.org/2000/svg"
   xmlns:svg="http://www.w3.org/2000/svg"><sodipodi:namedview
     id="namedview1"
     pagecolor="#ffffff"
     bordercolor="#000000"
     borderopacity="0.25"
     inkscape:showpageshadow="2"
     inkscape:pageopacity="0.0"
     inkscape:pagecheckerboard="0"
     inkscape:deskcolor="#d1d1d1"
     inkscape:document-units="mm"
     inkscape:zoom="5.6568543"
     inkscape:cx="57.71759"
     inkscape:cy="53.47495"
     inkscape:window-width="1920"
     inkscape:window-height="1017"
     inkscape:window-x="-8"
     inkscape:window-y="-8"
     inkscape:window-maximized="1"
     inkscape:current-layer="layer1" /><defs
     id="defs1"><rect
       x="5.4800777"
       y="59.927299"
       width="132.43079"
       height="26.903677"
       id="rect1" /></defs><g
     inkscape:label="Capa 1"
     inkscape:groupmode="layer"
     id="layer1"
     style="display:inline"
     transform="matrix(0.22048607,0,0,0.22048607,-28.319466,-31.175237)"><path
       style="fill:#ff0000;stroke:#000000;stroke-width:2.16209"
       d="m 142.27087,142.45432 v 57.83792 h 57.83792 v -57.83792 z"
       id="path1" /><path
       style="fill:#ffffff;fill-opacity:1;stroke:none;stroke-width:1.31035;stroke-dasharray:none"
       d="m 175.09729,176.47686 -0.0902,2.75419 1.67225,-0.76993 -0.0257,-30.80232 -1.70718,-0.64646 0.0516,1.7219 z"
       id="path4"
       sodipodi:nodetypes="ccccccc" /><path
       style="fill:#ffffff;fill-opacity:1;stroke:none;stroke-width:1.31035;stroke-dasharray:none"
       d="m 161.0719,147.9842 c -0.69077,-0.6145 -1.2694,-0.63484 -1.60576,-0.15253 -0.64565,0.45324 -0.62761,1.03723 -0.79385,1.49628 v 28.11714 c 0.20362,0.45033 0.31574,0.93264 1.13279,1.17089 l 1.15985,0.0436 c 0.24356,-0.29781 0.48713,-0.4576 0.7307,-1.16652 l 0.0128,-28.17176 c -0.25646,-0.5651 -0.57992,-1.31761 -0.63662,-1.33358 z"
       id="path6-7"
       sodipodi:nodetypes="ccccccccc" /><path
       style="fill:#ffffff;fill-opacity:1;stroke:none;stroke-width:1.31035;stroke-dasharray:none"
       d="m 179.18383,162.05947 7.74018,0.0581 1.4212,-2.67661 2.43956,-1.3147 4.58913,0.0871 2.051,1.41058 0.71653,2.73182 -0.0773,1.88285 -1.33755,2.45391 -2.37744,1.38734 h -3.56935 l -2.4063,-1.63721 -1.52728,-2.6554 -7.66994,-0.0436 z"
       id="path2"
       sodipodi:nodetypes="ccccccccccccccc" /><path
       style="fill:#ff0000;fill-opacity:1;stroke:none;stroke-width:1.31035;stroke-dasharray:none"
       d="m 191.10501,159.99373 c -1.55716,0.22081 -1.94919,0.99219 -2.63878,3.37464 l 0.91369,2.11339 1.49053,1.05031 2.84087,0.0871 c 1.07866,-0.16124 2.04493,-0.60432 2.47666,-2.41004 v -1.95794 c -0.14949,-1.01834 -0.61085,-1.90973 -2.40371,-2.25925 -1.30896,-0.0871 -1.86684,-0.0581 -2.67926,0.01 z"
       id="path3"
       sodipodi:nodetypes="ccccccccc" /><path
       style="fill:#ffffff;fill-opacity:1;stroke:none;stroke-width:1.31035;stroke-dasharray:none"
       d="m 173.34245,147.49827 c -0.82222,-0.53169 -1.13794,-0.2397 -1.47778,0.0133 l -0.63019,1.37716 v 28.11714 l 0.49745,1.50819 c 1.65703,1.05322 1.99739,-0.68421 2.0769,-1.18831 v -28.54307 z m -8.78664,-0.10164 c -0.8338,0.0871 -1.46591,0.44017 -1.59286,1.41058 v 29.86982 c 0.37373,0.63484 0.95237,0.77866 1.53526,0.91085 0.50131,-0.0871 0.98588,-0.25712 1.4163,-0.70747 l -0.0128,-6.94103 -0.0644,-23.16588 c -0.0388,-0.90358 -0.60828,-1.19993 -1.28099,-1.37717 z"
       id="path5"
       sodipodi:nodetypes="cccccccccccccccc" /><path
       style="fill:#ffffff;fill-opacity:1;stroke:none;stroke-width:1.31035;stroke-dasharray:none"
       d="m 156.90378,147.39978 -0.8918,-0.0436 c -1.03355,0.67696 -0.75647,1.24933 -0.95364,1.86004 v 28.11714 c 0.0773,0.6174 0.10308,1.2624 0.80029,1.45416 l 1.12247,0.0436 c 0.33765,-0.29053 0.68431,-0.56364 0.74617,-1.35392 l -0.0128,-28.23335 c -0.26934,-1.479 -0.53996,-1.74063 -0.80932,-1.84392 z"
       id="path5-5"
       sodipodi:nodetypes="cccccccccc" /><path
       style="fill:#ffffff;fill-opacity:1;stroke:none;stroke-width:1.31035;stroke-dasharray:none"
       d="m 169.37627,147.7923 c -0.35696,-0.43 -0.7771,-0.57527 -1.34632,-0.0581 -0.5142,0.33702 -0.67915,0.85563 -0.92659,1.33068 V 177.182 c 0.17526,0.59998 0.53095,1.01254 1.13279,1.17089 l 0.95622,0.029 c 0.33766,-0.24115 0.66756,-0.50408 0.93432,-0.96169 -0.0386,-9.06692 0.0902,-19.67488 0.0516,-28.11772 -0.11592,-0.5346 -0.32992,-1.05176 -0.80417,-1.51256 z"
       id="path6"
       sodipodi:nodetypes="ccccccccc" /><path
       style="fill:#ffffff;fill-opacity:1;stroke:none;stroke-width:1.31035;stroke-dasharray:none"
       d="m 148.20183,145.8573 v 34.10518 h 6.60456 l -0.42657,-32.54731 -5.12357,-0.0871 v -1.55803 c -0.5129,-0.30652 -0.82478,-0.19902 -1.05417,0.0871 z"
       id="path7"
       sodipodi:nodetypes="ccccccc" /><path
       style="fill:#ffffff;fill-opacity:1;stroke:none;stroke-width:1.10238;stroke-dasharray:none"
       d="m 148.71616,180.41079 h 5.70812 l -0.26676,3.58035 -4.87484,-0.0581 z"
       id="path8"
       sodipodi:nodetypes="ccccc" /><path
       style="fill:#ffffff;fill-opacity:1;stroke:none;stroke-width:1.86118;stroke-dasharray:none"
       d="m 150.53518,184.2667 2.82371,-0.0581 -0.62116,10.516 -1.57223,-0.0871 z"
       id="path9"
       sodipodi:nodetypes="ccccc" /><path
       style="fill:#ffffff;fill-opacity:1;stroke:none;stroke-width:1.31035;stroke-dasharray:none"
       d="m 186.91048,162.09855 h 11.16998 v 1.7139 h -11.33945 z"
       id="path10" /><path
       style="fill:#ffffff;fill-opacity:1;stroke:none;stroke-width:1.31035;stroke-dasharray:none"
       d="m 191.82683,168.0577 v -9.95119 h 1.31848 v 9.9708 z"
       id="path11" /><text
       xml:space="preserve"
       transform="matrix(0.91628093,0,0,1.6009156,122.92822,109.82591)"
       id="text1"
       style="font-size:16px;line-height:13.6063px;font-family:Arial;-inkscape-font-specification:Arial;white-space:pre;shape-inside:url(#rect1);display:inline;fill:#000000;stroke-width:1.3115;stroke-miterlimit:3.6;stroke-dasharray:5.246, 1.3115"><tspan
         x="5.4804688"
         y="71.142955"
         id="tspan2">Red Húmeda</tspan></text></g></svg>
