<?xml version="1.0" encoding="UTF-8" standalone="no"?>
<!-- Created with Inkscape (http://www.inkscape.org/) -->

<svg
   width="50"
   height="50"
   viewBox="0 0 13.229166 13.229167"
   version="1.1"
   id="svg1"
   xml:space="preserve"
   inkscape:version="1.3.2 (091e20e, 2023-11-25)"
   sodipodi:docname="Red humeda.svg"
   xmlns:inkscape="http://www.inkscape.org/namespaces/inkscape"
   xmlns:sodipodi="http://sodipodi.sourceforge.net/DTD/sodipodi-0.dtd"
   xmlns="http://www.w3.org/2000/svg"
   xmlns:svg="http://www.w3.org/2000/svg"><sodipodi:namedview
     id="namedview1"
     pagecolor="#ffffff"
     bordercolor="#000000"
     borderopacity="0.25"
     inkscape:showpageshadow="2"
     inkscape:pageopacity="0.0"
     inkscape:pagecheckerboard="0"
     inkscape:deskcolor="#d1d1d1"
     inkscape:document-units="mm"
     inkscape:zoom="14.327886"
     inkscape:cx="23.590361"
     inkscape:cy="31.860947"
     inkscape:window-width="1680"
     inkscape:window-height="1022"
     inkscape:window-x="0"
     inkscape:window-y="28"
     inkscape:window-maximized="0"
     inkscape:current-layer="layer1" /><defs
     id="defs1"><rect
       x="5.4800777"
       y="59.927299"
       width="132.43079"
       height="26.903677"
       id="rect1" /></defs><g
     inkscape:label="Capa 1"
     inkscape:groupmode="layer"
     id="layer1"
     style="display:inline"
     transform="matrix(0.22048607,0,0,0.22048607,-28.319466,-31.175237)"><path
       style="fill:#ff0000;stroke:#000000;stroke-width:1.55148"
       d="m 138.01396,142.20288 v 41.99579 h 41.01707 v -41.99579 z"
       id="path1" /><path
       style="fill:#ffffff;fill-opacity:1;stroke:none;stroke-width:0.940287;stroke-dasharray:none"
       d="m 161.29353,166.90645 -0.0643,1.99979 1.18593,-0.55929 -0.0214,-22.36535 -1.21071,-0.46929 0.0357,1.25029 z"
       id="path4"
       sodipodi:nodetypes="ccccccc" /><path
       style="fill:#ffffff;fill-opacity:1;stroke:none;stroke-width:0.940287;stroke-dasharray:none"
       d="m 151.34717,146.2181 c -0.49,-0.44643 -0.90029,-0.46072 -1.13878,-0.11072 -0.45786,0.32929 -0.445,0.75314 -0.56286,1.08643 v 20.41564 c 0.14428,0.32715 0.22429,0.67714 0.80336,0.85022 l 0.82257,0.0286 c 0.17285,-0.21643 0.34571,-0.33215 0.51785,-0.847 l 0.007,-20.45536 c -0.18215,-0.41 -0.41143,-0.95671 -0.45143,-0.96828 z"
       id="path6-7"
       sodipodi:nodetypes="ccccccccc" /><path
       style="fill:#ffffff;fill-opacity:1;stroke:none;stroke-width:0.940287;stroke-dasharray:none"
       d="m 164.1916,156.4381 5.48914,0.0429 1.00786,-1.94343 1.73007,-0.95464 3.2545,0.0643 1.4545,1.02421 0.50786,1.98357 -0.0571,1.36707 -0.94858,1.78179 -1.686,1.00736 h -2.53128 l -1.7065,-1.18879 -1.08307,-1.92807 -5.43936,-0.0286 z"
       id="path2"
       sodipodi:nodetypes="ccccccccccccccc" /><path
       style="fill:#ff0000;fill-opacity:1;stroke:none;stroke-width:0.940287;stroke-dasharray:none"
       d="m 172.64582,154.93817 c -1.10429,0.16 -1.38236,0.72043 -1.87136,2.45028 l 0.64785,1.5345 1.05708,0.76265 2.01464,0.0643 c 0.765,-0.11714 1.45021,-0.43857 1.75643,-1.74993 v -1.42164 c -0.10572,-0.73943 -0.43357,-1.38664 -1.70465,-1.64043 -0.92828,-0.0643 -1.32393,-0.0429 -1.90007,0.007 z"
       id="path3"
       sodipodi:nodetypes="ccccccccc" /><path
       style="fill:#ffffff;fill-opacity:1;stroke:none;stroke-width:0.940287;stroke-dasharray:none"
       d="m 160.0491,145.86531 c -0.58286,-0.38571 -0.807,-0.17429 -1.048,0.007 l -0.44714,0.99993 v 20.41564 l 0.35286,1.09515 c 1.17507,0.76471 1.41649,-0.49715 1.47285,-0.86286 v -20.72493 z m -6.23129,-0.0736 c -0.59142,0.0643 -1.03957,0.31928 -1.12957,1.02414 v 21.68829 c 0.265,0.46071 0.675,0.56571 1.08872,0.66143 0.35571,-0.0643 0.69928,-0.18643 1.00443,-0.51358 l -0.007,-5.03985 -0.0428,-16.82057 c -0.0286,-0.65572 -0.43143,-0.87129 -0.9085,-1 z"
       id="path5"
       sodipodi:nodetypes="cccccccccccccccc" /><path
       style="fill:#ffffff;fill-opacity:1;stroke:none;stroke-width:0.940287;stroke-dasharray:none"
       d="m 148.39124,145.79374 -0.63214,-0.0286 c -0.733,0.49143 -0.53643,0.90714 -0.67643,1.35057 v 20.41564 c 0.0571,0.44857 0.0729,0.91664 0.56786,1.05586 l 0.796,0.0286 c 0.23929,-0.21071 0.485,-0.40929 0.52928,-0.98307 l -0.007,-20.50007 c -0.19071,-1.07393 -0.38286,-1.26386 -0.57429,-1.33886 z"
       id="path5-5"
       sodipodi:nodetypes="cccccccccc" /><path
       style="fill:#ffffff;fill-opacity:1;stroke:none;stroke-width:0.940287;stroke-dasharray:none"
       d="m 157.23639,146.07881 c -0.25286,-0.31214 -0.55143,-0.41786 -0.95479,-0.0429 -0.365,0.245 -0.48143,0.62143 -0.65714,0.96622 v 20.41564 c 0.12428,0.43571 0.37643,0.73522 0.80335,0.85021 l 0.67786,0.0214 c 0.23929,-0.175 0.47357,-0.36571 0.66286,-0.69857 -0.0286,-6.58343 0.0643,-14.28578 0.0357,-20.41607 -0.0821,-0.38785 -0.23428,-0.76371 -0.57,-1.09828 z"
       id="path6"
       sodipodi:nodetypes="ccccccccc" /><path
       style="fill:#ffffff;fill-opacity:1;stroke:none;stroke-width:0.940287;stroke-dasharray:none"
       d="m 142.22003,144.67381 v 24.7635 h 4.68379 l -0.30215,-23.63236 -3.6335,-0.0643 v -1.13122 c -0.36357,-0.22286 -0.585,-0.14428 -0.74757,0.0643 z"
       id="path7"
       sodipodi:nodetypes="ccccccc" /><path
       style="fill:#ffffff;fill-opacity:1;stroke:none;stroke-width:0.791051;stroke-dasharray:none"
       d="m 142.58481,169.76288 h 4.04801 l -0.18929,2.59964 -3.45714,-0.0428 z"
       id="path8"
       sodipodi:nodetypes="ccccc" /><path
       style="fill:#ffffff;fill-opacity:1;stroke:none;stroke-width:1.33555;stroke-dasharray:none"
       d="m 143.87481,172.56259 2.0025,-0.0428 -0.44071,7.63557 -1.11493,-0.0643 z"
       id="path9"
       sodipodi:nodetypes="ccccc" /><path
       style="fill:#ffffff;fill-opacity:1;stroke:none;stroke-width:0.940287;stroke-dasharray:none"
       d="m 169.67117,156.46645 h 7.92143 v 1.24443 h -8.04164 z"
       id="path10" /><path
       style="fill:#ffffff;fill-opacity:1;stroke:none;stroke-width:0.940287;stroke-dasharray:none"
       d="m 173.15767,160.79338 v -7.2255 h 0.93507 v 7.23972 z"
       id="path11" /><text
       xml:space="preserve"
       transform="matrix(0.64980129,0,0,1.1624143,124.10424,117.93438)"
       id="text1"
       style="font-size:16px;line-height:13.6063px;font-family:Arial;-inkscape-font-specification:Arial;white-space:pre;shape-inside:url(#rect1);display:inline;fill:#ffffff;stroke-width:1.3115;stroke-miterlimit:3.6;stroke-dasharray:5.246, 1.3115;fill-opacity:1"><tspan
         x="5.4804688"
         y="71.142955"
         id="tspan1">Red Húmeda</tspan></text></g></svg>
