<?xml version="1.0" encoding="UTF-8" standalone="no"?>
<svg
   width="50"
   height="50"
   viewBox="0 0 50 50"
   fill="none"
   version="1.1"
   id="svg5"
   sodipodi:docname="RiesgoBiologico.svg"
   inkscape:version="1.3.2 (091e20e, 2023-11-25)"
   xmlns:inkscape="http://www.inkscape.org/namespaces/inkscape"
   xmlns:sodipodi="http://sodipodi.sourceforge.net/DTD/sodipodi-0.dtd"
   xmlns="http://www.w3.org/2000/svg"
   xmlns:svg="http://www.w3.org/2000/svg">
  <sodipodi:namedview
     id="namedview5"
     pagecolor="#ffffff"
     bordercolor="#000000"
     borderopacity="0.25"
     inkscape:showpageshadow="2"
     inkscape:pageopacity="0.0"
     inkscape:pagecheckerboard="0"
     inkscape:deskcolor="#d1d1d1"
     inkscape:zoom="7.9150943"
     inkscape:cx="20.340882"
     inkscape:cy="42.766389"
     inkscape:window-width="1680"
     inkscape:window-height="1050"
     inkscape:window-x="0"
     inkscape:window-y="0"
     inkscape:window-maximized="0"
     inkscape:current-layer="svg5" />
  <g
     clip-path="url(#clip0_18_4065)"
     id="g5"
     transform="matrix(0.79838912,0,0,0.7021276,0.23812114,0.37902266)">
    <path
       d="M 60.2843,49.8236 31.9818,0.797816 C 31.6926,0.299181 31.164,0 30.5956,0 30.0271,0 29.4986,0.309154 29.2094,0.797816 L 0.906848,49.8236 c -0.289209,0.4987 -0.289209,1.107 0,1.5957 0.289212,0.4986 0.817762,0.7978 1.386202,0.7978 H 58.8981 c 0.5685,0 1.097,-0.3092 1.3862,-0.7978 0.2892,-0.4987 0.2892,-1.107 0,-1.5957 z"
       fill="#000000"
       id="path1" />
    <path
       d="M 5.07471,49.0186 30.6048,4.99023 56.135,49.0186 Z"
       fill="#f6bd16"
       id="path2" />
    <path
       d="m 29.9716,21.5889 c -3.5887,0.3214 -6.4076,3.3362 -6.4076,7.0079 0,3.3449 2.3373,6.147 5.4667,6.863 -0.0097,-0.071 -0.0168,-0.1423 -0.0168,-0.2159 0,-0.7585 0.5335,-1.3924 1.2444,-1.5513 v -0.6812 c -2.7739,-0.1798 -4.971,-2.4892 -4.971,-5.3083 0,-2.7213 2.0472,-4.9672 4.6843,-5.2812 z m 1.2681,0 v 0.833 c 2.6371,0.314 4.6843,2.5599 4.6843,5.2812 0,2.8191 -2.1971,5.1285 -4.971,5.3083 v 0.6812 c 0.7109,0.1589 1.2411,0.7928 1.2411,1.5513 0,0.0735 -0.0038,0.145 -0.0135,0.2159 3.1279,-0.7165 5.4634,-3.5186 5.4634,-6.863 0,-3.6717 -2.816,-6.6865 -6.4043,-7.0079 z m -0.6341,6.2323 c -1.6039,0 -3.0891,0.5099 -4.3032,1.3759 0.1395,0.4021 0.3366,0.7776 0.5767,1.1197 1.0363,-0.7852 2.3271,-1.2512 3.7265,-1.2512 1.3996,0 2.6902,0.4659 3.7266,1.2512 0.2393,-0.3416 0.434,-0.7183 0.5733,-1.1197 -1.2139,-0.8655 -2.6964,-1.3759 -4.2999,-1.3759 z"
       fill="#000000"
       id="path3" />
    <path
       d="m 19.0945,42.6233 c 2.0727,2.9472 6.0931,3.8811 9.2729,2.0453 2.8967,-1.6725 4.1548,-5.0978 3.2101,-8.1659 -0.0566,0.0439 -0.1147,0.0858 -0.1785,0.1226 -0.6569,0.3792 -1.4727,0.2341 -1.9657,-0.3021 l -0.59,0.3406 c 1.2313,2.4922 0.3299,5.5496 -2.1115,6.9592 -2.3567,1.3606 -5.3254,0.7107 -6.9159,-1.4162 z m -0.634,-1.0981 0.7214,-0.4165 c -1.0467,-2.4408 -0.1252,-5.3367 2.2315,-6.6974 2.4414,-1.4095 5.5399,-0.6615 7.0826,1.6509 l 0.5899,-0.3406 c -0.2178,-0.6951 0.0661,-1.4712 0.723,-1.8505 0.0637,-0.0367 0.1275,-0.0692 0.1937,-0.0962 -2.1845,-2.3506 -5.7789,-2.9721 -8.6752,-1.3 -3.1798,1.8359 -4.3827,5.7819 -2.8669,9.0503 z m 5.7143,-2.5671 c 0.802,1.389 1.9862,2.4203 3.3433,3.0388 0.2784,-0.3219 0.5051,-0.6804 0.6813,-1.0593 -1.1982,-0.5049 -2.2471,-1.3897 -2.9469,-2.6017 -0.6998,-1.2121 -0.9416,-2.5627 -0.7797,-3.8529 -0.4155,-0.0364 -0.839,-0.0167 -1.2563,0.0633 -0.1426,1.4841 0.1566,3.0232 0.9583,4.4118 z"
       fill="#000000"
       id="path4" />
    <path
       d="m 42.7499,41.5335 c 1.516,-3.2686 0.3146,-7.2173 -2.8652,-9.0531 -2.8968,-1.6725 -6.4922,-1.0493 -8.6769,1.3028 0.0663,0.0271 0.1316,0.0565 0.1954,0.0933 0.6569,0.3793 0.9391,1.1583 0.7212,1.8534 l 0.59,0.3406 c 1.5427,-2.3124 4.6412,-3.0604 7.0826,-1.6509 2.3567,1.3607 3.2781,4.2566 2.2315,6.6974 z m -0.634,1.0982 -0.7214,-0.4165 c -1.5905,2.1268 -4.5592,2.7768 -6.9159,1.4161 -2.4414,-1.4095 -3.3428,-4.4669 -2.1115,-6.9591 l -0.59,-0.3406 c -0.493,0.5362 -1.3071,0.6784 -1.964,0.2991 -0.0637,-0.0368 -0.1237,-0.0758 -0.1802,-0.1196 -0.9435,3.0671 0.3155,6.4907 3.2118,8.1629 3.1798,1.8359 7.1986,0.9046 9.2712,-2.0423 z m -5.0803,-3.6652 c 0.8019,-1.3891 1.1029,-2.9303 0.96,-4.4147 -0.4179,-0.0802 -0.8417,-0.0973 -1.258,-0.0604 0.1618,1.29 -0.08,2.6409 -0.7797,3.8528 -0.6998,1.2121 -1.7486,2.0969 -2.9469,2.6018 0.1762,0.378 0.405,0.7349 0.683,1.0563 1.3566,-0.6185 2.5399,-1.6472 3.3416,-3.0358 z"
       fill="#000000"
       id="path5" />
  </g>
  <defs
     id="defs5">
    <clipPath
       id="clip0_18_4065">
      <rect
         width="59.836201"
         height="52.356701"
         fill="#ffffff"
         transform="translate(0.6875)"
         id="rect5"
         x="0"
         y="0" />
    </clipPath>
  </defs>
  <text
     xml:space="preserve"
     style="font-size:8.1495px;line-height:6.93028px;font-family:Arial;-inkscape-font-specification:Arial;fill:#ffffff;stroke-width:1.67001;stroke-miterlimit:3.6;stroke-dasharray:6.68004, 1.67001;fill-opacity:1"
     x="-0.49457243"
     y="40.472702"
     id="text5"
     transform="scale(0.84951619,1.1771406)"><tspan
       sodipodi:role="line"
       x="-0.49457243"
       y="40.472702"
       id="tspan6"
       style="stroke-width:1.67001;fill:#ffffff;fill-opacity:1">Riesgo biologico</tspan></text>
</svg>
