<?xml version="1.0" encoding="UTF-8" standalone="no"?>
<!-- Created with Inkscape (http://www.inkscape.org/) -->

<svg
   width="50"
   height="50"
   viewBox="0 0 13.229166 13.229167"
   version="1.1"
   id="svg1"
   xml:space="preserve"
   inkscape:version="1.3.2 (091e20e, 2023-11-25)"
   sodipodi:docname="Sala de Calderas.svg"
   xmlns:inkscape="http://www.inkscape.org/namespaces/inkscape"
   xmlns:sodipodi="http://sodipodi.sourceforge.net/DTD/sodipodi-0.dtd"
   xmlns="http://www.w3.org/2000/svg"
   xmlns:svg="http://www.w3.org/2000/svg"><sodipodi:namedview
     id="namedview1"
     pagecolor="#ffffff"
     bordercolor="#000000"
     borderopacity="0.25"
     inkscape:showpageshadow="2"
     inkscape:pageopacity="0.0"
     inkscape:pagecheckerboard="0"
     inkscape:deskcolor="#d1d1d1"
     inkscape:document-units="mm"
     inkscape:zoom="5.6568546"
     inkscape:cx="37.83021"
     inkscape:cy="38.448929"
     inkscape:window-width="1680"
     inkscape:window-height="1022"
     inkscape:window-x="0"
     inkscape:window-y="28"
     inkscape:window-maximized="0"
     inkscape:current-layer="layer4"><inkscape:page
       x="0"
       y="0"
       width="13.229166"
       height="13.229167"
       id="page5"
       margin="0"
       bleed="0" /></sodipodi:namedview><defs
     id="defs1"><rect
       x="55.507881"
       y="0.35355338"
       width="137.53226"
       height="51.26524"
       id="rect1" /></defs><g
     inkscape:groupmode="layer"
     id="layer4"
     inkscape:label="Capa 2"
     style="display:inline"
     transform="matrix(2.659605,0,0,2.659605,-366.09194,-291.89711)"><path
       style="fill:#0000ff;stroke:#000000;stroke-width:0.081613"
       d="m 138.31716,113.69165 h 3.89117 v -3.89767 h -3.8976 z"
       id="path1" /><path
       style="fill:#ffffff;fill-opacity:1;stroke:none;stroke-width:0.081613"
       d="m 138.99758,113.14989 h 2.44676 v 0.23396 h -2.42858 z"
       id="path2" /><path
       style="fill:#ffffff;fill-opacity:1;stroke:none;stroke-width:0.081613"
       d="m 139.88006,113.04645 c -0.26924,-0.0612 -0.52843,-0.12268 -0.6211,-0.44554 -0.18052,-0.23703 -0.011,-0.65264 -0.003,-0.97058 0.0404,0.0691 0.0732,0.14531 0.15115,0.17866 0.0264,-0.0308 0.0636,-0.0185 0.0708,-0.12572 0.002,-0.20439 0.0919,-0.38804 -0.002,-0.61487 0.0645,0.04 0.12253,0.0944 0.16888,0.17481 0.0489,0.0478 0.12383,0.0316 0.15584,-0.0768 0.0416,-0.18552 0.004,-0.39118 -0.0368,-0.59814 0.0504,0.0449 0.12095,0.0595 0.14152,0.14889 0.023,0.0267 0.0485,0.0417 0.0836,0.006 0.0886,-0.16873 0.10413,-0.42027 0.13507,-0.68821 0.0737,0.14942 0.16226,0.29767 0.19938,0.44998 0.0458,0.0953 0.022,0.12941 0.16078,0.17537 0.0526,-0.006 0.0584,-0.0515 0.0771,-0.086 0.004,0.0633 0.0149,0.12472 0.0579,0.17867 0.0295,-0.007 0.057,-0.0285 0.0804,-0.0761 -0.0184,0.16125 -0.004,0.19145 0.0129,0.20184 0.0522,0.007 0.10157,-0.004 0.14472,-0.0563 -0.0446,0.15719 -0.0367,0.22288 0.0249,0.38872 0.0153,0.0242 0.0348,0.0306 0.0561,0.03 0.057,-0.0181 0.1743,-0.0423 0.20912,-0.0803 -0.13884,0.56644 -0.0526,0.60674 -0.0184,0.77732 0.10027,0.0131 0.18239,-0.0244 0.26049,-0.18003 -0.009,0.15343 0.003,0.33852 -0.0337,0.44723 -0.0577,0.34644 -0.24351,0.5612 -0.48237,0.7213 l -0.32681,0.12334 z"
       id="path3"
       sodipodi:nodetypes="cccccccccccccccccccccccccccc" /><path
       style="fill:#0000ff;fill-opacity:1;stroke:none;stroke-width:0.081613"
       d="m 140.13944,112.96928 c -0.23974,-0.0532 -0.3009,-0.25487 -0.32237,-0.3667 -0.0812,-0.35657 0.0179,-0.51196 0.057,-0.47171 0.0154,0.16937 -0.0306,0.26246 0.18663,0.30602 -0.0419,-0.19607 -0.0363,-0.29631 0.0574,-0.34625 0.0148,0.10504 -0.0305,0.20671 0.10195,0.26874 0.0375,0.0109 0.0928,0.0392 0.1417,-0.0991 0.0756,-0.21264 0.0823,-0.4961 0.10113,-0.76713 0.0511,0.23226 0.12175,0.45103 0.13876,0.70665 0.0448,-0.0183 0.0932,-0.009 0.11997,-0.16216 0.0215,0.0871 0.0858,0.0298 0.0305,0.37753 -0.0883,0.2515 -0.13713,0.5493 -0.43513,0.55417 z"
       id="path4"
       sodipodi:nodetypes="ccccccccccccc" /><text
       xml:space="preserve"
       transform="matrix(0.03693441,0,0,0.05776779,135.59062,112.65879)"
       id="text1"
       style="font-style:normal;font-variant:normal;font-weight:bold;font-stretch:condensed;font-size:13.3333px;line-height:52.9134px;font-family:Arial;-inkscape-font-specification:'Arial Bold Condensed';white-space:pre;shape-inside:url(#rect1);display:inline;fill:#ffffff;fill-opacity:1;stroke:none;stroke-width:1.3115;stroke-miterlimit:3.6;stroke-dasharray:5.246, 1.3115"><tspan
         x="55.507812"
         y="30.486931"
         id="tspan1">SALA DE CALDERAS</tspan></text></g></svg>
