<svg width="60" height="60" viewBox="0 0 60 60" fill="none" xmlns="http://www.w3.org/2000/svg">
<g clip-path="url(#clip0_13_3873)">
<path d="M60 0H0V60H60V0Z" fill="white"/>
<path d="M1.5 30V1.66113H30H58.5V30V58.3381H30H1.5V30ZM22.4322 57.4861C22.4322 57.3721 21.5988 56.5051 20.5806 55.5601L18.7287 53.8411L21.4134 53.8351L24.0981 53.8321L26.1102 55.7641L28.1226 57.6961H39.126C45.177 57.6961 50.127 57.5791 50.127 57.4411C50.127 57.3001 49.476 56.5441 48.678 55.7641L47.229 54.3421V50.5441V46.7461H50.268C51.942 46.7461 53.376 46.6381 53.457 46.5031C53.757 46.0171 51.813 42.3571 50.799 41.5051C50.226 41.0221 49.188 40.5361 48.492 40.4251L47.229 40.2241V22.8741V5.52543H30H12.7713V16.1526V26.7798H15.6516H18.5319L21.1617 23.64C22.608 21.9132 24.174 20.2476 24.6414 19.9386C25.3803 19.4505 26.355 19.377 32.094 19.377C40.068 19.377 39.792 19.2597 42.462 23.7876C44.55 27.3345 44.754 28.4184 43.488 29.2488C42.741 29.7387 42.555 29.7486 41.829 29.337C41.382 29.0817 40.296 27.6051 39.417 26.0553L37.818 23.2374H35.598C34.38 23.2374 33.381 23.3109 33.381 23.4009C33.381 23.4909 34.2 25.266 35.199 27.3459L37.017 31.128L37.374 36.1201L37.728 41.1091L43.365 41.2741C49.497 41.4511 50.07 41.6011 51.108 43.3051C52.464 45.5281 52.728 45.4591 43.02 45.4591C35.382 45.4591 34.236 45.3931 33.774 44.9311C33.279 44.4361 32.835 40.4851 32.76 35.877C32.748 35.1241 32.625 34.509 32.487 34.509C32.352 34.509 30.45 38.0941 28.2612 42.4801C26.0727 46.8631 23.9877 50.7721 23.6277 51.1681C23.2674 51.5641 22.4559 51.9871 21.8241 52.1041C20.454 52.3621 18.3051 52.3891 18.0678 52.1491C17.9748 52.0561 20.0781 47.6281 22.7415 42.3031C25.4052 36.981 27.5844 32.556 27.5844 32.472C27.5844 32.274 24.6726 26.0223 24.4971 25.8426C24.4263 25.7697 24.0678 26.0598 23.7009 26.4867C23.334 26.9136 22.3728 28.0236 21.5649 28.9536L20.0961 30.645H16.4334H12.7707V42.4681V54.2941L14.4504 55.9951L16.1301 57.6961H19.281C21.0138 57.6961 22.4319 57.6001 22.4319 57.4861H22.4322ZM23.8407 18.0903C22.9611 17.7351 21.8367 16.155 21.5916 14.9298C21.3375 13.6581 22.2633 11.7489 23.4258 11.1477C23.9244 10.8897 24.9339 10.6788 25.6689 10.6788C26.7591 10.6788 27.2067 10.8804 28.1001 11.7738C28.9935 12.6672 29.1948 13.1145 29.1948 14.205C29.1948 15.9873 28.4967 17.241 27.1476 17.8812C25.9389 18.4548 24.9054 18.5202 23.8404 18.0903H23.8407Z" fill="#008855"/>
</g>
<defs>
<clipPath id="clip0_13_3873">
<rect width="60" height="60" fill="white"/>
</clipPath>
</defs>
</svg>
