<svg width="18" height="24" viewBox="0 0 18 24" fill="none" xmlns="http://www.w3.org/2000/svg">
<path fill-rule="evenodd" clip-rule="evenodd" d="M0 8.4C0 3.756 4.02429 0 9 0C13.9757 0 18 3.756 18 8.4C18 14.7 9 24 9 24C9 24 4.50077 19.3508 1.86464 14.4H8.98332L9.0001 14.4C12.5505 14.4 15.4287 11.7137 15.4287 8.39999C15.4287 5.08629 12.5505 2.4 9.0001 2.4C5.4497 2.4 2.57153 5.08629 2.57153 8.39999C2.57153 9.75071 3.04974 10.9972 3.85676 12H0.761511C0.288223 10.7509 0 9.52742 0 8.4ZM8.99992 12C11.1302 12 12.8571 10.3882 12.8571 8.40002C12.8571 6.4118 11.1302 4.80002 8.99992 4.80002C6.86968 4.80002 5.14277 6.4118 5.14277 8.40002C5.14277 10.3882 6.86968 12 8.99992 12Z" fill="#FF0000"/>
</svg>
